G04 #@! TF.GenerationSoftware,KiCad,Pcbnew,5.1.10-88a1d61d58~88~ubuntu20.10.1*
G04 #@! TF.CreationDate,2021-05-12T21:52:12+02:00*
G04 #@! TF.ProjectId,Servopoint_opto,53657276-6f70-46f6-996e-745f6f70746f,rev?*
G04 #@! TF.SameCoordinates,Original*
G04 #@! TF.FileFunction,Copper,L1,Top*
G04 #@! TF.FilePolarity,Positive*
%FSLAX46Y46*%
G04 Gerber Fmt 4.6, Leading zero omitted, Abs format (unit mm)*
G04 Created by KiCad (PCBNEW 5.1.10-88a1d61d58~88~ubuntu20.10.1) date 2021-05-12 21:52:12*
%MOMM*%
%LPD*%
G01*
G04 APERTURE LIST*
G04 #@! TA.AperFunction,SMDPad,CuDef*
%ADD10R,2.900000X5.400000*%
G04 #@! TD*
G04 #@! TA.AperFunction,SMDPad,CuDef*
%ADD11R,1.000000X0.750000*%
G04 #@! TD*
G04 #@! TA.AperFunction,ComponentPad*
%ADD12C,2.550000*%
G04 #@! TD*
G04 #@! TA.AperFunction,ComponentPad*
%ADD13R,2.550000X2.550000*%
G04 #@! TD*
G04 #@! TA.AperFunction,SMDPad,CuDef*
%ADD14R,1.200000X1.900000*%
G04 #@! TD*
G04 #@! TA.AperFunction,SMDPad,CuDef*
%ADD15R,3.200000X2.514000*%
G04 #@! TD*
G04 #@! TA.AperFunction,ComponentPad*
%ADD16O,1.700000X1.700000*%
G04 #@! TD*
G04 #@! TA.AperFunction,ComponentPad*
%ADD17R,1.700000X1.700000*%
G04 #@! TD*
G04 #@! TA.AperFunction,ComponentPad*
%ADD18C,1.524000*%
G04 #@! TD*
G04 #@! TA.AperFunction,SMDPad,CuDef*
%ADD19R,1.800000X2.500000*%
G04 #@! TD*
G04 #@! TA.AperFunction,SMDPad,CuDef*
%ADD20R,0.900000X0.800000*%
G04 #@! TD*
G04 #@! TA.AperFunction,SMDPad,CuDef*
%ADD21R,1.200000X0.900000*%
G04 #@! TD*
G04 #@! TA.AperFunction,SMDPad,CuDef*
%ADD22R,0.900000X1.200000*%
G04 #@! TD*
G04 #@! TA.AperFunction,SMDPad,CuDef*
%ADD23R,9.400000X10.800000*%
G04 #@! TD*
G04 #@! TA.AperFunction,SMDPad,CuDef*
%ADD24R,4.600000X1.100000*%
G04 #@! TD*
G04 #@! TA.AperFunction,SMDPad,CuDef*
%ADD25R,1.520000X1.780000*%
G04 #@! TD*
G04 #@! TA.AperFunction,SMDPad,CuDef*
%ADD26R,1.520000X1.750000*%
G04 #@! TD*
G04 #@! TA.AperFunction,ViaPad*
%ADD27C,0.800000*%
G04 #@! TD*
G04 #@! TA.AperFunction,Conductor*
%ADD28C,0.500000*%
G04 #@! TD*
G04 #@! TA.AperFunction,Conductor*
%ADD29C,1.000000*%
G04 #@! TD*
G04 #@! TA.AperFunction,Conductor*
%ADD30C,0.250000*%
G04 #@! TD*
G04 #@! TA.AperFunction,Conductor*
%ADD31C,0.750000*%
G04 #@! TD*
G04 #@! TA.AperFunction,Conductor*
%ADD32C,0.254000*%
G04 #@! TD*
G04 #@! TA.AperFunction,Conductor*
%ADD33C,0.100000*%
G04 #@! TD*
G04 APERTURE END LIST*
D10*
X114000000Y-81500000D03*
X104100000Y-81500000D03*
D11*
X93000000Y-46875000D03*
X87000000Y-46875000D03*
X93000000Y-43125000D03*
X87000000Y-43125000D03*
D12*
X80000000Y-50840000D03*
X80000000Y-55920000D03*
D13*
X80000000Y-61000000D03*
D12*
X120000000Y-61160000D03*
X120000000Y-56080000D03*
D13*
X120000000Y-51000000D03*
D12*
X80000000Y-75000000D03*
X80000000Y-80080000D03*
X80000000Y-85160000D03*
D13*
X80000000Y-90240000D03*
D12*
X120000000Y-90240000D03*
X120000000Y-85160000D03*
X120000000Y-80080000D03*
D13*
X120000000Y-75000000D03*
D14*
X90549590Y-98124420D03*
X85449590Y-98124420D03*
X90549590Y-89874420D03*
X85449590Y-89874420D03*
D15*
X90000000Y-67000000D03*
G04 #@! TA.AperFunction,SMDPad,CuDef*
G36*
G01*
X91755000Y-68825000D02*
X92055000Y-68825000D01*
G75*
G02*
X92205000Y-68975000I0J-150000D01*
G01*
X92205000Y-70300000D01*
G75*
G02*
X92055000Y-70450000I-150000J0D01*
G01*
X91755000Y-70450000D01*
G75*
G02*
X91605000Y-70300000I0J150000D01*
G01*
X91605000Y-68975000D01*
G75*
G02*
X91755000Y-68825000I150000J0D01*
G01*
G37*
G04 #@! TD.AperFunction*
G04 #@! TA.AperFunction,SMDPad,CuDef*
G36*
G01*
X90485000Y-68825000D02*
X90785000Y-68825000D01*
G75*
G02*
X90935000Y-68975000I0J-150000D01*
G01*
X90935000Y-70300000D01*
G75*
G02*
X90785000Y-70450000I-150000J0D01*
G01*
X90485000Y-70450000D01*
G75*
G02*
X90335000Y-70300000I0J150000D01*
G01*
X90335000Y-68975000D01*
G75*
G02*
X90485000Y-68825000I150000J0D01*
G01*
G37*
G04 #@! TD.AperFunction*
G04 #@! TA.AperFunction,SMDPad,CuDef*
G36*
G01*
X89215000Y-68825000D02*
X89515000Y-68825000D01*
G75*
G02*
X89665000Y-68975000I0J-150000D01*
G01*
X89665000Y-70300000D01*
G75*
G02*
X89515000Y-70450000I-150000J0D01*
G01*
X89215000Y-70450000D01*
G75*
G02*
X89065000Y-70300000I0J150000D01*
G01*
X89065000Y-68975000D01*
G75*
G02*
X89215000Y-68825000I150000J0D01*
G01*
G37*
G04 #@! TD.AperFunction*
G04 #@! TA.AperFunction,SMDPad,CuDef*
G36*
G01*
X87945000Y-68825000D02*
X88245000Y-68825000D01*
G75*
G02*
X88395000Y-68975000I0J-150000D01*
G01*
X88395000Y-70300000D01*
G75*
G02*
X88245000Y-70450000I-150000J0D01*
G01*
X87945000Y-70450000D01*
G75*
G02*
X87795000Y-70300000I0J150000D01*
G01*
X87795000Y-68975000D01*
G75*
G02*
X87945000Y-68825000I150000J0D01*
G01*
G37*
G04 #@! TD.AperFunction*
G04 #@! TA.AperFunction,SMDPad,CuDef*
G36*
G01*
X87945000Y-63550000D02*
X88245000Y-63550000D01*
G75*
G02*
X88395000Y-63700000I0J-150000D01*
G01*
X88395000Y-65025000D01*
G75*
G02*
X88245000Y-65175000I-150000J0D01*
G01*
X87945000Y-65175000D01*
G75*
G02*
X87795000Y-65025000I0J150000D01*
G01*
X87795000Y-63700000D01*
G75*
G02*
X87945000Y-63550000I150000J0D01*
G01*
G37*
G04 #@! TD.AperFunction*
G04 #@! TA.AperFunction,SMDPad,CuDef*
G36*
G01*
X89215000Y-63550000D02*
X89515000Y-63550000D01*
G75*
G02*
X89665000Y-63700000I0J-150000D01*
G01*
X89665000Y-65025000D01*
G75*
G02*
X89515000Y-65175000I-150000J0D01*
G01*
X89215000Y-65175000D01*
G75*
G02*
X89065000Y-65025000I0J150000D01*
G01*
X89065000Y-63700000D01*
G75*
G02*
X89215000Y-63550000I150000J0D01*
G01*
G37*
G04 #@! TD.AperFunction*
G04 #@! TA.AperFunction,SMDPad,CuDef*
G36*
G01*
X90485000Y-63550000D02*
X90785000Y-63550000D01*
G75*
G02*
X90935000Y-63700000I0J-150000D01*
G01*
X90935000Y-65025000D01*
G75*
G02*
X90785000Y-65175000I-150000J0D01*
G01*
X90485000Y-65175000D01*
G75*
G02*
X90335000Y-65025000I0J150000D01*
G01*
X90335000Y-63700000D01*
G75*
G02*
X90485000Y-63550000I150000J0D01*
G01*
G37*
G04 #@! TD.AperFunction*
G04 #@! TA.AperFunction,SMDPad,CuDef*
G36*
G01*
X91755000Y-63550000D02*
X92055000Y-63550000D01*
G75*
G02*
X92205000Y-63700000I0J-150000D01*
G01*
X92205000Y-65025000D01*
G75*
G02*
X92055000Y-65175000I-150000J0D01*
G01*
X91755000Y-65175000D01*
G75*
G02*
X91605000Y-65025000I0J150000D01*
G01*
X91605000Y-63700000D01*
G75*
G02*
X91755000Y-63550000I150000J0D01*
G01*
G37*
G04 #@! TD.AperFunction*
D16*
X73840000Y-68000000D03*
X76380000Y-68000000D03*
X78920000Y-68000000D03*
X81460000Y-68000000D03*
D17*
X84000000Y-68000000D03*
G04 #@! TA.AperFunction,SMDPad,CuDef*
G36*
G01*
X90900000Y-51650001D02*
X90900000Y-50349999D01*
G75*
G02*
X91149999Y-50100000I249999J0D01*
G01*
X91800001Y-50100000D01*
G75*
G02*
X92050000Y-50349999I0J-249999D01*
G01*
X92050000Y-51650001D01*
G75*
G02*
X91800001Y-51900000I-249999J0D01*
G01*
X91149999Y-51900000D01*
G75*
G02*
X90900000Y-51650001I0J249999D01*
G01*
G37*
G04 #@! TD.AperFunction*
G04 #@! TA.AperFunction,SMDPad,CuDef*
G36*
G01*
X87950000Y-51650001D02*
X87950000Y-50349999D01*
G75*
G02*
X88199999Y-50100000I249999J0D01*
G01*
X88850001Y-50100000D01*
G75*
G02*
X89100000Y-50349999I0J-249999D01*
G01*
X89100000Y-51650001D01*
G75*
G02*
X88850001Y-51900000I-249999J0D01*
G01*
X88199999Y-51900000D01*
G75*
G02*
X87950000Y-51650001I0J249999D01*
G01*
G37*
G04 #@! TD.AperFunction*
G04 #@! TA.AperFunction,SMDPad,CuDef*
G36*
G01*
X119425000Y-98425000D02*
X119425000Y-96575000D01*
G75*
G02*
X119675000Y-96325000I250000J0D01*
G01*
X121250000Y-96325000D01*
G75*
G02*
X121500000Y-96575000I0J-250000D01*
G01*
X121500000Y-98425000D01*
G75*
G02*
X121250000Y-98675000I-250000J0D01*
G01*
X119675000Y-98675000D01*
G75*
G02*
X119425000Y-98425000I0J250000D01*
G01*
G37*
G04 #@! TD.AperFunction*
G04 #@! TA.AperFunction,SMDPad,CuDef*
G36*
G01*
X114500000Y-98425000D02*
X114500000Y-96575000D01*
G75*
G02*
X114750000Y-96325000I250000J0D01*
G01*
X116325000Y-96325000D01*
G75*
G02*
X116575000Y-96575000I0J-250000D01*
G01*
X116575000Y-98425000D01*
G75*
G02*
X116325000Y-98675000I-250000J0D01*
G01*
X114750000Y-98675000D01*
G75*
G02*
X114500000Y-98425000I0J250000D01*
G01*
G37*
G04 #@! TD.AperFunction*
G04 #@! TA.AperFunction,SMDPad,CuDef*
G36*
G01*
X102500000Y-94800000D02*
X102500000Y-93200000D01*
G75*
G02*
X102750000Y-92950000I250000J0D01*
G01*
X106850000Y-92950000D01*
G75*
G02*
X107100000Y-93200000I0J-250000D01*
G01*
X107100000Y-94800000D01*
G75*
G02*
X106850000Y-95050000I-250000J0D01*
G01*
X102750000Y-95050000D01*
G75*
G02*
X102500000Y-94800000I0J250000D01*
G01*
G37*
G04 #@! TD.AperFunction*
G04 #@! TA.AperFunction,SMDPad,CuDef*
G36*
G01*
X93700000Y-94800000D02*
X93700000Y-93200000D01*
G75*
G02*
X93950000Y-92950000I250000J0D01*
G01*
X98050000Y-92950000D01*
G75*
G02*
X98300000Y-93200000I0J-250000D01*
G01*
X98300000Y-94800000D01*
G75*
G02*
X98050000Y-95050000I-250000J0D01*
G01*
X93950000Y-95050000D01*
G75*
G02*
X93700000Y-94800000I0J250000D01*
G01*
G37*
G04 #@! TD.AperFunction*
D18*
X104810000Y-60890000D03*
X104810000Y-58350000D03*
X104810000Y-53270000D03*
X104810000Y-48190000D03*
X104810000Y-43110000D03*
X97190000Y-43110000D03*
X97190000Y-48190000D03*
X97190000Y-53270000D03*
X97190000Y-58350000D03*
X97190000Y-60890000D03*
D19*
X111000000Y-98000000D03*
X111000000Y-94000000D03*
D20*
X112000000Y-43000000D03*
X110000000Y-43950000D03*
X110000000Y-42050000D03*
X112000000Y-55000000D03*
X110000000Y-55950000D03*
X110000000Y-54050000D03*
G04 #@! TA.AperFunction,SMDPad,CuDef*
G36*
G01*
X82450000Y-43456250D02*
X82450000Y-42543750D01*
G75*
G02*
X82693750Y-42300000I243750J0D01*
G01*
X83181250Y-42300000D01*
G75*
G02*
X83425000Y-42543750I0J-243750D01*
G01*
X83425000Y-43456250D01*
G75*
G02*
X83181250Y-43700000I-243750J0D01*
G01*
X82693750Y-43700000D01*
G75*
G02*
X82450000Y-43456250I0J243750D01*
G01*
G37*
G04 #@! TD.AperFunction*
G04 #@! TA.AperFunction,SMDPad,CuDef*
G36*
G01*
X80575000Y-43456250D02*
X80575000Y-42543750D01*
G75*
G02*
X80818750Y-42300000I243750J0D01*
G01*
X81306250Y-42300000D01*
G75*
G02*
X81550000Y-42543750I0J-243750D01*
G01*
X81550000Y-43456250D01*
G75*
G02*
X81306250Y-43700000I-243750J0D01*
G01*
X80818750Y-43700000D01*
G75*
G02*
X80575000Y-43456250I0J243750D01*
G01*
G37*
G04 #@! TD.AperFunction*
G04 #@! TA.AperFunction,SMDPad,CuDef*
G36*
G01*
X111600000Y-59275000D02*
X111600000Y-58725000D01*
G75*
G02*
X111800000Y-58525000I200000J0D01*
G01*
X112200000Y-58525000D01*
G75*
G02*
X112400000Y-58725000I0J-200000D01*
G01*
X112400000Y-59275000D01*
G75*
G02*
X112200000Y-59475000I-200000J0D01*
G01*
X111800000Y-59475000D01*
G75*
G02*
X111600000Y-59275000I0J200000D01*
G01*
G37*
G04 #@! TD.AperFunction*
G04 #@! TA.AperFunction,SMDPad,CuDef*
G36*
G01*
X109950000Y-59275000D02*
X109950000Y-58725000D01*
G75*
G02*
X110150000Y-58525000I200000J0D01*
G01*
X110550000Y-58525000D01*
G75*
G02*
X110750000Y-58725000I0J-200000D01*
G01*
X110750000Y-59275000D01*
G75*
G02*
X110550000Y-59475000I-200000J0D01*
G01*
X110150000Y-59475000D01*
G75*
G02*
X109950000Y-59275000I0J200000D01*
G01*
G37*
G04 #@! TD.AperFunction*
G04 #@! TA.AperFunction,SMDPad,CuDef*
G36*
G01*
X111600000Y-47275000D02*
X111600000Y-46725000D01*
G75*
G02*
X111800000Y-46525000I200000J0D01*
G01*
X112200000Y-46525000D01*
G75*
G02*
X112400000Y-46725000I0J-200000D01*
G01*
X112400000Y-47275000D01*
G75*
G02*
X112200000Y-47475000I-200000J0D01*
G01*
X111800000Y-47475000D01*
G75*
G02*
X111600000Y-47275000I0J200000D01*
G01*
G37*
G04 #@! TD.AperFunction*
G04 #@! TA.AperFunction,SMDPad,CuDef*
G36*
G01*
X109950000Y-47275000D02*
X109950000Y-46725000D01*
G75*
G02*
X110150000Y-46525000I200000J0D01*
G01*
X110550000Y-46525000D01*
G75*
G02*
X110750000Y-46725000I0J-200000D01*
G01*
X110750000Y-47275000D01*
G75*
G02*
X110550000Y-47475000I-200000J0D01*
G01*
X110150000Y-47475000D01*
G75*
G02*
X109950000Y-47275000I0J200000D01*
G01*
G37*
G04 #@! TD.AperFunction*
G04 #@! TA.AperFunction,SMDPad,CuDef*
G36*
G01*
X82425000Y-45275000D02*
X82425000Y-44725000D01*
G75*
G02*
X82625000Y-44525000I200000J0D01*
G01*
X83025000Y-44525000D01*
G75*
G02*
X83225000Y-44725000I0J-200000D01*
G01*
X83225000Y-45275000D01*
G75*
G02*
X83025000Y-45475000I-200000J0D01*
G01*
X82625000Y-45475000D01*
G75*
G02*
X82425000Y-45275000I0J200000D01*
G01*
G37*
G04 #@! TD.AperFunction*
G04 #@! TA.AperFunction,SMDPad,CuDef*
G36*
G01*
X80775000Y-45275000D02*
X80775000Y-44725000D01*
G75*
G02*
X80975000Y-44525000I200000J0D01*
G01*
X81375000Y-44525000D01*
G75*
G02*
X81575000Y-44725000I0J-200000D01*
G01*
X81575000Y-45275000D01*
G75*
G02*
X81375000Y-45475000I-200000J0D01*
G01*
X80975000Y-45475000D01*
G75*
G02*
X80775000Y-45275000I0J200000D01*
G01*
G37*
G04 #@! TD.AperFunction*
G04 #@! TA.AperFunction,SMDPad,CuDef*
G36*
G01*
X90425000Y-56275000D02*
X90425000Y-55725000D01*
G75*
G02*
X90625000Y-55525000I200000J0D01*
G01*
X91025000Y-55525000D01*
G75*
G02*
X91225000Y-55725000I0J-200000D01*
G01*
X91225000Y-56275000D01*
G75*
G02*
X91025000Y-56475000I-200000J0D01*
G01*
X90625000Y-56475000D01*
G75*
G02*
X90425000Y-56275000I0J200000D01*
G01*
G37*
G04 #@! TD.AperFunction*
G04 #@! TA.AperFunction,SMDPad,CuDef*
G36*
G01*
X88775000Y-56275000D02*
X88775000Y-55725000D01*
G75*
G02*
X88975000Y-55525000I200000J0D01*
G01*
X89375000Y-55525000D01*
G75*
G02*
X89575000Y-55725000I0J-200000D01*
G01*
X89575000Y-56275000D01*
G75*
G02*
X89375000Y-56475000I-200000J0D01*
G01*
X88975000Y-56475000D01*
G75*
G02*
X88775000Y-56275000I0J200000D01*
G01*
G37*
G04 #@! TD.AperFunction*
G04 #@! TA.AperFunction,SMDPad,CuDef*
G36*
G01*
X98925000Y-70275000D02*
X98925000Y-69725000D01*
G75*
G02*
X99125000Y-69525000I200000J0D01*
G01*
X99525000Y-69525000D01*
G75*
G02*
X99725000Y-69725000I0J-200000D01*
G01*
X99725000Y-70275000D01*
G75*
G02*
X99525000Y-70475000I-200000J0D01*
G01*
X99125000Y-70475000D01*
G75*
G02*
X98925000Y-70275000I0J200000D01*
G01*
G37*
G04 #@! TD.AperFunction*
G04 #@! TA.AperFunction,SMDPad,CuDef*
G36*
G01*
X97275000Y-70275000D02*
X97275000Y-69725000D01*
G75*
G02*
X97475000Y-69525000I200000J0D01*
G01*
X97875000Y-69525000D01*
G75*
G02*
X98075000Y-69725000I0J-200000D01*
G01*
X98075000Y-70275000D01*
G75*
G02*
X97875000Y-70475000I-200000J0D01*
G01*
X97475000Y-70475000D01*
G75*
G02*
X97275000Y-70275000I0J200000D01*
G01*
G37*
G04 #@! TD.AperFunction*
G04 #@! TA.AperFunction,SMDPad,CuDef*
G36*
G01*
X98925000Y-68275000D02*
X98925000Y-67725000D01*
G75*
G02*
X99125000Y-67525000I200000J0D01*
G01*
X99525000Y-67525000D01*
G75*
G02*
X99725000Y-67725000I0J-200000D01*
G01*
X99725000Y-68275000D01*
G75*
G02*
X99525000Y-68475000I-200000J0D01*
G01*
X99125000Y-68475000D01*
G75*
G02*
X98925000Y-68275000I0J200000D01*
G01*
G37*
G04 #@! TD.AperFunction*
G04 #@! TA.AperFunction,SMDPad,CuDef*
G36*
G01*
X97275000Y-68275000D02*
X97275000Y-67725000D01*
G75*
G02*
X97475000Y-67525000I200000J0D01*
G01*
X97875000Y-67525000D01*
G75*
G02*
X98075000Y-67725000I0J-200000D01*
G01*
X98075000Y-68275000D01*
G75*
G02*
X97875000Y-68475000I-200000J0D01*
G01*
X97475000Y-68475000D01*
G75*
G02*
X97275000Y-68275000I0J200000D01*
G01*
G37*
G04 #@! TD.AperFunction*
D21*
X115000000Y-42350000D03*
X115000000Y-45650000D03*
X115000000Y-54350000D03*
X115000000Y-57650000D03*
D22*
X97500000Y-65000000D03*
X100800000Y-65000000D03*
D23*
X87925000Y-81000000D03*
D24*
X97075000Y-77600000D03*
X97075000Y-79300000D03*
X97075000Y-81000000D03*
X97075000Y-82700000D03*
X97075000Y-84400000D03*
D25*
X114000000Y-65500000D03*
X114000000Y-68040000D03*
X114000000Y-70580000D03*
X114000000Y-73120000D03*
X104480000Y-73120000D03*
X104480000Y-70580000D03*
D26*
X104480000Y-68040000D03*
D25*
X104480000Y-65500000D03*
D17*
X122000000Y-68000000D03*
D16*
X124540000Y-68000000D03*
X127080000Y-68000000D03*
D27*
X89000000Y-45000000D03*
X80000000Y-47000000D03*
X109000000Y-45000000D03*
X113000000Y-57000000D03*
X115975000Y-73000000D03*
X93000000Y-71000000D03*
X96000000Y-72000000D03*
X117000000Y-62000000D03*
X90635000Y-61365000D03*
X89365000Y-59635000D03*
X86000000Y-58000000D03*
X87000000Y-70000000D03*
X96500000Y-71000000D03*
X112000000Y-70500000D03*
X94500000Y-69000000D03*
X101000000Y-69500000D03*
X92500000Y-55000000D03*
X95000000Y-66000000D03*
X101000000Y-57000000D03*
X111000000Y-61000000D03*
X90193008Y-71096992D03*
X108500000Y-72000000D03*
X108500000Y-66500000D03*
X107000000Y-69500000D03*
X101000000Y-68000000D03*
D28*
X87000000Y-43125000D02*
X93000000Y-43125000D01*
D29*
X85449590Y-84175410D02*
X88625000Y-81000000D01*
X92025000Y-77600000D02*
X88625000Y-81000000D01*
X85449590Y-89874420D02*
X85874420Y-89874420D01*
X115000000Y-80050000D02*
X114760000Y-79810000D01*
X93000000Y-43125000D02*
X93125000Y-43125000D01*
D30*
X93000000Y-43125000D02*
X94125000Y-43125000D01*
X94125000Y-43125000D02*
X95000000Y-44000000D01*
X95000000Y-47537500D02*
X91537500Y-51000000D01*
X95000000Y-44000000D02*
X95000000Y-47537500D01*
X87000000Y-43125000D02*
X87125000Y-43125000D01*
X87125000Y-43125000D02*
X89000000Y-45000000D01*
X81062500Y-43000000D02*
X79000000Y-45062500D01*
X79000000Y-45062500D02*
X79000000Y-46000000D01*
X110000000Y-43950000D02*
X110000000Y-44000000D01*
X110000000Y-44000000D02*
X109000000Y-45000000D01*
X110000000Y-55950000D02*
X111950000Y-55950000D01*
X111950000Y-55950000D02*
X113000000Y-57000000D01*
X114760000Y-79810000D02*
X114760000Y-80240000D01*
X91905000Y-69475000D02*
X93000000Y-70570000D01*
X93000000Y-70570000D02*
X93000000Y-71000000D01*
X79000000Y-46000000D02*
X80000000Y-47000000D01*
X115855000Y-73120000D02*
X115975000Y-73000000D01*
X114000000Y-73120000D02*
X115855000Y-73120000D01*
X91905000Y-69637500D02*
X93000000Y-70732500D01*
X93000000Y-70732500D02*
X93000000Y-71000000D01*
X81175000Y-44762500D02*
X82937500Y-43000000D01*
X81175000Y-45000000D02*
X81175000Y-44762500D01*
D28*
X114350000Y-43000000D02*
X115000000Y-42350000D01*
X112000000Y-43000000D02*
X114350000Y-43000000D01*
X101000000Y-54540000D02*
X97190000Y-58350000D01*
X101000000Y-43000000D02*
X101000000Y-54540000D01*
X103000000Y-41000000D02*
X101000000Y-43000000D01*
X112000000Y-42000000D02*
X111000000Y-41000000D01*
X111000000Y-41000000D02*
X103000000Y-41000000D01*
X112000000Y-43000000D02*
X112000000Y-42000000D01*
D30*
X127080000Y-68000000D02*
X127080000Y-66080000D01*
X127080000Y-66080000D02*
X126000000Y-65000000D01*
X126000000Y-65000000D02*
X125000000Y-64000000D01*
X125000000Y-64000000D02*
X118000000Y-64000000D01*
X118000000Y-64000000D02*
X118000000Y-63000000D01*
X118000000Y-63000000D02*
X117000000Y-62000000D01*
X90635000Y-64525000D02*
X90635000Y-61365000D01*
X89365000Y-64525000D02*
X89365000Y-59635000D01*
X82825000Y-45000000D02*
X82825000Y-54825000D01*
X82825000Y-54825000D02*
X86000000Y-58000000D01*
D28*
X112000000Y-54000000D02*
X112000000Y-55000000D01*
X111000000Y-53000000D02*
X112000000Y-54000000D01*
X109000000Y-53000000D02*
X111000000Y-53000000D01*
X106000000Y-56000000D02*
X109000000Y-53000000D01*
X104000000Y-56000000D02*
X106000000Y-56000000D01*
X99110000Y-60890000D02*
X104000000Y-56000000D01*
X97190000Y-60890000D02*
X99110000Y-60890000D01*
X114350000Y-55000000D02*
X115000000Y-54350000D01*
X112000000Y-55000000D02*
X114350000Y-55000000D01*
D31*
X102900000Y-82700000D02*
X104100000Y-81500000D01*
X97075000Y-82700000D02*
X102900000Y-82700000D01*
X111000000Y-88400000D02*
X104100000Y-81500000D01*
X111000000Y-94000000D02*
X111000000Y-88400000D01*
D30*
X87570000Y-70000000D02*
X88095000Y-69475000D01*
X87000000Y-70000000D02*
X87570000Y-70000000D01*
X97675000Y-70000000D02*
X97500000Y-70000000D01*
X97500000Y-70000000D02*
X96500000Y-71000000D01*
X113920000Y-70500000D02*
X114000000Y-70580000D01*
X112000000Y-70500000D02*
X113920000Y-70500000D01*
D29*
X92300580Y-89874420D02*
X90549590Y-89874420D01*
X97775000Y-84400000D02*
X92300580Y-89874420D01*
X91874420Y-89874420D02*
X96000000Y-94000000D01*
X90549590Y-89874420D02*
X91874420Y-89874420D01*
D30*
X97675000Y-68000000D02*
X97675000Y-67325000D01*
X100000000Y-65000000D02*
X100800000Y-65000000D01*
X97675000Y-67325000D02*
X100000000Y-65000000D01*
X100800000Y-65000000D02*
X100800000Y-65800000D01*
X103040000Y-68040000D02*
X104480000Y-68040000D01*
X100800000Y-65800000D02*
X103040000Y-68040000D01*
X119000000Y-50000000D02*
X120000000Y-51000000D01*
X110000000Y-54050000D02*
X108000000Y-56050000D01*
X108000000Y-56050000D02*
X108000000Y-58000000D01*
X109000000Y-59000000D02*
X110350000Y-59000000D01*
X108000000Y-58000000D02*
X109000000Y-59000000D01*
X110000000Y-42050000D02*
X107950000Y-42050000D01*
X107950000Y-42050000D02*
X107000000Y-43000000D01*
X107000000Y-43000000D02*
X107000000Y-45000000D01*
X109000000Y-47000000D02*
X110350000Y-47000000D01*
X107000000Y-45000000D02*
X109000000Y-47000000D01*
X91905000Y-57080000D02*
X90825000Y-56000000D01*
X91905000Y-64525000D02*
X91905000Y-57080000D01*
D28*
X118000000Y-66175000D02*
X115825000Y-64000000D01*
X118000000Y-70000000D02*
X118000000Y-66175000D01*
X117000000Y-71000000D02*
X118000000Y-70000000D01*
X115000000Y-57650000D02*
X115000000Y-62000000D01*
X115825000Y-62825000D02*
X115825000Y-64000000D01*
X115000000Y-62000000D02*
X115825000Y-62825000D01*
X115000000Y-45650000D02*
X115650000Y-45650000D01*
X115650000Y-45650000D02*
X117000000Y-47000000D01*
X117000000Y-47000000D02*
X117000000Y-56000000D01*
X115000000Y-57650000D02*
X115350000Y-57650000D01*
X115350000Y-57650000D02*
X117000000Y-56000000D01*
X104810000Y-60890000D02*
X104810000Y-58350000D01*
X104810000Y-60890000D02*
X106920000Y-63000000D01*
X106920000Y-63000000D02*
X112000000Y-63000000D01*
X113000000Y-62000000D02*
X115000000Y-62000000D01*
X112000000Y-63000000D02*
X113000000Y-62000000D01*
D29*
X124540000Y-69460000D02*
X124540000Y-68000000D01*
X123000000Y-71000000D02*
X124540000Y-69460000D01*
X117000000Y-71000000D02*
X123000000Y-71000000D01*
D31*
X115537500Y-83037500D02*
X114000000Y-81500000D01*
X115537500Y-97500000D02*
X115537500Y-83037500D01*
X114000000Y-81500000D02*
X114000000Y-78000000D01*
X117000000Y-75000000D02*
X117000000Y-71000000D01*
X114000000Y-78000000D02*
X117000000Y-75000000D01*
D30*
X99325000Y-70000000D02*
X99325000Y-72325000D01*
X99325000Y-72325000D02*
X103000000Y-76000000D01*
X103000000Y-76000000D02*
X107000000Y-76000000D01*
X107000000Y-76000000D02*
X111000000Y-72000000D01*
X111000000Y-72000000D02*
X111000000Y-69500000D01*
X112460000Y-68040000D02*
X114000000Y-68040000D01*
X111000000Y-69500000D02*
X112460000Y-68040000D01*
X114000000Y-81500000D02*
X112500000Y-81500000D01*
X112500000Y-81500000D02*
X107000000Y-76000000D01*
X91905000Y-64362500D02*
X92362500Y-64362500D01*
X92362500Y-64362500D02*
X93500000Y-65500000D01*
X93500000Y-65500000D02*
X93500000Y-68000000D01*
X93500000Y-68000000D02*
X94500000Y-69000000D01*
X100500000Y-70000000D02*
X101000000Y-69500000D01*
X99325000Y-70000000D02*
X100500000Y-70000000D01*
X91825000Y-55000000D02*
X90825000Y-56000000D01*
X92500000Y-55000000D02*
X91825000Y-55000000D01*
X99625000Y-79300000D02*
X100925000Y-78000000D01*
X97075000Y-79300000D02*
X99625000Y-79300000D01*
X101000000Y-78000000D02*
X103000000Y-76000000D01*
X100925000Y-78000000D02*
X101000000Y-78000000D01*
X114325000Y-65500000D02*
X115825000Y-64000000D01*
X114000000Y-65500000D02*
X114325000Y-65500000D01*
X88462500Y-52462500D02*
X88462500Y-51000000D01*
X88462500Y-48337500D02*
X87000000Y-46875000D01*
X88462500Y-51000000D02*
X88462500Y-48337500D01*
X87000000Y-46875000D02*
X93000000Y-46875000D01*
X88462500Y-55287500D02*
X89175000Y-56000000D01*
X88462500Y-51000000D02*
X88462500Y-55287500D01*
X88095000Y-64525000D02*
X88095000Y-56905000D01*
X89000000Y-56000000D02*
X89175000Y-56000000D01*
X88095000Y-56905000D02*
X89000000Y-56000000D01*
X87475000Y-64525000D02*
X84000000Y-68000000D01*
X88095000Y-64525000D02*
X87475000Y-64525000D01*
X112000000Y-47000000D02*
X112000000Y-49000000D01*
X112000000Y-49000000D02*
X110000000Y-51000000D01*
X110000000Y-51000000D02*
X105397238Y-51000000D01*
X105397238Y-51000000D02*
X104000000Y-51000000D01*
X104000000Y-51000000D02*
X102000000Y-53000000D01*
X89365000Y-71365000D02*
X90000000Y-72000000D01*
X90000000Y-72000000D02*
X94000000Y-72000000D01*
X94000000Y-72000000D02*
X96000000Y-70000000D01*
X96000000Y-70000000D02*
X96000000Y-67000000D01*
X96000000Y-67000000D02*
X95000000Y-66000000D01*
X102000000Y-53000000D02*
X102000000Y-56000000D01*
X102000000Y-56000000D02*
X101000000Y-57000000D01*
X73840000Y-68000000D02*
X73840000Y-69840000D01*
X89174990Y-70825010D02*
X89365000Y-70635000D01*
X74825010Y-70825010D02*
X89174990Y-70825010D01*
X73840000Y-69840000D02*
X74825010Y-70825010D01*
X89365000Y-70635000D02*
X89365000Y-71365000D01*
X89365000Y-69475000D02*
X89365000Y-70635000D01*
X112000000Y-59000000D02*
X112000000Y-60000000D01*
X112000000Y-60000000D02*
X111000000Y-61000000D01*
X90635000Y-69637500D02*
X90635000Y-70655000D01*
X90635000Y-70655000D02*
X90193008Y-71096992D01*
X108500000Y-72000000D02*
X108500000Y-66500000D01*
D29*
X88775010Y-100224990D02*
X90549590Y-98450410D01*
X84224990Y-100224990D02*
X88775010Y-100224990D01*
X90549590Y-98450410D02*
X90549590Y-98124420D01*
X76000000Y-92000000D02*
X84224990Y-100224990D01*
X76000000Y-79000000D02*
X76000000Y-92000000D01*
X80000000Y-75000000D02*
X76000000Y-79000000D01*
D28*
X80000000Y-90240000D02*
X80000000Y-91000000D01*
D29*
X80000000Y-92674830D02*
X85449590Y-98124420D01*
X80000000Y-90240000D02*
X80000000Y-92674830D01*
D30*
X105920000Y-70580000D02*
X107000000Y-69500000D01*
X104480000Y-70580000D02*
X105920000Y-70580000D01*
X107000000Y-69500000D02*
X107000000Y-64500000D01*
X107000000Y-64500000D02*
X105500000Y-63000000D01*
X99500000Y-63000000D02*
X97500000Y-65000000D01*
X105500000Y-63000000D02*
X99500000Y-63000000D01*
X99325000Y-68000000D02*
X101000000Y-68000000D01*
X97190000Y-42190000D02*
X97190000Y-43110000D01*
D32*
X100404956Y-42343466D02*
X100371183Y-42371183D01*
X100260589Y-42505942D01*
X100178411Y-42659688D01*
X100161860Y-42714250D01*
X100132814Y-42810000D01*
X100127805Y-42826511D01*
X100115000Y-42956524D01*
X100115000Y-42956531D01*
X100110719Y-43000000D01*
X100115000Y-43043469D01*
X100115001Y-54173420D01*
X97334123Y-56954299D01*
X97327592Y-56953000D01*
X97052408Y-56953000D01*
X96782510Y-57006686D01*
X96528273Y-57111995D01*
X96299465Y-57264880D01*
X96104880Y-57459465D01*
X95951995Y-57688273D01*
X95846686Y-57942510D01*
X95793000Y-58212408D01*
X95793000Y-58487592D01*
X95846686Y-58757490D01*
X95951995Y-59011727D01*
X96104880Y-59240535D01*
X96299465Y-59435120D01*
X96528273Y-59588005D01*
X96605515Y-59620000D01*
X96528273Y-59651995D01*
X96299465Y-59804880D01*
X96104880Y-59999465D01*
X95951995Y-60228273D01*
X95846686Y-60482510D01*
X95793000Y-60752408D01*
X95793000Y-61027592D01*
X95846686Y-61297490D01*
X95951995Y-61551727D01*
X96104880Y-61780535D01*
X96299465Y-61975120D01*
X96528273Y-62128005D01*
X96782510Y-62233314D01*
X97052408Y-62287000D01*
X97327592Y-62287000D01*
X97597490Y-62233314D01*
X97851727Y-62128005D01*
X98080535Y-61975120D01*
X98275120Y-61780535D01*
X98278818Y-61775000D01*
X99066531Y-61775000D01*
X99110000Y-61779281D01*
X99153469Y-61775000D01*
X99153477Y-61775000D01*
X99283490Y-61762195D01*
X99450313Y-61711589D01*
X99604059Y-61629411D01*
X99738817Y-61518817D01*
X99766534Y-61485044D01*
X103589492Y-57662086D01*
X103571995Y-57688273D01*
X103466686Y-57942510D01*
X103413000Y-58212408D01*
X103413000Y-58487592D01*
X103466686Y-58757490D01*
X103571995Y-59011727D01*
X103724880Y-59240535D01*
X103919465Y-59435120D01*
X103925001Y-59438819D01*
X103925000Y-59801181D01*
X103919465Y-59804880D01*
X103724880Y-59999465D01*
X103571995Y-60228273D01*
X103466686Y-60482510D01*
X103413000Y-60752408D01*
X103413000Y-61027592D01*
X103466686Y-61297490D01*
X103571995Y-61551727D01*
X103724880Y-61780535D01*
X103919465Y-61975120D01*
X104148273Y-62128005D01*
X104402510Y-62233314D01*
X104436123Y-62240000D01*
X99537322Y-62240000D01*
X99499999Y-62236324D01*
X99462676Y-62240000D01*
X99462667Y-62240000D01*
X99351014Y-62250997D01*
X99232326Y-62287000D01*
X99207753Y-62294454D01*
X99075723Y-62365026D01*
X98992083Y-62433668D01*
X98959999Y-62459999D01*
X98936201Y-62488997D01*
X97663271Y-63761928D01*
X97050000Y-63761928D01*
X96925518Y-63774188D01*
X96805820Y-63810498D01*
X96695506Y-63869463D01*
X96598815Y-63948815D01*
X96519463Y-64045506D01*
X96460498Y-64155820D01*
X96424188Y-64275518D01*
X96411928Y-64400000D01*
X96411928Y-65600000D01*
X96424188Y-65724482D01*
X96460498Y-65844180D01*
X96519463Y-65954494D01*
X96598815Y-66051185D01*
X96695506Y-66130537D01*
X96805820Y-66189502D01*
X96925518Y-66225812D01*
X97050000Y-66238072D01*
X97687127Y-66238072D01*
X97163998Y-66761201D01*
X97135000Y-66784999D01*
X97111202Y-66813997D01*
X97111201Y-66813998D01*
X97040026Y-66900724D01*
X96969454Y-67032754D01*
X96963201Y-67053368D01*
X96958068Y-67070289D01*
X96882394Y-67132394D01*
X96778169Y-67259392D01*
X96760000Y-67293384D01*
X96760000Y-67037333D01*
X96763677Y-67000000D01*
X96758824Y-66950722D01*
X96749003Y-66851014D01*
X96705546Y-66707753D01*
X96634974Y-66575724D01*
X96540001Y-66459999D01*
X96511003Y-66436201D01*
X96035000Y-65960199D01*
X96035000Y-65898061D01*
X95995226Y-65698102D01*
X95917205Y-65509744D01*
X95803937Y-65340226D01*
X95659774Y-65196063D01*
X95490256Y-65082795D01*
X95301898Y-65004774D01*
X95101939Y-64965000D01*
X94898061Y-64965000D01*
X94698102Y-65004774D01*
X94509744Y-65082795D01*
X94340226Y-65196063D01*
X94234171Y-65302118D01*
X94205546Y-65207753D01*
X94204366Y-65205545D01*
X94134974Y-65075723D01*
X94063799Y-64988997D01*
X94040001Y-64959999D01*
X94011004Y-64936202D01*
X92926304Y-63851502D01*
X92902501Y-63822499D01*
X92843072Y-63773727D01*
X92843072Y-63700000D01*
X92827929Y-63546255D01*
X92783084Y-63398418D01*
X92710258Y-63262171D01*
X92665000Y-63207024D01*
X92665000Y-57117325D01*
X92668676Y-57080000D01*
X92665000Y-57042675D01*
X92665000Y-57042667D01*
X92654003Y-56931014D01*
X92610546Y-56787753D01*
X92539974Y-56655724D01*
X92445001Y-56539999D01*
X92416003Y-56516201D01*
X91899802Y-56000000D01*
X91993470Y-55906331D01*
X92009744Y-55917205D01*
X92198102Y-55995226D01*
X92398061Y-56035000D01*
X92601939Y-56035000D01*
X92801898Y-55995226D01*
X92990256Y-55917205D01*
X93159774Y-55803937D01*
X93303937Y-55659774D01*
X93417205Y-55490256D01*
X93495226Y-55301898D01*
X93535000Y-55101939D01*
X93535000Y-54898061D01*
X93495226Y-54698102D01*
X93417205Y-54509744D01*
X93303937Y-54340226D01*
X93159774Y-54196063D01*
X92990256Y-54082795D01*
X92801898Y-54004774D01*
X92601939Y-53965000D01*
X92398061Y-53965000D01*
X92198102Y-54004774D01*
X92009744Y-54082795D01*
X91840226Y-54196063D01*
X91797231Y-54239058D01*
X91787667Y-54240000D01*
X91676014Y-54250997D01*
X91532753Y-54294454D01*
X91400724Y-54365026D01*
X91284999Y-54459999D01*
X91261201Y-54488997D01*
X90863270Y-54886928D01*
X90625000Y-54886928D01*
X90461500Y-54903031D01*
X90304284Y-54950722D01*
X90159392Y-55028169D01*
X90032394Y-55132394D01*
X90000000Y-55171866D01*
X89967606Y-55132394D01*
X89840608Y-55028169D01*
X89695716Y-54950722D01*
X89538500Y-54903031D01*
X89375000Y-54886928D01*
X89222500Y-54886928D01*
X89222500Y-53132408D01*
X95793000Y-53132408D01*
X95793000Y-53407592D01*
X95846686Y-53677490D01*
X95951995Y-53931727D01*
X96104880Y-54160535D01*
X96299465Y-54355120D01*
X96528273Y-54508005D01*
X96782510Y-54613314D01*
X97052408Y-54667000D01*
X97327592Y-54667000D01*
X97597490Y-54613314D01*
X97851727Y-54508005D01*
X98080535Y-54355120D01*
X98275120Y-54160535D01*
X98428005Y-53931727D01*
X98533314Y-53677490D01*
X98587000Y-53407592D01*
X98587000Y-53132408D01*
X98533314Y-52862510D01*
X98428005Y-52608273D01*
X98275120Y-52379465D01*
X98080535Y-52184880D01*
X97851727Y-52031995D01*
X97597490Y-51926686D01*
X97327592Y-51873000D01*
X97052408Y-51873000D01*
X96782510Y-51926686D01*
X96528273Y-52031995D01*
X96299465Y-52184880D01*
X96104880Y-52379465D01*
X95951995Y-52608273D01*
X95846686Y-52862510D01*
X95793000Y-53132408D01*
X89222500Y-53132408D01*
X89222500Y-52453021D01*
X89343387Y-52388405D01*
X89477962Y-52277962D01*
X89588405Y-52143387D01*
X89670472Y-51989851D01*
X89697727Y-51900000D01*
X90261928Y-51900000D01*
X90274188Y-52024482D01*
X90310498Y-52144180D01*
X90369463Y-52254494D01*
X90448815Y-52351185D01*
X90545506Y-52430537D01*
X90655820Y-52489502D01*
X90775518Y-52525812D01*
X90900000Y-52538072D01*
X91189250Y-52535000D01*
X91348000Y-52376250D01*
X91348000Y-51127000D01*
X91602000Y-51127000D01*
X91602000Y-52376250D01*
X91760750Y-52535000D01*
X92050000Y-52538072D01*
X92174482Y-52525812D01*
X92294180Y-52489502D01*
X92404494Y-52430537D01*
X92501185Y-52351185D01*
X92580537Y-52254494D01*
X92639502Y-52144180D01*
X92675812Y-52024482D01*
X92688072Y-51900000D01*
X92685000Y-51285750D01*
X92526250Y-51127000D01*
X91602000Y-51127000D01*
X91348000Y-51127000D01*
X90423750Y-51127000D01*
X90265000Y-51285750D01*
X90261928Y-51900000D01*
X89697727Y-51900000D01*
X89721008Y-51823255D01*
X89738072Y-51650001D01*
X89738072Y-50349999D01*
X89721008Y-50176745D01*
X89697728Y-50100000D01*
X90261928Y-50100000D01*
X90265000Y-50714250D01*
X90423750Y-50873000D01*
X91348000Y-50873000D01*
X91348000Y-49623750D01*
X91602000Y-49623750D01*
X91602000Y-50873000D01*
X92526250Y-50873000D01*
X92685000Y-50714250D01*
X92688072Y-50100000D01*
X92675812Y-49975518D01*
X92639502Y-49855820D01*
X92580537Y-49745506D01*
X92501185Y-49648815D01*
X92404494Y-49569463D01*
X92294180Y-49510498D01*
X92174482Y-49474188D01*
X92050000Y-49461928D01*
X91760750Y-49465000D01*
X91602000Y-49623750D01*
X91348000Y-49623750D01*
X91189250Y-49465000D01*
X90900000Y-49461928D01*
X90775518Y-49474188D01*
X90655820Y-49510498D01*
X90545506Y-49569463D01*
X90448815Y-49648815D01*
X90369463Y-49745506D01*
X90310498Y-49855820D01*
X90274188Y-49975518D01*
X90261928Y-50100000D01*
X89697728Y-50100000D01*
X89670472Y-50010149D01*
X89588405Y-49856613D01*
X89477962Y-49722038D01*
X89343387Y-49611595D01*
X89222500Y-49546979D01*
X89222500Y-48374822D01*
X89226176Y-48337499D01*
X89222500Y-48300176D01*
X89222500Y-48300167D01*
X89211503Y-48188514D01*
X89170217Y-48052408D01*
X95793000Y-48052408D01*
X95793000Y-48327592D01*
X95846686Y-48597490D01*
X95951995Y-48851727D01*
X96104880Y-49080535D01*
X96299465Y-49275120D01*
X96528273Y-49428005D01*
X96782510Y-49533314D01*
X97052408Y-49587000D01*
X97327592Y-49587000D01*
X97597490Y-49533314D01*
X97851727Y-49428005D01*
X98080535Y-49275120D01*
X98275120Y-49080535D01*
X98428005Y-48851727D01*
X98533314Y-48597490D01*
X98587000Y-48327592D01*
X98587000Y-48052408D01*
X98533314Y-47782510D01*
X98428005Y-47528273D01*
X98275120Y-47299465D01*
X98080535Y-47104880D01*
X97851727Y-46951995D01*
X97597490Y-46846686D01*
X97327592Y-46793000D01*
X97052408Y-46793000D01*
X96782510Y-46846686D01*
X96528273Y-46951995D01*
X96299465Y-47104880D01*
X96104880Y-47299465D01*
X95951995Y-47528273D01*
X95846686Y-47782510D01*
X95793000Y-48052408D01*
X89170217Y-48052408D01*
X89168046Y-48045253D01*
X89097474Y-47913224D01*
X89002501Y-47797499D01*
X88973503Y-47773701D01*
X88834802Y-47635000D01*
X91994499Y-47635000D01*
X92048815Y-47701185D01*
X92145506Y-47780537D01*
X92255820Y-47839502D01*
X92375518Y-47875812D01*
X92500000Y-47888072D01*
X93500000Y-47888072D01*
X93624482Y-47875812D01*
X93744180Y-47839502D01*
X93854494Y-47780537D01*
X93951185Y-47701185D01*
X94030537Y-47604494D01*
X94089502Y-47494180D01*
X94125812Y-47374482D01*
X94138072Y-47250000D01*
X94138072Y-46500000D01*
X94125812Y-46375518D01*
X94089502Y-46255820D01*
X94030537Y-46145506D01*
X93951185Y-46048815D01*
X93854494Y-45969463D01*
X93744180Y-45910498D01*
X93624482Y-45874188D01*
X93500000Y-45861928D01*
X92500000Y-45861928D01*
X92375518Y-45874188D01*
X92255820Y-45910498D01*
X92145506Y-45969463D01*
X92048815Y-46048815D01*
X91994499Y-46115000D01*
X88005501Y-46115000D01*
X87951185Y-46048815D01*
X87854494Y-45969463D01*
X87744180Y-45910498D01*
X87624482Y-45874188D01*
X87500000Y-45861928D01*
X86500000Y-45861928D01*
X86375518Y-45874188D01*
X86255820Y-45910498D01*
X86145506Y-45969463D01*
X86048815Y-46048815D01*
X85969463Y-46145506D01*
X85910498Y-46255820D01*
X85874188Y-46375518D01*
X85861928Y-46500000D01*
X85861928Y-47250000D01*
X85874188Y-47374482D01*
X85910498Y-47494180D01*
X85969463Y-47604494D01*
X86048815Y-47701185D01*
X86145506Y-47780537D01*
X86255820Y-47839502D01*
X86375518Y-47875812D01*
X86500000Y-47888072D01*
X86938271Y-47888072D01*
X87702501Y-48652303D01*
X87702501Y-49614970D01*
X87572038Y-49722038D01*
X87461595Y-49856613D01*
X87379528Y-50010149D01*
X87328992Y-50176745D01*
X87311928Y-50349999D01*
X87311928Y-51650001D01*
X87328992Y-51823255D01*
X87379528Y-51989851D01*
X87461595Y-52143387D01*
X87572038Y-52277962D01*
X87702500Y-52385030D01*
X87702501Y-55250168D01*
X87698824Y-55287500D01*
X87702501Y-55324833D01*
X87713498Y-55436486D01*
X87720631Y-55460000D01*
X87756954Y-55579746D01*
X87827526Y-55711776D01*
X87865259Y-55757753D01*
X87922500Y-55827501D01*
X87951498Y-55851299D01*
X88012699Y-55912500D01*
X87583998Y-56341201D01*
X87555000Y-56364999D01*
X87531202Y-56393997D01*
X87531201Y-56393998D01*
X87460026Y-56480724D01*
X87389454Y-56612754D01*
X87367547Y-56684974D01*
X87345998Y-56756014D01*
X87339539Y-56821589D01*
X87331324Y-56905000D01*
X87335001Y-56942332D01*
X87335000Y-63207024D01*
X87289742Y-63262171D01*
X87216916Y-63398418D01*
X87172071Y-63546255D01*
X87156928Y-63700000D01*
X87156928Y-63833258D01*
X87050723Y-63890026D01*
X86979089Y-63948815D01*
X86934999Y-63984999D01*
X86911201Y-64013997D01*
X84413271Y-66511928D01*
X83150000Y-66511928D01*
X83025518Y-66524188D01*
X82905820Y-66560498D01*
X82795506Y-66619463D01*
X82698815Y-66698815D01*
X82619463Y-66795506D01*
X82560498Y-66905820D01*
X82536034Y-66986466D01*
X82460269Y-66902412D01*
X82226920Y-66728359D01*
X81964099Y-66603175D01*
X81816890Y-66558524D01*
X81587000Y-66679845D01*
X81587000Y-67873000D01*
X81607000Y-67873000D01*
X81607000Y-68127000D01*
X81587000Y-68127000D01*
X81587000Y-69320155D01*
X81816890Y-69441476D01*
X81964099Y-69396825D01*
X82226920Y-69271641D01*
X82460269Y-69097588D01*
X82536034Y-69013534D01*
X82560498Y-69094180D01*
X82619463Y-69204494D01*
X82698815Y-69301185D01*
X82795506Y-69380537D01*
X82905820Y-69439502D01*
X83025518Y-69475812D01*
X83150000Y-69488072D01*
X84850000Y-69488072D01*
X84974482Y-69475812D01*
X85094180Y-69439502D01*
X85204494Y-69380537D01*
X85301185Y-69301185D01*
X85380537Y-69204494D01*
X85439502Y-69094180D01*
X85475812Y-68974482D01*
X85488072Y-68850000D01*
X85488072Y-67586729D01*
X87445311Y-65629491D01*
X87507171Y-65680258D01*
X87643418Y-65753084D01*
X87761928Y-65789033D01*
X87761928Y-68210967D01*
X87643418Y-68246916D01*
X87507171Y-68319742D01*
X87387749Y-68417749D01*
X87289742Y-68537171D01*
X87216916Y-68673418D01*
X87172071Y-68821255D01*
X87156928Y-68975000D01*
X87156928Y-68975938D01*
X87101939Y-68965000D01*
X86898061Y-68965000D01*
X86698102Y-69004774D01*
X86509744Y-69082795D01*
X86340226Y-69196063D01*
X86196063Y-69340226D01*
X86082795Y-69509744D01*
X86004774Y-69698102D01*
X85965000Y-69898061D01*
X85965000Y-70065010D01*
X75139812Y-70065010D01*
X74600000Y-69525199D01*
X74600000Y-69278178D01*
X74786632Y-69153475D01*
X74993475Y-68946632D01*
X75110000Y-68772240D01*
X75226525Y-68946632D01*
X75433368Y-69153475D01*
X75676589Y-69315990D01*
X75946842Y-69427932D01*
X76233740Y-69485000D01*
X76526260Y-69485000D01*
X76813158Y-69427932D01*
X77083411Y-69315990D01*
X77326632Y-69153475D01*
X77533475Y-68946632D01*
X77650000Y-68772240D01*
X77766525Y-68946632D01*
X77973368Y-69153475D01*
X78216589Y-69315990D01*
X78486842Y-69427932D01*
X78773740Y-69485000D01*
X79066260Y-69485000D01*
X79353158Y-69427932D01*
X79623411Y-69315990D01*
X79866632Y-69153475D01*
X80073475Y-68946632D01*
X80195195Y-68764466D01*
X80264822Y-68881355D01*
X80459731Y-69097588D01*
X80693080Y-69271641D01*
X80955901Y-69396825D01*
X81103110Y-69441476D01*
X81333000Y-69320155D01*
X81333000Y-68127000D01*
X81313000Y-68127000D01*
X81313000Y-67873000D01*
X81333000Y-67873000D01*
X81333000Y-66679845D01*
X81103110Y-66558524D01*
X80955901Y-66603175D01*
X80693080Y-66728359D01*
X80459731Y-66902412D01*
X80264822Y-67118645D01*
X80195195Y-67235534D01*
X80073475Y-67053368D01*
X79866632Y-66846525D01*
X79623411Y-66684010D01*
X79353158Y-66572068D01*
X79066260Y-66515000D01*
X78773740Y-66515000D01*
X78486842Y-66572068D01*
X78216589Y-66684010D01*
X77973368Y-66846525D01*
X77766525Y-67053368D01*
X77650000Y-67227760D01*
X77533475Y-67053368D01*
X77326632Y-66846525D01*
X77083411Y-66684010D01*
X76813158Y-66572068D01*
X76526260Y-66515000D01*
X76233740Y-66515000D01*
X75946842Y-66572068D01*
X75676589Y-66684010D01*
X75433368Y-66846525D01*
X75226525Y-67053368D01*
X75110000Y-67227760D01*
X74993475Y-67053368D01*
X74786632Y-66846525D01*
X74543411Y-66684010D01*
X74273158Y-66572068D01*
X73986260Y-66515000D01*
X73693740Y-66515000D01*
X73406842Y-66572068D01*
X73136589Y-66684010D01*
X72893368Y-66846525D01*
X72686525Y-67053368D01*
X72524010Y-67296589D01*
X72412068Y-67566842D01*
X72355000Y-67853740D01*
X72355000Y-68146260D01*
X72412068Y-68433158D01*
X72524010Y-68703411D01*
X72686525Y-68946632D01*
X72893368Y-69153475D01*
X73080001Y-69278179D01*
X73080001Y-69802668D01*
X73076324Y-69840000D01*
X73080001Y-69877333D01*
X73090998Y-69988986D01*
X73097677Y-70011003D01*
X73134454Y-70132246D01*
X73205026Y-70264276D01*
X73269431Y-70342753D01*
X73300000Y-70380001D01*
X73328998Y-70403799D01*
X74261211Y-71336013D01*
X74285009Y-71365011D01*
X74314007Y-71388809D01*
X74400734Y-71459984D01*
X74532763Y-71530556D01*
X74676024Y-71574013D01*
X74825010Y-71588687D01*
X74862343Y-71585010D01*
X88637542Y-71585010D01*
X88643360Y-71604188D01*
X88659454Y-71657246D01*
X88730026Y-71789276D01*
X88788617Y-71860668D01*
X88825000Y-71905001D01*
X88853998Y-71928799D01*
X89436200Y-72511002D01*
X89459999Y-72540001D01*
X89488997Y-72563799D01*
X89575724Y-72634974D01*
X89707753Y-72705546D01*
X89851014Y-72749003D01*
X90000000Y-72763677D01*
X90037333Y-72760000D01*
X93962678Y-72760000D01*
X94000000Y-72763676D01*
X94037322Y-72760000D01*
X94037333Y-72760000D01*
X94148986Y-72749003D01*
X94292247Y-72705546D01*
X94424276Y-72634974D01*
X94540001Y-72540001D01*
X94563804Y-72510997D01*
X95583496Y-71491305D01*
X95696063Y-71659774D01*
X95840226Y-71803937D01*
X96009744Y-71917205D01*
X96198102Y-71995226D01*
X96398061Y-72035000D01*
X96601939Y-72035000D01*
X96801898Y-71995226D01*
X96990256Y-71917205D01*
X97159774Y-71803937D01*
X97303937Y-71659774D01*
X97417205Y-71490256D01*
X97495226Y-71301898D01*
X97532786Y-71113072D01*
X97875000Y-71113072D01*
X98038500Y-71096969D01*
X98195716Y-71049278D01*
X98340608Y-70971831D01*
X98467606Y-70867606D01*
X98500000Y-70828134D01*
X98532394Y-70867606D01*
X98565000Y-70894365D01*
X98565001Y-72287668D01*
X98561324Y-72325000D01*
X98565001Y-72362333D01*
X98575998Y-72473986D01*
X98587227Y-72511003D01*
X98619454Y-72617246D01*
X98690026Y-72749276D01*
X98734886Y-72803937D01*
X98785000Y-72865001D01*
X98813998Y-72888799D01*
X101925198Y-76000000D01*
X100628439Y-77296760D01*
X100500724Y-77365026D01*
X100384999Y-77459999D01*
X100361201Y-77488997D01*
X99987224Y-77862974D01*
X99851250Y-77727000D01*
X97202000Y-77727000D01*
X97202000Y-77747000D01*
X96948000Y-77747000D01*
X96948000Y-77727000D01*
X94298750Y-77727000D01*
X94140000Y-77885750D01*
X94136928Y-78150000D01*
X94149188Y-78274482D01*
X94185498Y-78394180D01*
X94215335Y-78450000D01*
X94185498Y-78505820D01*
X94149188Y-78625518D01*
X94136928Y-78750000D01*
X94136928Y-79850000D01*
X94149188Y-79974482D01*
X94185498Y-80094180D01*
X94215335Y-80150000D01*
X94185498Y-80205820D01*
X94149188Y-80325518D01*
X94136928Y-80450000D01*
X94140000Y-80714250D01*
X94298750Y-80873000D01*
X96948000Y-80873000D01*
X96948000Y-80853000D01*
X97202000Y-80853000D01*
X97202000Y-80873000D01*
X99851250Y-80873000D01*
X100010000Y-80714250D01*
X100013072Y-80450000D01*
X100000812Y-80325518D01*
X99964502Y-80205820D01*
X99934665Y-80150000D01*
X99964502Y-80094180D01*
X100000812Y-79974482D01*
X100002226Y-79960123D01*
X100049276Y-79934974D01*
X100165001Y-79840001D01*
X100188804Y-79810997D01*
X101296563Y-78703239D01*
X101424276Y-78634974D01*
X101540001Y-78540001D01*
X101563804Y-78510997D01*
X103314802Y-76760000D01*
X106685199Y-76760000D01*
X111911928Y-81986730D01*
X111911928Y-84200000D01*
X111924188Y-84324482D01*
X111960498Y-84444180D01*
X112019463Y-84554494D01*
X112098815Y-84651185D01*
X112195506Y-84730537D01*
X112305820Y-84789502D01*
X112425518Y-84825812D01*
X112550000Y-84838072D01*
X114527501Y-84838072D01*
X114527500Y-95718930D01*
X114410150Y-95754528D01*
X114256614Y-95836595D01*
X114122038Y-95947038D01*
X114011595Y-96081614D01*
X113929528Y-96235150D01*
X113878992Y-96401746D01*
X113861928Y-96575000D01*
X113861928Y-98425000D01*
X113878992Y-98598254D01*
X113929528Y-98764850D01*
X114011595Y-98918386D01*
X114122038Y-99052962D01*
X114256614Y-99163405D01*
X114410150Y-99245472D01*
X114576746Y-99296008D01*
X114750000Y-99313072D01*
X116325000Y-99313072D01*
X116498254Y-99296008D01*
X116664850Y-99245472D01*
X116818386Y-99163405D01*
X116952962Y-99052962D01*
X117063405Y-98918386D01*
X117145472Y-98764850D01*
X117172727Y-98675000D01*
X118786928Y-98675000D01*
X118799188Y-98799482D01*
X118835498Y-98919180D01*
X118894463Y-99029494D01*
X118973815Y-99126185D01*
X119070506Y-99205537D01*
X119180820Y-99264502D01*
X119300518Y-99300812D01*
X119425000Y-99313072D01*
X120176750Y-99310000D01*
X120335500Y-99151250D01*
X120335500Y-97627000D01*
X120589500Y-97627000D01*
X120589500Y-99151250D01*
X120748250Y-99310000D01*
X121500000Y-99313072D01*
X121624482Y-99300812D01*
X121744180Y-99264502D01*
X121854494Y-99205537D01*
X121951185Y-99126185D01*
X122030537Y-99029494D01*
X122089502Y-98919180D01*
X122125812Y-98799482D01*
X122138072Y-98675000D01*
X122135000Y-97785750D01*
X121976250Y-97627000D01*
X120589500Y-97627000D01*
X120335500Y-97627000D01*
X118948750Y-97627000D01*
X118790000Y-97785750D01*
X118786928Y-98675000D01*
X117172727Y-98675000D01*
X117196008Y-98598254D01*
X117213072Y-98425000D01*
X117213072Y-96575000D01*
X117196008Y-96401746D01*
X117172728Y-96325000D01*
X118786928Y-96325000D01*
X118790000Y-97214250D01*
X118948750Y-97373000D01*
X120335500Y-97373000D01*
X120335500Y-95848750D01*
X120589500Y-95848750D01*
X120589500Y-97373000D01*
X121976250Y-97373000D01*
X122135000Y-97214250D01*
X122136313Y-96834042D01*
X124315000Y-96834042D01*
X124315000Y-97165958D01*
X124379754Y-97491496D01*
X124506772Y-97798147D01*
X124691175Y-98074125D01*
X124925875Y-98308825D01*
X125201853Y-98493228D01*
X125508504Y-98620246D01*
X125834042Y-98685000D01*
X126165958Y-98685000D01*
X126491496Y-98620246D01*
X126798147Y-98493228D01*
X127074125Y-98308825D01*
X127308825Y-98074125D01*
X127493228Y-97798147D01*
X127620246Y-97491496D01*
X127685000Y-97165958D01*
X127685000Y-96834042D01*
X127620246Y-96508504D01*
X127493228Y-96201853D01*
X127308825Y-95925875D01*
X127074125Y-95691175D01*
X126798147Y-95506772D01*
X126491496Y-95379754D01*
X126165958Y-95315000D01*
X125834042Y-95315000D01*
X125508504Y-95379754D01*
X125201853Y-95506772D01*
X124925875Y-95691175D01*
X124691175Y-95925875D01*
X124506772Y-96201853D01*
X124379754Y-96508504D01*
X124315000Y-96834042D01*
X122136313Y-96834042D01*
X122138072Y-96325000D01*
X122125812Y-96200518D01*
X122089502Y-96080820D01*
X122030537Y-95970506D01*
X121951185Y-95873815D01*
X121854494Y-95794463D01*
X121744180Y-95735498D01*
X121624482Y-95699188D01*
X121500000Y-95686928D01*
X120748250Y-95690000D01*
X120589500Y-95848750D01*
X120335500Y-95848750D01*
X120176750Y-95690000D01*
X119425000Y-95686928D01*
X119300518Y-95699188D01*
X119180820Y-95735498D01*
X119070506Y-95794463D01*
X118973815Y-95873815D01*
X118894463Y-95970506D01*
X118835498Y-96080820D01*
X118799188Y-96200518D01*
X118786928Y-96325000D01*
X117172728Y-96325000D01*
X117145472Y-96235150D01*
X117063405Y-96081614D01*
X116952962Y-95947038D01*
X116818386Y-95836595D01*
X116664850Y-95754528D01*
X116547500Y-95718931D01*
X116547500Y-90051881D01*
X118090000Y-90051881D01*
X118090000Y-90428119D01*
X118163400Y-90797127D01*
X118307380Y-91144724D01*
X118516406Y-91457554D01*
X118782446Y-91723594D01*
X119095276Y-91932620D01*
X119442873Y-92076600D01*
X119811881Y-92150000D01*
X120188119Y-92150000D01*
X120557127Y-92076600D01*
X120904724Y-91932620D01*
X121217554Y-91723594D01*
X121483594Y-91457554D01*
X121692620Y-91144724D01*
X121836600Y-90797127D01*
X121910000Y-90428119D01*
X121910000Y-90051881D01*
X121836600Y-89682873D01*
X121692620Y-89335276D01*
X121483594Y-89022446D01*
X121217554Y-88756406D01*
X120904724Y-88547380D01*
X120557127Y-88403400D01*
X120188119Y-88330000D01*
X119811881Y-88330000D01*
X119442873Y-88403400D01*
X119095276Y-88547380D01*
X118782446Y-88756406D01*
X118516406Y-89022446D01*
X118307380Y-89335276D01*
X118163400Y-89682873D01*
X118090000Y-90051881D01*
X116547500Y-90051881D01*
X116547500Y-84971881D01*
X118090000Y-84971881D01*
X118090000Y-85348119D01*
X118163400Y-85717127D01*
X118307380Y-86064724D01*
X118516406Y-86377554D01*
X118782446Y-86643594D01*
X119095276Y-86852620D01*
X119442873Y-86996600D01*
X119811881Y-87070000D01*
X120188119Y-87070000D01*
X120557127Y-86996600D01*
X120904724Y-86852620D01*
X121217554Y-86643594D01*
X121483594Y-86377554D01*
X121692620Y-86064724D01*
X121836600Y-85717127D01*
X121910000Y-85348119D01*
X121910000Y-84971881D01*
X121836600Y-84602873D01*
X121692620Y-84255276D01*
X121483594Y-83942446D01*
X121217554Y-83676406D01*
X120904724Y-83467380D01*
X120557127Y-83323400D01*
X120188119Y-83250000D01*
X119811881Y-83250000D01*
X119442873Y-83323400D01*
X119095276Y-83467380D01*
X118782446Y-83676406D01*
X118516406Y-83942446D01*
X118307380Y-84255276D01*
X118163400Y-84602873D01*
X118090000Y-84971881D01*
X116547500Y-84971881D01*
X116547500Y-83087104D01*
X116552386Y-83037499D01*
X116547500Y-82987892D01*
X116532885Y-82839506D01*
X116475132Y-82649120D01*
X116381347Y-82473660D01*
X116255133Y-82319867D01*
X116216594Y-82288239D01*
X116088072Y-82159717D01*
X116088072Y-80373055D01*
X116118576Y-80272498D01*
X116140490Y-80049999D01*
X116124917Y-79891881D01*
X118090000Y-79891881D01*
X118090000Y-80268119D01*
X118163400Y-80637127D01*
X118307380Y-80984724D01*
X118516406Y-81297554D01*
X118782446Y-81563594D01*
X119095276Y-81772620D01*
X119442873Y-81916600D01*
X119811881Y-81990000D01*
X120188119Y-81990000D01*
X120557127Y-81916600D01*
X120904724Y-81772620D01*
X121217554Y-81563594D01*
X121483594Y-81297554D01*
X121692620Y-80984724D01*
X121836600Y-80637127D01*
X121910000Y-80268119D01*
X121910000Y-79891881D01*
X121836600Y-79522873D01*
X121692620Y-79175276D01*
X121483594Y-78862446D01*
X121217554Y-78596406D01*
X120904724Y-78387380D01*
X120557127Y-78243400D01*
X120188119Y-78170000D01*
X119811881Y-78170000D01*
X119442873Y-78243400D01*
X119095276Y-78387380D01*
X118782446Y-78596406D01*
X118516406Y-78862446D01*
X118307380Y-79175276D01*
X118163400Y-79522873D01*
X118090000Y-79891881D01*
X116124917Y-79891881D01*
X116118576Y-79827500D01*
X116088072Y-79726944D01*
X116088072Y-78800000D01*
X116075812Y-78675518D01*
X116039502Y-78555820D01*
X115980537Y-78445506D01*
X115901185Y-78348815D01*
X115804494Y-78269463D01*
X115694180Y-78210498D01*
X115574482Y-78174188D01*
X115450000Y-78161928D01*
X115266427Y-78161928D01*
X117679100Y-75749256D01*
X117717633Y-75717633D01*
X117843847Y-75563840D01*
X117937632Y-75388380D01*
X117966124Y-75294454D01*
X117995385Y-75197995D01*
X118014886Y-75000000D01*
X118010000Y-74950392D01*
X118010000Y-73725000D01*
X118086928Y-73725000D01*
X118086928Y-76275000D01*
X118099188Y-76399482D01*
X118135498Y-76519180D01*
X118194463Y-76629494D01*
X118273815Y-76726185D01*
X118370506Y-76805537D01*
X118480820Y-76864502D01*
X118600518Y-76900812D01*
X118725000Y-76913072D01*
X121275000Y-76913072D01*
X121399482Y-76900812D01*
X121519180Y-76864502D01*
X121629494Y-76805537D01*
X121726185Y-76726185D01*
X121805537Y-76629494D01*
X121864502Y-76519180D01*
X121900812Y-76399482D01*
X121913072Y-76275000D01*
X121913072Y-73725000D01*
X121900812Y-73600518D01*
X121864502Y-73480820D01*
X121805537Y-73370506D01*
X121726185Y-73273815D01*
X121629494Y-73194463D01*
X121519180Y-73135498D01*
X121399482Y-73099188D01*
X121275000Y-73086928D01*
X118725000Y-73086928D01*
X118600518Y-73099188D01*
X118480820Y-73135498D01*
X118370506Y-73194463D01*
X118273815Y-73273815D01*
X118194463Y-73370506D01*
X118135498Y-73480820D01*
X118099188Y-73600518D01*
X118086928Y-73725000D01*
X118010000Y-73725000D01*
X118010000Y-72135000D01*
X122944249Y-72135000D01*
X123000000Y-72140491D01*
X123055751Y-72135000D01*
X123055752Y-72135000D01*
X123222499Y-72118577D01*
X123436447Y-72053676D01*
X123633623Y-71948284D01*
X123806449Y-71806449D01*
X123841996Y-71763135D01*
X125303140Y-70301991D01*
X125346449Y-70266449D01*
X125488284Y-70093623D01*
X125593676Y-69896447D01*
X125658577Y-69682499D01*
X125675000Y-69515752D01*
X125675000Y-69515751D01*
X125680491Y-69460000D01*
X125675000Y-69404248D01*
X125675000Y-68965107D01*
X125693475Y-68946632D01*
X125810000Y-68772240D01*
X125926525Y-68946632D01*
X126133368Y-69153475D01*
X126376589Y-69315990D01*
X126646842Y-69427932D01*
X126933740Y-69485000D01*
X127226260Y-69485000D01*
X127513158Y-69427932D01*
X127783411Y-69315990D01*
X128026632Y-69153475D01*
X128233475Y-68946632D01*
X128395990Y-68703411D01*
X128507932Y-68433158D01*
X128565000Y-68146260D01*
X128565000Y-67853740D01*
X128507932Y-67566842D01*
X128395990Y-67296589D01*
X128233475Y-67053368D01*
X128026632Y-66846525D01*
X127840000Y-66721822D01*
X127840000Y-66117325D01*
X127843676Y-66080000D01*
X127840000Y-66042675D01*
X127840000Y-66042667D01*
X127829003Y-65931014D01*
X127785546Y-65787753D01*
X127714974Y-65655724D01*
X127620001Y-65539999D01*
X127591003Y-65516201D01*
X126563803Y-64489002D01*
X126563799Y-64488997D01*
X125563804Y-63489002D01*
X125540001Y-63459999D01*
X125424276Y-63365026D01*
X125292247Y-63294454D01*
X125148986Y-63250997D01*
X125037333Y-63240000D01*
X125037322Y-63240000D01*
X125000000Y-63236324D01*
X124962678Y-63240000D01*
X118760000Y-63240000D01*
X118760000Y-63037333D01*
X118763677Y-63000000D01*
X118749003Y-62851014D01*
X118705546Y-62707753D01*
X118634974Y-62575724D01*
X118563799Y-62488997D01*
X118540001Y-62459999D01*
X118511003Y-62436201D01*
X118035000Y-61960199D01*
X118035000Y-61898061D01*
X117995226Y-61698102D01*
X117917205Y-61509744D01*
X117803937Y-61340226D01*
X117659774Y-61196063D01*
X117490256Y-61082795D01*
X117301898Y-61004774D01*
X117136533Y-60971881D01*
X118090000Y-60971881D01*
X118090000Y-61348119D01*
X118163400Y-61717127D01*
X118307380Y-62064724D01*
X118516406Y-62377554D01*
X118782446Y-62643594D01*
X119095276Y-62852620D01*
X119442873Y-62996600D01*
X119811881Y-63070000D01*
X120188119Y-63070000D01*
X120557127Y-62996600D01*
X120904724Y-62852620D01*
X121217554Y-62643594D01*
X121483594Y-62377554D01*
X121692620Y-62064724D01*
X121836600Y-61717127D01*
X121910000Y-61348119D01*
X121910000Y-60971881D01*
X121836600Y-60602873D01*
X121692620Y-60255276D01*
X121483594Y-59942446D01*
X121217554Y-59676406D01*
X120904724Y-59467380D01*
X120557127Y-59323400D01*
X120188119Y-59250000D01*
X119811881Y-59250000D01*
X119442873Y-59323400D01*
X119095276Y-59467380D01*
X118782446Y-59676406D01*
X118516406Y-59942446D01*
X118307380Y-60255276D01*
X118163400Y-60602873D01*
X118090000Y-60971881D01*
X117136533Y-60971881D01*
X117101939Y-60965000D01*
X116898061Y-60965000D01*
X116698102Y-61004774D01*
X116509744Y-61082795D01*
X116340226Y-61196063D01*
X116196063Y-61340226D01*
X116082795Y-61509744D01*
X116004774Y-61698102D01*
X115995633Y-61744055D01*
X115885000Y-61633422D01*
X115885000Y-58667683D01*
X115954494Y-58630537D01*
X116051185Y-58551185D01*
X116130537Y-58454494D01*
X116189502Y-58344180D01*
X116225812Y-58224482D01*
X116238072Y-58100000D01*
X116238072Y-58013506D01*
X117595049Y-56656530D01*
X117628817Y-56628817D01*
X117657244Y-56594180D01*
X117725506Y-56511002D01*
X117739411Y-56494059D01*
X117821589Y-56340313D01*
X117872195Y-56173490D01*
X117885000Y-56043477D01*
X117885000Y-56043467D01*
X117889281Y-56000001D01*
X117885000Y-55956535D01*
X117885000Y-55891881D01*
X118090000Y-55891881D01*
X118090000Y-56268119D01*
X118163400Y-56637127D01*
X118307380Y-56984724D01*
X118516406Y-57297554D01*
X118782446Y-57563594D01*
X119095276Y-57772620D01*
X119442873Y-57916600D01*
X119811881Y-57990000D01*
X120188119Y-57990000D01*
X120557127Y-57916600D01*
X120904724Y-57772620D01*
X121217554Y-57563594D01*
X121483594Y-57297554D01*
X121692620Y-56984724D01*
X121836600Y-56637127D01*
X121910000Y-56268119D01*
X121910000Y-55891881D01*
X121836600Y-55522873D01*
X121692620Y-55175276D01*
X121483594Y-54862446D01*
X121217554Y-54596406D01*
X120904724Y-54387380D01*
X120557127Y-54243400D01*
X120188119Y-54170000D01*
X119811881Y-54170000D01*
X119442873Y-54243400D01*
X119095276Y-54387380D01*
X118782446Y-54596406D01*
X118516406Y-54862446D01*
X118307380Y-55175276D01*
X118163400Y-55522873D01*
X118090000Y-55891881D01*
X117885000Y-55891881D01*
X117885000Y-49725000D01*
X118086928Y-49725000D01*
X118086928Y-52275000D01*
X118099188Y-52399482D01*
X118135498Y-52519180D01*
X118194463Y-52629494D01*
X118273815Y-52726185D01*
X118370506Y-52805537D01*
X118480820Y-52864502D01*
X118600518Y-52900812D01*
X118725000Y-52913072D01*
X121275000Y-52913072D01*
X121399482Y-52900812D01*
X121519180Y-52864502D01*
X121629494Y-52805537D01*
X121726185Y-52726185D01*
X121805537Y-52629494D01*
X121864502Y-52519180D01*
X121900812Y-52399482D01*
X121913072Y-52275000D01*
X121913072Y-49725000D01*
X121900812Y-49600518D01*
X121864502Y-49480820D01*
X121805537Y-49370506D01*
X121726185Y-49273815D01*
X121629494Y-49194463D01*
X121519180Y-49135498D01*
X121399482Y-49099188D01*
X121275000Y-49086928D01*
X118725000Y-49086928D01*
X118600518Y-49099188D01*
X118480820Y-49135498D01*
X118370506Y-49194463D01*
X118273815Y-49273815D01*
X118194463Y-49370506D01*
X118135498Y-49480820D01*
X118099188Y-49600518D01*
X118086928Y-49725000D01*
X117885000Y-49725000D01*
X117885000Y-47043465D01*
X117889281Y-46999999D01*
X117885000Y-46956533D01*
X117885000Y-46956523D01*
X117872195Y-46826510D01*
X117821589Y-46659687D01*
X117739411Y-46505941D01*
X117628817Y-46371183D01*
X117595050Y-46343471D01*
X116306534Y-45054956D01*
X116278817Y-45021183D01*
X116181944Y-44941681D01*
X116130537Y-44845506D01*
X116051185Y-44748815D01*
X115954494Y-44669463D01*
X115844180Y-44610498D01*
X115724482Y-44574188D01*
X115600000Y-44561928D01*
X114400000Y-44561928D01*
X114275518Y-44574188D01*
X114155820Y-44610498D01*
X114045506Y-44669463D01*
X113948815Y-44748815D01*
X113869463Y-44845506D01*
X113810498Y-44955820D01*
X113774188Y-45075518D01*
X113761928Y-45200000D01*
X113761928Y-46100000D01*
X113774188Y-46224482D01*
X113810498Y-46344180D01*
X113869463Y-46454494D01*
X113948815Y-46551185D01*
X114045506Y-46630537D01*
X114155820Y-46689502D01*
X114275518Y-46725812D01*
X114400000Y-46738072D01*
X115486494Y-46738072D01*
X116115000Y-47366579D01*
X116115001Y-53526575D01*
X116051185Y-53448815D01*
X115954494Y-53369463D01*
X115844180Y-53310498D01*
X115724482Y-53274188D01*
X115600000Y-53261928D01*
X114400000Y-53261928D01*
X114275518Y-53274188D01*
X114155820Y-53310498D01*
X114045506Y-53369463D01*
X113948815Y-53448815D01*
X113869463Y-53545506D01*
X113810498Y-53655820D01*
X113774188Y-53775518D01*
X113761928Y-53900000D01*
X113761928Y-54115000D01*
X112885000Y-54115000D01*
X112885000Y-54043469D01*
X112889281Y-54000000D01*
X112885000Y-53956531D01*
X112885000Y-53956523D01*
X112872195Y-53826510D01*
X112848683Y-53749002D01*
X112821589Y-53659686D01*
X112739411Y-53505941D01*
X112656532Y-53404953D01*
X112656530Y-53404951D01*
X112628817Y-53371183D01*
X112595050Y-53343471D01*
X111656534Y-52404956D01*
X111628817Y-52371183D01*
X111494059Y-52260589D01*
X111340313Y-52178411D01*
X111173490Y-52127805D01*
X111043477Y-52115000D01*
X111043469Y-52115000D01*
X111000000Y-52110719D01*
X110956531Y-52115000D01*
X109043469Y-52115000D01*
X109000000Y-52110719D01*
X108956531Y-52115000D01*
X108956523Y-52115000D01*
X108826510Y-52127805D01*
X108659686Y-52178411D01*
X108505941Y-52260589D01*
X108404953Y-52343468D01*
X108404951Y-52343470D01*
X108371183Y-52371183D01*
X108343470Y-52404951D01*
X105633422Y-55115000D01*
X104043465Y-55115000D01*
X103999999Y-55110719D01*
X103956533Y-55115000D01*
X103956523Y-55115000D01*
X103826510Y-55127805D01*
X103659687Y-55178411D01*
X103505941Y-55260589D01*
X103505939Y-55260590D01*
X103505940Y-55260590D01*
X103404953Y-55343468D01*
X103404951Y-55343470D01*
X103371183Y-55371183D01*
X103343470Y-55404951D01*
X102762309Y-55986112D01*
X102760000Y-55962667D01*
X102760000Y-53314801D01*
X102942393Y-53132408D01*
X103413000Y-53132408D01*
X103413000Y-53407592D01*
X103466686Y-53677490D01*
X103571995Y-53931727D01*
X103724880Y-54160535D01*
X103919465Y-54355120D01*
X104148273Y-54508005D01*
X104402510Y-54613314D01*
X104672408Y-54667000D01*
X104947592Y-54667000D01*
X105217490Y-54613314D01*
X105471727Y-54508005D01*
X105700535Y-54355120D01*
X105895120Y-54160535D01*
X106048005Y-53931727D01*
X106153314Y-53677490D01*
X106207000Y-53407592D01*
X106207000Y-53132408D01*
X106153314Y-52862510D01*
X106048005Y-52608273D01*
X105895120Y-52379465D01*
X105700535Y-52184880D01*
X105471727Y-52031995D01*
X105217490Y-51926686D01*
X104947592Y-51873000D01*
X104672408Y-51873000D01*
X104402510Y-51926686D01*
X104148273Y-52031995D01*
X103919465Y-52184880D01*
X103724880Y-52379465D01*
X103571995Y-52608273D01*
X103466686Y-52862510D01*
X103413000Y-53132408D01*
X102942393Y-53132408D01*
X104314802Y-51760000D01*
X109962678Y-51760000D01*
X110000000Y-51763676D01*
X110037322Y-51760000D01*
X110037333Y-51760000D01*
X110148986Y-51749003D01*
X110292247Y-51705546D01*
X110424276Y-51634974D01*
X110540001Y-51540001D01*
X110563804Y-51510997D01*
X112511003Y-49563799D01*
X112540001Y-49540001D01*
X112590070Y-49478992D01*
X112634974Y-49424277D01*
X112705546Y-49292247D01*
X112711137Y-49273815D01*
X112749003Y-49148986D01*
X112760000Y-49037333D01*
X112760000Y-49037324D01*
X112763676Y-49000001D01*
X112760000Y-48962678D01*
X112760000Y-47894365D01*
X112792606Y-47867606D01*
X112896831Y-47740608D01*
X112974278Y-47595716D01*
X113021969Y-47438500D01*
X113038072Y-47275000D01*
X113038072Y-46725000D01*
X113021969Y-46561500D01*
X112974278Y-46404284D01*
X112896831Y-46259392D01*
X112792606Y-46132394D01*
X112665608Y-46028169D01*
X112520716Y-45950722D01*
X112363500Y-45903031D01*
X112200000Y-45886928D01*
X111800000Y-45886928D01*
X111636500Y-45903031D01*
X111479284Y-45950722D01*
X111334392Y-46028169D01*
X111207394Y-46132394D01*
X111175000Y-46171866D01*
X111142606Y-46132394D01*
X111015608Y-46028169D01*
X110870716Y-45950722D01*
X110713500Y-45903031D01*
X110550000Y-45886928D01*
X110150000Y-45886928D01*
X109986500Y-45903031D01*
X109829284Y-45950722D01*
X109684392Y-46028169D01*
X109557394Y-46132394D01*
X109469084Y-46240000D01*
X109314802Y-46240000D01*
X107760000Y-44685199D01*
X107760000Y-44350000D01*
X108911928Y-44350000D01*
X108924188Y-44474482D01*
X108960498Y-44594180D01*
X109019463Y-44704494D01*
X109098815Y-44801185D01*
X109195506Y-44880537D01*
X109305820Y-44939502D01*
X109425518Y-44975812D01*
X109550000Y-44988072D01*
X109714250Y-44985000D01*
X109873000Y-44826250D01*
X109873000Y-44077000D01*
X110127000Y-44077000D01*
X110127000Y-44826250D01*
X110285750Y-44985000D01*
X110450000Y-44988072D01*
X110574482Y-44975812D01*
X110694180Y-44939502D01*
X110804494Y-44880537D01*
X110901185Y-44801185D01*
X110980537Y-44704494D01*
X111039502Y-44594180D01*
X111075812Y-44474482D01*
X111088072Y-44350000D01*
X111085000Y-44235750D01*
X110926250Y-44077000D01*
X110127000Y-44077000D01*
X109873000Y-44077000D01*
X109073750Y-44077000D01*
X108915000Y-44235750D01*
X108911928Y-44350000D01*
X107760000Y-44350000D01*
X107760000Y-43314801D01*
X108264802Y-42810000D01*
X109023982Y-42810000D01*
X109098815Y-42901185D01*
X109195506Y-42980537D01*
X109231918Y-43000000D01*
X109195506Y-43019463D01*
X109098815Y-43098815D01*
X109019463Y-43195506D01*
X108960498Y-43305820D01*
X108924188Y-43425518D01*
X108911928Y-43550000D01*
X108915000Y-43664250D01*
X109073750Y-43823000D01*
X109873000Y-43823000D01*
X109873000Y-43803000D01*
X110127000Y-43803000D01*
X110127000Y-43823000D01*
X110926250Y-43823000D01*
X111010857Y-43738393D01*
X111019463Y-43754494D01*
X111098815Y-43851185D01*
X111195506Y-43930537D01*
X111305820Y-43989502D01*
X111425518Y-44025812D01*
X111550000Y-44038072D01*
X112450000Y-44038072D01*
X112574482Y-44025812D01*
X112694180Y-43989502D01*
X112804494Y-43930537D01*
X112859981Y-43885000D01*
X114306531Y-43885000D01*
X114350000Y-43889281D01*
X114393469Y-43885000D01*
X114393477Y-43885000D01*
X114523490Y-43872195D01*
X114649261Y-43834042D01*
X124315000Y-43834042D01*
X124315000Y-44165958D01*
X124379754Y-44491496D01*
X124506772Y-44798147D01*
X124691175Y-45074125D01*
X124925875Y-45308825D01*
X125201853Y-45493228D01*
X125508504Y-45620246D01*
X125834042Y-45685000D01*
X126165958Y-45685000D01*
X126491496Y-45620246D01*
X126798147Y-45493228D01*
X127074125Y-45308825D01*
X127308825Y-45074125D01*
X127493228Y-44798147D01*
X127620246Y-44491496D01*
X127685000Y-44165958D01*
X127685000Y-43834042D01*
X127620246Y-43508504D01*
X127493228Y-43201853D01*
X127308825Y-42925875D01*
X127074125Y-42691175D01*
X126798147Y-42506772D01*
X126491496Y-42379754D01*
X126165958Y-42315000D01*
X125834042Y-42315000D01*
X125508504Y-42379754D01*
X125201853Y-42506772D01*
X124925875Y-42691175D01*
X124691175Y-42925875D01*
X124506772Y-43201853D01*
X124379754Y-43508504D01*
X124315000Y-43834042D01*
X114649261Y-43834042D01*
X114690313Y-43821589D01*
X114844059Y-43739411D01*
X114978817Y-43628817D01*
X115006534Y-43595044D01*
X115163506Y-43438072D01*
X115600000Y-43438072D01*
X115724482Y-43425812D01*
X115844180Y-43389502D01*
X115954494Y-43330537D01*
X116051185Y-43251185D01*
X116130537Y-43154494D01*
X116189502Y-43044180D01*
X116225812Y-42924482D01*
X116238072Y-42800000D01*
X116238072Y-41900000D01*
X116225812Y-41775518D01*
X116189502Y-41655820D01*
X116130537Y-41545506D01*
X116051185Y-41448815D01*
X115954494Y-41369463D01*
X115844180Y-41310498D01*
X115724482Y-41274188D01*
X115600000Y-41261928D01*
X114400000Y-41261928D01*
X114275518Y-41274188D01*
X114155820Y-41310498D01*
X114045506Y-41369463D01*
X113948815Y-41448815D01*
X113869463Y-41545506D01*
X113810498Y-41655820D01*
X113774188Y-41775518D01*
X113761928Y-41900000D01*
X113761928Y-42115000D01*
X112885000Y-42115000D01*
X112885000Y-42043469D01*
X112889281Y-42000000D01*
X112885000Y-41956531D01*
X112885000Y-41956523D01*
X112872195Y-41826510D01*
X112853756Y-41765725D01*
X112821589Y-41659686D01*
X112739411Y-41505941D01*
X112656532Y-41404953D01*
X112656530Y-41404951D01*
X112628817Y-41371183D01*
X112595049Y-41343470D01*
X112378579Y-41127000D01*
X128873000Y-41127000D01*
X128873000Y-99873000D01*
X112033752Y-99873000D01*
X112144180Y-99839502D01*
X112254494Y-99780537D01*
X112351185Y-99701185D01*
X112430537Y-99604494D01*
X112489502Y-99494180D01*
X112525812Y-99374482D01*
X112538072Y-99250000D01*
X112535000Y-98285750D01*
X112376250Y-98127000D01*
X111127000Y-98127000D01*
X111127000Y-98147000D01*
X110873000Y-98147000D01*
X110873000Y-98127000D01*
X109623750Y-98127000D01*
X109465000Y-98285750D01*
X109461928Y-99250000D01*
X109474188Y-99374482D01*
X109510498Y-99494180D01*
X109569463Y-99604494D01*
X109648815Y-99701185D01*
X109745506Y-99780537D01*
X109855820Y-99839502D01*
X109966248Y-99873000D01*
X90732132Y-99873000D01*
X90892640Y-99712492D01*
X91149590Y-99712492D01*
X91274072Y-99700232D01*
X91393770Y-99663922D01*
X91504084Y-99604957D01*
X91600775Y-99525605D01*
X91680127Y-99428914D01*
X91739092Y-99318600D01*
X91775402Y-99198902D01*
X91787662Y-99074420D01*
X91787662Y-97174420D01*
X91775402Y-97049938D01*
X91739092Y-96930240D01*
X91680127Y-96819926D01*
X91622741Y-96750000D01*
X109461928Y-96750000D01*
X109465000Y-97714250D01*
X109623750Y-97873000D01*
X110873000Y-97873000D01*
X110873000Y-96273750D01*
X111127000Y-96273750D01*
X111127000Y-97873000D01*
X112376250Y-97873000D01*
X112535000Y-97714250D01*
X112538072Y-96750000D01*
X112525812Y-96625518D01*
X112489502Y-96505820D01*
X112430537Y-96395506D01*
X112351185Y-96298815D01*
X112254494Y-96219463D01*
X112144180Y-96160498D01*
X112024482Y-96124188D01*
X111900000Y-96111928D01*
X111285750Y-96115000D01*
X111127000Y-96273750D01*
X110873000Y-96273750D01*
X110714250Y-96115000D01*
X110100000Y-96111928D01*
X109975518Y-96124188D01*
X109855820Y-96160498D01*
X109745506Y-96219463D01*
X109648815Y-96298815D01*
X109569463Y-96395506D01*
X109510498Y-96505820D01*
X109474188Y-96625518D01*
X109461928Y-96750000D01*
X91622741Y-96750000D01*
X91600775Y-96723235D01*
X91504084Y-96643883D01*
X91393770Y-96584918D01*
X91274072Y-96548608D01*
X91149590Y-96536348D01*
X89949590Y-96536348D01*
X89825108Y-96548608D01*
X89705410Y-96584918D01*
X89595096Y-96643883D01*
X89498405Y-96723235D01*
X89419053Y-96819926D01*
X89360088Y-96930240D01*
X89323778Y-97049938D01*
X89311518Y-97174420D01*
X89311518Y-98083350D01*
X88304879Y-99089990D01*
X86686129Y-99089990D01*
X86687662Y-99074420D01*
X86687662Y-97174420D01*
X86675402Y-97049938D01*
X86639092Y-96930240D01*
X86580127Y-96819926D01*
X86500775Y-96723235D01*
X86404084Y-96643883D01*
X86293770Y-96584918D01*
X86174072Y-96548608D01*
X86049590Y-96536348D01*
X85466650Y-96536348D01*
X81135000Y-92204699D01*
X81135000Y-92153072D01*
X81275000Y-92153072D01*
X81399482Y-92140812D01*
X81519180Y-92104502D01*
X81629494Y-92045537D01*
X81726185Y-91966185D01*
X81805537Y-91869494D01*
X81864502Y-91759180D01*
X81900812Y-91639482D01*
X81913072Y-91515000D01*
X81913072Y-90824420D01*
X84211518Y-90824420D01*
X84223778Y-90948902D01*
X84260088Y-91068600D01*
X84319053Y-91178914D01*
X84398405Y-91275605D01*
X84495096Y-91354957D01*
X84605410Y-91413922D01*
X84725108Y-91450232D01*
X84849590Y-91462492D01*
X85163840Y-91459420D01*
X85322590Y-91300670D01*
X85322590Y-90001420D01*
X85576590Y-90001420D01*
X85576590Y-91300670D01*
X85735340Y-91459420D01*
X86049590Y-91462492D01*
X86174072Y-91450232D01*
X86293770Y-91413922D01*
X86404084Y-91354957D01*
X86500775Y-91275605D01*
X86580127Y-91178914D01*
X86639092Y-91068600D01*
X86675402Y-90948902D01*
X86687662Y-90824420D01*
X86684590Y-90160170D01*
X86525840Y-90001420D01*
X85576590Y-90001420D01*
X85322590Y-90001420D01*
X84373340Y-90001420D01*
X84214590Y-90160170D01*
X84211518Y-90824420D01*
X81913072Y-90824420D01*
X81913072Y-88965000D01*
X81909076Y-88924420D01*
X84211518Y-88924420D01*
X84214590Y-89588670D01*
X84373340Y-89747420D01*
X85322590Y-89747420D01*
X85322590Y-88448170D01*
X85576590Y-88448170D01*
X85576590Y-89747420D01*
X86525840Y-89747420D01*
X86684590Y-89588670D01*
X86687662Y-88924420D01*
X89311518Y-88924420D01*
X89311518Y-90824420D01*
X89323778Y-90948902D01*
X89360088Y-91068600D01*
X89419053Y-91178914D01*
X89498405Y-91275605D01*
X89595096Y-91354957D01*
X89705410Y-91413922D01*
X89825108Y-91450232D01*
X89949590Y-91462492D01*
X91149590Y-91462492D01*
X91274072Y-91450232D01*
X91393770Y-91413922D01*
X91504084Y-91354957D01*
X91600775Y-91275605D01*
X91632192Y-91237323D01*
X93173240Y-92778371D01*
X93129528Y-92860150D01*
X93078992Y-93026746D01*
X93061928Y-93200000D01*
X93061928Y-94800000D01*
X93078992Y-94973254D01*
X93129528Y-95139850D01*
X93211595Y-95293386D01*
X93322038Y-95427962D01*
X93456614Y-95538405D01*
X93610150Y-95620472D01*
X93776746Y-95671008D01*
X93950000Y-95688072D01*
X98050000Y-95688072D01*
X98223254Y-95671008D01*
X98389850Y-95620472D01*
X98543386Y-95538405D01*
X98677962Y-95427962D01*
X98788405Y-95293386D01*
X98870472Y-95139850D01*
X98897727Y-95050000D01*
X101861928Y-95050000D01*
X101874188Y-95174482D01*
X101910498Y-95294180D01*
X101969463Y-95404494D01*
X102048815Y-95501185D01*
X102145506Y-95580537D01*
X102255820Y-95639502D01*
X102375518Y-95675812D01*
X102500000Y-95688072D01*
X104514250Y-95685000D01*
X104673000Y-95526250D01*
X104673000Y-94127000D01*
X104927000Y-94127000D01*
X104927000Y-95526250D01*
X105085750Y-95685000D01*
X107100000Y-95688072D01*
X107224482Y-95675812D01*
X107344180Y-95639502D01*
X107454494Y-95580537D01*
X107551185Y-95501185D01*
X107630537Y-95404494D01*
X107689502Y-95294180D01*
X107725812Y-95174482D01*
X107738072Y-95050000D01*
X107735000Y-94285750D01*
X107576250Y-94127000D01*
X104927000Y-94127000D01*
X104673000Y-94127000D01*
X102023750Y-94127000D01*
X101865000Y-94285750D01*
X101861928Y-95050000D01*
X98897727Y-95050000D01*
X98921008Y-94973254D01*
X98938072Y-94800000D01*
X98938072Y-93200000D01*
X98921008Y-93026746D01*
X98897728Y-92950000D01*
X101861928Y-92950000D01*
X101865000Y-93714250D01*
X102023750Y-93873000D01*
X104673000Y-93873000D01*
X104673000Y-92473750D01*
X104927000Y-92473750D01*
X104927000Y-93873000D01*
X107576250Y-93873000D01*
X107735000Y-93714250D01*
X107738072Y-92950000D01*
X107725812Y-92825518D01*
X107689502Y-92705820D01*
X107630537Y-92595506D01*
X107551185Y-92498815D01*
X107454494Y-92419463D01*
X107344180Y-92360498D01*
X107224482Y-92324188D01*
X107100000Y-92311928D01*
X105085750Y-92315000D01*
X104927000Y-92473750D01*
X104673000Y-92473750D01*
X104514250Y-92315000D01*
X102500000Y-92311928D01*
X102375518Y-92324188D01*
X102255820Y-92360498D01*
X102145506Y-92419463D01*
X102048815Y-92498815D01*
X101969463Y-92595506D01*
X101910498Y-92705820D01*
X101874188Y-92825518D01*
X101861928Y-92950000D01*
X98897728Y-92950000D01*
X98870472Y-92860150D01*
X98788405Y-92706614D01*
X98677962Y-92572038D01*
X98543386Y-92461595D01*
X98389850Y-92379528D01*
X98223254Y-92328992D01*
X98050000Y-92311928D01*
X95917060Y-92311928D01*
X93692631Y-90087500D01*
X98192060Y-85588072D01*
X99375000Y-85588072D01*
X99499482Y-85575812D01*
X99619180Y-85539502D01*
X99729494Y-85480537D01*
X99826185Y-85401185D01*
X99905537Y-85304494D01*
X99964502Y-85194180D01*
X100000812Y-85074482D01*
X100013072Y-84950000D01*
X100013072Y-83850000D01*
X100000812Y-83725518D01*
X99996105Y-83710000D01*
X102011928Y-83710000D01*
X102011928Y-84200000D01*
X102024188Y-84324482D01*
X102060498Y-84444180D01*
X102119463Y-84554494D01*
X102198815Y-84651185D01*
X102295506Y-84730537D01*
X102405820Y-84789502D01*
X102525518Y-84825812D01*
X102650000Y-84838072D01*
X105550000Y-84838072D01*
X105674482Y-84825812D01*
X105794180Y-84789502D01*
X105902987Y-84731342D01*
X109990001Y-88818357D01*
X109990000Y-92122762D01*
X109975518Y-92124188D01*
X109855820Y-92160498D01*
X109745506Y-92219463D01*
X109648815Y-92298815D01*
X109569463Y-92395506D01*
X109510498Y-92505820D01*
X109474188Y-92625518D01*
X109461928Y-92750000D01*
X109461928Y-95250000D01*
X109474188Y-95374482D01*
X109510498Y-95494180D01*
X109569463Y-95604494D01*
X109648815Y-95701185D01*
X109745506Y-95780537D01*
X109855820Y-95839502D01*
X109975518Y-95875812D01*
X110100000Y-95888072D01*
X111900000Y-95888072D01*
X112024482Y-95875812D01*
X112144180Y-95839502D01*
X112254494Y-95780537D01*
X112351185Y-95701185D01*
X112430537Y-95604494D01*
X112489502Y-95494180D01*
X112525812Y-95374482D01*
X112538072Y-95250000D01*
X112538072Y-92750000D01*
X112525812Y-92625518D01*
X112489502Y-92505820D01*
X112430537Y-92395506D01*
X112351185Y-92298815D01*
X112254494Y-92219463D01*
X112144180Y-92160498D01*
X112024482Y-92124188D01*
X112010000Y-92122762D01*
X112010000Y-88449608D01*
X112014886Y-88400000D01*
X111995385Y-88202005D01*
X111937632Y-88011620D01*
X111843846Y-87836159D01*
X111749256Y-87720900D01*
X111717633Y-87682367D01*
X111679100Y-87650744D01*
X106188072Y-82159717D01*
X106188072Y-78800000D01*
X106175812Y-78675518D01*
X106139502Y-78555820D01*
X106080537Y-78445506D01*
X106001185Y-78348815D01*
X105904494Y-78269463D01*
X105794180Y-78210498D01*
X105674482Y-78174188D01*
X105550000Y-78161928D01*
X102650000Y-78161928D01*
X102525518Y-78174188D01*
X102405820Y-78210498D01*
X102295506Y-78269463D01*
X102198815Y-78348815D01*
X102119463Y-78445506D01*
X102060498Y-78555820D01*
X102024188Y-78675518D01*
X102011928Y-78800000D01*
X102011928Y-81690000D01*
X99996105Y-81690000D01*
X100000812Y-81674482D01*
X100013072Y-81550000D01*
X100010000Y-81285750D01*
X99851250Y-81127000D01*
X97202000Y-81127000D01*
X97202000Y-81147000D01*
X96948000Y-81147000D01*
X96948000Y-81127000D01*
X94298750Y-81127000D01*
X94140000Y-81285750D01*
X94136928Y-81550000D01*
X94149188Y-81674482D01*
X94185498Y-81794180D01*
X94215335Y-81850000D01*
X94185498Y-81905820D01*
X94149188Y-82025518D01*
X94136928Y-82150000D01*
X94136928Y-83250000D01*
X94149188Y-83374482D01*
X94185498Y-83494180D01*
X94215335Y-83550000D01*
X94185498Y-83605820D01*
X94149188Y-83725518D01*
X94136928Y-83850000D01*
X94136928Y-84950000D01*
X94149188Y-85074482D01*
X94185498Y-85194180D01*
X94244463Y-85304494D01*
X94323815Y-85401185D01*
X94420506Y-85480537D01*
X94530820Y-85539502D01*
X94650518Y-85575812D01*
X94775000Y-85588072D01*
X94981796Y-85588072D01*
X91831736Y-88738133D01*
X91818669Y-88739420D01*
X91757044Y-88739420D01*
X91739092Y-88680240D01*
X91680127Y-88569926D01*
X91600775Y-88473235D01*
X91504084Y-88393883D01*
X91393770Y-88334918D01*
X91274072Y-88298608D01*
X91149590Y-88286348D01*
X89949590Y-88286348D01*
X89825108Y-88298608D01*
X89705410Y-88334918D01*
X89595096Y-88393883D01*
X89498405Y-88473235D01*
X89419053Y-88569926D01*
X89360088Y-88680240D01*
X89323778Y-88799938D01*
X89311518Y-88924420D01*
X86687662Y-88924420D01*
X86675402Y-88799938D01*
X86639092Y-88680240D01*
X86580127Y-88569926D01*
X86500775Y-88473235D01*
X86404084Y-88393883D01*
X86293770Y-88334918D01*
X86174072Y-88298608D01*
X86049590Y-88286348D01*
X85735340Y-88289420D01*
X85576590Y-88448170D01*
X85322590Y-88448170D01*
X85163840Y-88289420D01*
X84849590Y-88286348D01*
X84725108Y-88298608D01*
X84605410Y-88334918D01*
X84495096Y-88393883D01*
X84398405Y-88473235D01*
X84319053Y-88569926D01*
X84260088Y-88680240D01*
X84223778Y-88799938D01*
X84211518Y-88924420D01*
X81909076Y-88924420D01*
X81900812Y-88840518D01*
X81864502Y-88720820D01*
X81805537Y-88610506D01*
X81726185Y-88513815D01*
X81629494Y-88434463D01*
X81519180Y-88375498D01*
X81399482Y-88339188D01*
X81275000Y-88326928D01*
X78725000Y-88326928D01*
X78600518Y-88339188D01*
X78480820Y-88375498D01*
X78370506Y-88434463D01*
X78273815Y-88513815D01*
X78194463Y-88610506D01*
X78135498Y-88720820D01*
X78099188Y-88840518D01*
X78086928Y-88965000D01*
X78086928Y-91515000D01*
X78099188Y-91639482D01*
X78135498Y-91759180D01*
X78194463Y-91869494D01*
X78273815Y-91966185D01*
X78370506Y-92045537D01*
X78480820Y-92104502D01*
X78600518Y-92140812D01*
X78725000Y-92153072D01*
X78865001Y-92153072D01*
X78865001Y-92619069D01*
X78859509Y-92674830D01*
X78881423Y-92897328D01*
X78946324Y-93111276D01*
X78961940Y-93140491D01*
X79051717Y-93308453D01*
X79193552Y-93481279D01*
X79236860Y-93516821D01*
X84211518Y-98491480D01*
X84211518Y-98606386D01*
X77135000Y-91529869D01*
X77135000Y-84971881D01*
X78090000Y-84971881D01*
X78090000Y-85348119D01*
X78163400Y-85717127D01*
X78307380Y-86064724D01*
X78516406Y-86377554D01*
X78782446Y-86643594D01*
X79095276Y-86852620D01*
X79442873Y-86996600D01*
X79811881Y-87070000D01*
X80188119Y-87070000D01*
X80557127Y-86996600D01*
X80904724Y-86852620D01*
X81217554Y-86643594D01*
X81461148Y-86400000D01*
X82586928Y-86400000D01*
X82599188Y-86524482D01*
X82635498Y-86644180D01*
X82694463Y-86754494D01*
X82773815Y-86851185D01*
X82870506Y-86930537D01*
X82980820Y-86989502D01*
X83100518Y-87025812D01*
X83225000Y-87038072D01*
X87639250Y-87035000D01*
X87798000Y-86876250D01*
X87798000Y-81127000D01*
X88052000Y-81127000D01*
X88052000Y-86876250D01*
X88210750Y-87035000D01*
X92625000Y-87038072D01*
X92749482Y-87025812D01*
X92869180Y-86989502D01*
X92979494Y-86930537D01*
X93076185Y-86851185D01*
X93155537Y-86754494D01*
X93214502Y-86644180D01*
X93250812Y-86524482D01*
X93263072Y-86400000D01*
X93260000Y-81285750D01*
X93101250Y-81127000D01*
X88052000Y-81127000D01*
X87798000Y-81127000D01*
X82748750Y-81127000D01*
X82590000Y-81285750D01*
X82586928Y-86400000D01*
X81461148Y-86400000D01*
X81483594Y-86377554D01*
X81692620Y-86064724D01*
X81836600Y-85717127D01*
X81910000Y-85348119D01*
X81910000Y-84971881D01*
X81836600Y-84602873D01*
X81692620Y-84255276D01*
X81483594Y-83942446D01*
X81217554Y-83676406D01*
X80904724Y-83467380D01*
X80557127Y-83323400D01*
X80188119Y-83250000D01*
X79811881Y-83250000D01*
X79442873Y-83323400D01*
X79095276Y-83467380D01*
X78782446Y-83676406D01*
X78516406Y-83942446D01*
X78307380Y-84255276D01*
X78163400Y-84602873D01*
X78090000Y-84971881D01*
X77135000Y-84971881D01*
X77135000Y-79891881D01*
X78090000Y-79891881D01*
X78090000Y-80268119D01*
X78163400Y-80637127D01*
X78307380Y-80984724D01*
X78516406Y-81297554D01*
X78782446Y-81563594D01*
X79095276Y-81772620D01*
X79442873Y-81916600D01*
X79811881Y-81990000D01*
X80188119Y-81990000D01*
X80557127Y-81916600D01*
X80904724Y-81772620D01*
X81217554Y-81563594D01*
X81483594Y-81297554D01*
X81692620Y-80984724D01*
X81836600Y-80637127D01*
X81910000Y-80268119D01*
X81910000Y-79891881D01*
X81836600Y-79522873D01*
X81692620Y-79175276D01*
X81483594Y-78862446D01*
X81217554Y-78596406D01*
X80904724Y-78387380D01*
X80557127Y-78243400D01*
X80188119Y-78170000D01*
X79811881Y-78170000D01*
X79442873Y-78243400D01*
X79095276Y-78387380D01*
X78782446Y-78596406D01*
X78516406Y-78862446D01*
X78307380Y-79175276D01*
X78163400Y-79522873D01*
X78090000Y-79891881D01*
X77135000Y-79891881D01*
X77135000Y-79470131D01*
X79714502Y-76890630D01*
X79811881Y-76910000D01*
X80188119Y-76910000D01*
X80557127Y-76836600D01*
X80904724Y-76692620D01*
X81217554Y-76483594D01*
X81483594Y-76217554D01*
X81692620Y-75904724D01*
X81818841Y-75600000D01*
X82586928Y-75600000D01*
X82590000Y-80714250D01*
X82748750Y-80873000D01*
X87798000Y-80873000D01*
X87798000Y-75123750D01*
X88052000Y-75123750D01*
X88052000Y-80873000D01*
X93101250Y-80873000D01*
X93260000Y-80714250D01*
X93262201Y-77050000D01*
X94136928Y-77050000D01*
X94140000Y-77314250D01*
X94298750Y-77473000D01*
X96948000Y-77473000D01*
X96948000Y-76573750D01*
X97202000Y-76573750D01*
X97202000Y-77473000D01*
X99851250Y-77473000D01*
X100010000Y-77314250D01*
X100013072Y-77050000D01*
X100000812Y-76925518D01*
X99964502Y-76805820D01*
X99905537Y-76695506D01*
X99826185Y-76598815D01*
X99729494Y-76519463D01*
X99619180Y-76460498D01*
X99499482Y-76424188D01*
X99375000Y-76411928D01*
X97360750Y-76415000D01*
X97202000Y-76573750D01*
X96948000Y-76573750D01*
X96789250Y-76415000D01*
X94775000Y-76411928D01*
X94650518Y-76424188D01*
X94530820Y-76460498D01*
X94420506Y-76519463D01*
X94323815Y-76598815D01*
X94244463Y-76695506D01*
X94185498Y-76805820D01*
X94149188Y-76925518D01*
X94136928Y-77050000D01*
X93262201Y-77050000D01*
X93263072Y-75600000D01*
X93250812Y-75475518D01*
X93214502Y-75355820D01*
X93155537Y-75245506D01*
X93076185Y-75148815D01*
X92979494Y-75069463D01*
X92869180Y-75010498D01*
X92749482Y-74974188D01*
X92625000Y-74961928D01*
X88210750Y-74965000D01*
X88052000Y-75123750D01*
X87798000Y-75123750D01*
X87639250Y-74965000D01*
X83225000Y-74961928D01*
X83100518Y-74974188D01*
X82980820Y-75010498D01*
X82870506Y-75069463D01*
X82773815Y-75148815D01*
X82694463Y-75245506D01*
X82635498Y-75355820D01*
X82599188Y-75475518D01*
X82586928Y-75600000D01*
X81818841Y-75600000D01*
X81836600Y-75557127D01*
X81910000Y-75188119D01*
X81910000Y-74811881D01*
X81836600Y-74442873D01*
X81692620Y-74095276D01*
X81483594Y-73782446D01*
X81217554Y-73516406D01*
X80904724Y-73307380D01*
X80557127Y-73163400D01*
X80188119Y-73090000D01*
X79811881Y-73090000D01*
X79442873Y-73163400D01*
X79095276Y-73307380D01*
X78782446Y-73516406D01*
X78516406Y-73782446D01*
X78307380Y-74095276D01*
X78163400Y-74442873D01*
X78090000Y-74811881D01*
X78090000Y-75188119D01*
X78109370Y-75285498D01*
X75236865Y-78158004D01*
X75193551Y-78193551D01*
X75051716Y-78366377D01*
X74974413Y-78511003D01*
X74946324Y-78563554D01*
X74881423Y-78777502D01*
X74859509Y-79000000D01*
X74865000Y-79055752D01*
X74865001Y-91944239D01*
X74859509Y-92000000D01*
X74881423Y-92222498D01*
X74946324Y-92436446D01*
X74979661Y-92498815D01*
X75051717Y-92633623D01*
X75193552Y-92806449D01*
X75236860Y-92841991D01*
X82267868Y-99873000D01*
X71127000Y-99873000D01*
X71127000Y-96834042D01*
X72315000Y-96834042D01*
X72315000Y-97165958D01*
X72379754Y-97491496D01*
X72506772Y-97798147D01*
X72691175Y-98074125D01*
X72925875Y-98308825D01*
X73201853Y-98493228D01*
X73508504Y-98620246D01*
X73834042Y-98685000D01*
X74165958Y-98685000D01*
X74491496Y-98620246D01*
X74798147Y-98493228D01*
X75074125Y-98308825D01*
X75308825Y-98074125D01*
X75493228Y-97798147D01*
X75620246Y-97491496D01*
X75685000Y-97165958D01*
X75685000Y-96834042D01*
X75620246Y-96508504D01*
X75493228Y-96201853D01*
X75308825Y-95925875D01*
X75074125Y-95691175D01*
X74798147Y-95506772D01*
X74491496Y-95379754D01*
X74165958Y-95315000D01*
X73834042Y-95315000D01*
X73508504Y-95379754D01*
X73201853Y-95506772D01*
X72925875Y-95691175D01*
X72691175Y-95925875D01*
X72506772Y-96201853D01*
X72379754Y-96508504D01*
X72315000Y-96834042D01*
X71127000Y-96834042D01*
X71127000Y-59725000D01*
X78086928Y-59725000D01*
X78086928Y-62275000D01*
X78099188Y-62399482D01*
X78135498Y-62519180D01*
X78194463Y-62629494D01*
X78273815Y-62726185D01*
X78370506Y-62805537D01*
X78480820Y-62864502D01*
X78600518Y-62900812D01*
X78725000Y-62913072D01*
X81275000Y-62913072D01*
X81399482Y-62900812D01*
X81519180Y-62864502D01*
X81629494Y-62805537D01*
X81726185Y-62726185D01*
X81805537Y-62629494D01*
X81864502Y-62519180D01*
X81900812Y-62399482D01*
X81913072Y-62275000D01*
X81913072Y-59725000D01*
X81900812Y-59600518D01*
X81864502Y-59480820D01*
X81805537Y-59370506D01*
X81726185Y-59273815D01*
X81629494Y-59194463D01*
X81519180Y-59135498D01*
X81399482Y-59099188D01*
X81275000Y-59086928D01*
X78725000Y-59086928D01*
X78600518Y-59099188D01*
X78480820Y-59135498D01*
X78370506Y-59194463D01*
X78273815Y-59273815D01*
X78194463Y-59370506D01*
X78135498Y-59480820D01*
X78099188Y-59600518D01*
X78086928Y-59725000D01*
X71127000Y-59725000D01*
X71127000Y-55731881D01*
X78090000Y-55731881D01*
X78090000Y-56108119D01*
X78163400Y-56477127D01*
X78307380Y-56824724D01*
X78516406Y-57137554D01*
X78782446Y-57403594D01*
X79095276Y-57612620D01*
X79442873Y-57756600D01*
X79811881Y-57830000D01*
X80188119Y-57830000D01*
X80557127Y-57756600D01*
X80904724Y-57612620D01*
X81217554Y-57403594D01*
X81483594Y-57137554D01*
X81692620Y-56824724D01*
X81836600Y-56477127D01*
X81910000Y-56108119D01*
X81910000Y-55731881D01*
X81836600Y-55362873D01*
X81692620Y-55015276D01*
X81483594Y-54702446D01*
X81217554Y-54436406D01*
X80904724Y-54227380D01*
X80557127Y-54083400D01*
X80188119Y-54010000D01*
X79811881Y-54010000D01*
X79442873Y-54083400D01*
X79095276Y-54227380D01*
X78782446Y-54436406D01*
X78516406Y-54702446D01*
X78307380Y-55015276D01*
X78163400Y-55362873D01*
X78090000Y-55731881D01*
X71127000Y-55731881D01*
X71127000Y-50651881D01*
X78090000Y-50651881D01*
X78090000Y-51028119D01*
X78163400Y-51397127D01*
X78307380Y-51744724D01*
X78516406Y-52057554D01*
X78782446Y-52323594D01*
X79095276Y-52532620D01*
X79442873Y-52676600D01*
X79811881Y-52750000D01*
X80188119Y-52750000D01*
X80557127Y-52676600D01*
X80904724Y-52532620D01*
X81217554Y-52323594D01*
X81483594Y-52057554D01*
X81692620Y-51744724D01*
X81836600Y-51397127D01*
X81910000Y-51028119D01*
X81910000Y-50651881D01*
X81836600Y-50282873D01*
X81692620Y-49935276D01*
X81483594Y-49622446D01*
X81217554Y-49356406D01*
X80904724Y-49147380D01*
X80557127Y-49003400D01*
X80188119Y-48930000D01*
X79811881Y-48930000D01*
X79442873Y-49003400D01*
X79095276Y-49147380D01*
X78782446Y-49356406D01*
X78516406Y-49622446D01*
X78307380Y-49935276D01*
X78163400Y-50282873D01*
X78090000Y-50651881D01*
X71127000Y-50651881D01*
X71127000Y-43834042D01*
X72315000Y-43834042D01*
X72315000Y-44165958D01*
X72379754Y-44491496D01*
X72506772Y-44798147D01*
X72691175Y-45074125D01*
X72925875Y-45308825D01*
X73201853Y-45493228D01*
X73508504Y-45620246D01*
X73834042Y-45685000D01*
X74165958Y-45685000D01*
X74491496Y-45620246D01*
X74798147Y-45493228D01*
X75074125Y-45308825D01*
X75308825Y-45074125D01*
X75493228Y-44798147D01*
X75620246Y-44491496D01*
X75685000Y-44165958D01*
X75685000Y-43834042D01*
X75658338Y-43700000D01*
X79936928Y-43700000D01*
X79949188Y-43824482D01*
X79985498Y-43944180D01*
X80044463Y-44054494D01*
X80123815Y-44151185D01*
X80220506Y-44230537D01*
X80277351Y-44260922D01*
X80200722Y-44404284D01*
X80153031Y-44561500D01*
X80136928Y-44725000D01*
X80136928Y-45275000D01*
X80153031Y-45438500D01*
X80200722Y-45595716D01*
X80278169Y-45740608D01*
X80382394Y-45867606D01*
X80509392Y-45971831D01*
X80654284Y-46049278D01*
X80811500Y-46096969D01*
X80975000Y-46113072D01*
X81375000Y-46113072D01*
X81538500Y-46096969D01*
X81695716Y-46049278D01*
X81840608Y-45971831D01*
X81967606Y-45867606D01*
X82000000Y-45828134D01*
X82032394Y-45867606D01*
X82065000Y-45894365D01*
X82065001Y-54787668D01*
X82061324Y-54825000D01*
X82065001Y-54862333D01*
X82075998Y-54973986D01*
X82083889Y-55000000D01*
X82119454Y-55117246D01*
X82190026Y-55249276D01*
X82236431Y-55305820D01*
X82285000Y-55365001D01*
X82313998Y-55388799D01*
X84965000Y-58039802D01*
X84965000Y-58101939D01*
X85004774Y-58301898D01*
X85082795Y-58490256D01*
X85196063Y-58659774D01*
X85340226Y-58803937D01*
X85509744Y-58917205D01*
X85698102Y-58995226D01*
X85898061Y-59035000D01*
X86101939Y-59035000D01*
X86301898Y-58995226D01*
X86490256Y-58917205D01*
X86659774Y-58803937D01*
X86803937Y-58659774D01*
X86917205Y-58490256D01*
X86995226Y-58301898D01*
X87035000Y-58101939D01*
X87035000Y-57898061D01*
X86995226Y-57698102D01*
X86917205Y-57509744D01*
X86803937Y-57340226D01*
X86659774Y-57196063D01*
X86490256Y-57082795D01*
X86301898Y-57004774D01*
X86101939Y-56965000D01*
X86039802Y-56965000D01*
X83585000Y-54510199D01*
X83585000Y-45894365D01*
X83617606Y-45867606D01*
X83721831Y-45740608D01*
X83799278Y-45595716D01*
X83846969Y-45438500D01*
X83863072Y-45275000D01*
X83863072Y-44725000D01*
X83846969Y-44561500D01*
X83799278Y-44404284D01*
X83721831Y-44259392D01*
X83666488Y-44191957D01*
X83671164Y-44189458D01*
X83804792Y-44079792D01*
X83914458Y-43946164D01*
X83995947Y-43793709D01*
X84046128Y-43628285D01*
X84058762Y-43500000D01*
X85861928Y-43500000D01*
X85874188Y-43624482D01*
X85910498Y-43744180D01*
X85969463Y-43854494D01*
X86048815Y-43951185D01*
X86145506Y-44030537D01*
X86255820Y-44089502D01*
X86375518Y-44125812D01*
X86500000Y-44138072D01*
X86714250Y-44135000D01*
X86873000Y-43976250D01*
X86873000Y-43252000D01*
X87127000Y-43252000D01*
X87127000Y-43976250D01*
X87285750Y-44135000D01*
X87500000Y-44138072D01*
X87624482Y-44125812D01*
X87744180Y-44089502D01*
X87854494Y-44030537D01*
X87951185Y-43951185D01*
X88030537Y-43854494D01*
X88089502Y-43744180D01*
X88125812Y-43624482D01*
X88138072Y-43500000D01*
X91861928Y-43500000D01*
X91874188Y-43624482D01*
X91910498Y-43744180D01*
X91969463Y-43854494D01*
X92048815Y-43951185D01*
X92145506Y-44030537D01*
X92255820Y-44089502D01*
X92375518Y-44125812D01*
X92500000Y-44138072D01*
X92714250Y-44135000D01*
X92873000Y-43976250D01*
X92873000Y-43252000D01*
X93127000Y-43252000D01*
X93127000Y-43976250D01*
X93285750Y-44135000D01*
X93500000Y-44138072D01*
X93624482Y-44125812D01*
X93744180Y-44089502D01*
X93854494Y-44030537D01*
X93951185Y-43951185D01*
X94030537Y-43854494D01*
X94089502Y-43744180D01*
X94125812Y-43624482D01*
X94138072Y-43500000D01*
X94135000Y-43410750D01*
X93976250Y-43252000D01*
X93127000Y-43252000D01*
X92873000Y-43252000D01*
X92023750Y-43252000D01*
X91865000Y-43410750D01*
X91861928Y-43500000D01*
X88138072Y-43500000D01*
X88135000Y-43410750D01*
X87976250Y-43252000D01*
X87127000Y-43252000D01*
X86873000Y-43252000D01*
X86023750Y-43252000D01*
X85865000Y-43410750D01*
X85861928Y-43500000D01*
X84058762Y-43500000D01*
X84063072Y-43456250D01*
X84063072Y-42750000D01*
X85861928Y-42750000D01*
X85865000Y-42839250D01*
X86023750Y-42998000D01*
X86873000Y-42998000D01*
X86873000Y-42273750D01*
X87127000Y-42273750D01*
X87127000Y-42998000D01*
X87976250Y-42998000D01*
X88135000Y-42839250D01*
X88138072Y-42750000D01*
X91861928Y-42750000D01*
X91865000Y-42839250D01*
X92023750Y-42998000D01*
X92873000Y-42998000D01*
X92873000Y-42273750D01*
X93127000Y-42273750D01*
X93127000Y-42998000D01*
X93976250Y-42998000D01*
X94001842Y-42972408D01*
X95793000Y-42972408D01*
X95793000Y-43247592D01*
X95846686Y-43517490D01*
X95951995Y-43771727D01*
X96104880Y-44000535D01*
X96299465Y-44195120D01*
X96528273Y-44348005D01*
X96782510Y-44453314D01*
X97052408Y-44507000D01*
X97327592Y-44507000D01*
X97597490Y-44453314D01*
X97851727Y-44348005D01*
X98080535Y-44195120D01*
X98275120Y-44000535D01*
X98428005Y-43771727D01*
X98533314Y-43517490D01*
X98587000Y-43247592D01*
X98587000Y-42972408D01*
X98533314Y-42702510D01*
X98428005Y-42448273D01*
X98275120Y-42219465D01*
X98080535Y-42024880D01*
X97896886Y-41902169D01*
X97895546Y-41897753D01*
X97824974Y-41765724D01*
X97730001Y-41649999D01*
X97614275Y-41555026D01*
X97482246Y-41484454D01*
X97338985Y-41440997D01*
X97190000Y-41426323D01*
X97041014Y-41440997D01*
X96897753Y-41484454D01*
X96765724Y-41555026D01*
X96649999Y-41649999D01*
X96555026Y-41765725D01*
X96484454Y-41897754D01*
X96483115Y-41902169D01*
X96299465Y-42024880D01*
X96104880Y-42219465D01*
X95951995Y-42448273D01*
X95846686Y-42702510D01*
X95793000Y-42972408D01*
X94001842Y-42972408D01*
X94135000Y-42839250D01*
X94138072Y-42750000D01*
X94125812Y-42625518D01*
X94089502Y-42505820D01*
X94030537Y-42395506D01*
X93951185Y-42298815D01*
X93854494Y-42219463D01*
X93744180Y-42160498D01*
X93624482Y-42124188D01*
X93500000Y-42111928D01*
X93285750Y-42115000D01*
X93127000Y-42273750D01*
X92873000Y-42273750D01*
X92714250Y-42115000D01*
X92500000Y-42111928D01*
X92375518Y-42124188D01*
X92255820Y-42160498D01*
X92145506Y-42219463D01*
X92048815Y-42298815D01*
X91969463Y-42395506D01*
X91910498Y-42505820D01*
X91874188Y-42625518D01*
X91861928Y-42750000D01*
X88138072Y-42750000D01*
X88125812Y-42625518D01*
X88089502Y-42505820D01*
X88030537Y-42395506D01*
X87951185Y-42298815D01*
X87854494Y-42219463D01*
X87744180Y-42160498D01*
X87624482Y-42124188D01*
X87500000Y-42111928D01*
X87285750Y-42115000D01*
X87127000Y-42273750D01*
X86873000Y-42273750D01*
X86714250Y-42115000D01*
X86500000Y-42111928D01*
X86375518Y-42124188D01*
X86255820Y-42160498D01*
X86145506Y-42219463D01*
X86048815Y-42298815D01*
X85969463Y-42395506D01*
X85910498Y-42505820D01*
X85874188Y-42625518D01*
X85861928Y-42750000D01*
X84063072Y-42750000D01*
X84063072Y-42543750D01*
X84046128Y-42371715D01*
X83995947Y-42206291D01*
X83914458Y-42053836D01*
X83804792Y-41920208D01*
X83671164Y-41810542D01*
X83518709Y-41729053D01*
X83353285Y-41678872D01*
X83181250Y-41661928D01*
X82693750Y-41661928D01*
X82521715Y-41678872D01*
X82356291Y-41729053D01*
X82203836Y-41810542D01*
X82070208Y-41920208D01*
X82064992Y-41926564D01*
X82001185Y-41848815D01*
X81904494Y-41769463D01*
X81794180Y-41710498D01*
X81674482Y-41674188D01*
X81550000Y-41661928D01*
X81348250Y-41665000D01*
X81189500Y-41823750D01*
X81189500Y-42873000D01*
X81209500Y-42873000D01*
X81209500Y-43127000D01*
X81189500Y-43127000D01*
X81189500Y-43147000D01*
X80935500Y-43147000D01*
X80935500Y-43127000D01*
X80098750Y-43127000D01*
X79940000Y-43285750D01*
X79936928Y-43700000D01*
X75658338Y-43700000D01*
X75620246Y-43508504D01*
X75493228Y-43201853D01*
X75308825Y-42925875D01*
X75074125Y-42691175D01*
X74798147Y-42506772D01*
X74491496Y-42379754D01*
X74165958Y-42315000D01*
X73834042Y-42315000D01*
X73508504Y-42379754D01*
X73201853Y-42506772D01*
X72925875Y-42691175D01*
X72691175Y-42925875D01*
X72506772Y-43201853D01*
X72379754Y-43508504D01*
X72315000Y-43834042D01*
X71127000Y-43834042D01*
X71127000Y-42300000D01*
X79936928Y-42300000D01*
X79940000Y-42714250D01*
X80098750Y-42873000D01*
X80935500Y-42873000D01*
X80935500Y-41823750D01*
X80776750Y-41665000D01*
X80575000Y-41661928D01*
X80450518Y-41674188D01*
X80330820Y-41710498D01*
X80220506Y-41769463D01*
X80123815Y-41848815D01*
X80044463Y-41945506D01*
X79985498Y-42055820D01*
X79949188Y-42175518D01*
X79936928Y-42300000D01*
X71127000Y-42300000D01*
X71127000Y-41127000D01*
X101621421Y-41127000D01*
X100404956Y-42343466D01*
G04 #@! TA.AperFunction,Conductor*
D33*
G36*
X100404956Y-42343466D02*
G01*
X100371183Y-42371183D01*
X100260589Y-42505942D01*
X100178411Y-42659688D01*
X100161860Y-42714250D01*
X100132814Y-42810000D01*
X100127805Y-42826511D01*
X100115000Y-42956524D01*
X100115000Y-42956531D01*
X100110719Y-43000000D01*
X100115000Y-43043469D01*
X100115001Y-54173420D01*
X97334123Y-56954299D01*
X97327592Y-56953000D01*
X97052408Y-56953000D01*
X96782510Y-57006686D01*
X96528273Y-57111995D01*
X96299465Y-57264880D01*
X96104880Y-57459465D01*
X95951995Y-57688273D01*
X95846686Y-57942510D01*
X95793000Y-58212408D01*
X95793000Y-58487592D01*
X95846686Y-58757490D01*
X95951995Y-59011727D01*
X96104880Y-59240535D01*
X96299465Y-59435120D01*
X96528273Y-59588005D01*
X96605515Y-59620000D01*
X96528273Y-59651995D01*
X96299465Y-59804880D01*
X96104880Y-59999465D01*
X95951995Y-60228273D01*
X95846686Y-60482510D01*
X95793000Y-60752408D01*
X95793000Y-61027592D01*
X95846686Y-61297490D01*
X95951995Y-61551727D01*
X96104880Y-61780535D01*
X96299465Y-61975120D01*
X96528273Y-62128005D01*
X96782510Y-62233314D01*
X97052408Y-62287000D01*
X97327592Y-62287000D01*
X97597490Y-62233314D01*
X97851727Y-62128005D01*
X98080535Y-61975120D01*
X98275120Y-61780535D01*
X98278818Y-61775000D01*
X99066531Y-61775000D01*
X99110000Y-61779281D01*
X99153469Y-61775000D01*
X99153477Y-61775000D01*
X99283490Y-61762195D01*
X99450313Y-61711589D01*
X99604059Y-61629411D01*
X99738817Y-61518817D01*
X99766534Y-61485044D01*
X103589492Y-57662086D01*
X103571995Y-57688273D01*
X103466686Y-57942510D01*
X103413000Y-58212408D01*
X103413000Y-58487592D01*
X103466686Y-58757490D01*
X103571995Y-59011727D01*
X103724880Y-59240535D01*
X103919465Y-59435120D01*
X103925001Y-59438819D01*
X103925000Y-59801181D01*
X103919465Y-59804880D01*
X103724880Y-59999465D01*
X103571995Y-60228273D01*
X103466686Y-60482510D01*
X103413000Y-60752408D01*
X103413000Y-61027592D01*
X103466686Y-61297490D01*
X103571995Y-61551727D01*
X103724880Y-61780535D01*
X103919465Y-61975120D01*
X104148273Y-62128005D01*
X104402510Y-62233314D01*
X104436123Y-62240000D01*
X99537322Y-62240000D01*
X99499999Y-62236324D01*
X99462676Y-62240000D01*
X99462667Y-62240000D01*
X99351014Y-62250997D01*
X99232326Y-62287000D01*
X99207753Y-62294454D01*
X99075723Y-62365026D01*
X98992083Y-62433668D01*
X98959999Y-62459999D01*
X98936201Y-62488997D01*
X97663271Y-63761928D01*
X97050000Y-63761928D01*
X96925518Y-63774188D01*
X96805820Y-63810498D01*
X96695506Y-63869463D01*
X96598815Y-63948815D01*
X96519463Y-64045506D01*
X96460498Y-64155820D01*
X96424188Y-64275518D01*
X96411928Y-64400000D01*
X96411928Y-65600000D01*
X96424188Y-65724482D01*
X96460498Y-65844180D01*
X96519463Y-65954494D01*
X96598815Y-66051185D01*
X96695506Y-66130537D01*
X96805820Y-66189502D01*
X96925518Y-66225812D01*
X97050000Y-66238072D01*
X97687127Y-66238072D01*
X97163998Y-66761201D01*
X97135000Y-66784999D01*
X97111202Y-66813997D01*
X97111201Y-66813998D01*
X97040026Y-66900724D01*
X96969454Y-67032754D01*
X96963201Y-67053368D01*
X96958068Y-67070289D01*
X96882394Y-67132394D01*
X96778169Y-67259392D01*
X96760000Y-67293384D01*
X96760000Y-67037333D01*
X96763677Y-67000000D01*
X96758824Y-66950722D01*
X96749003Y-66851014D01*
X96705546Y-66707753D01*
X96634974Y-66575724D01*
X96540001Y-66459999D01*
X96511003Y-66436201D01*
X96035000Y-65960199D01*
X96035000Y-65898061D01*
X95995226Y-65698102D01*
X95917205Y-65509744D01*
X95803937Y-65340226D01*
X95659774Y-65196063D01*
X95490256Y-65082795D01*
X95301898Y-65004774D01*
X95101939Y-64965000D01*
X94898061Y-64965000D01*
X94698102Y-65004774D01*
X94509744Y-65082795D01*
X94340226Y-65196063D01*
X94234171Y-65302118D01*
X94205546Y-65207753D01*
X94204366Y-65205545D01*
X94134974Y-65075723D01*
X94063799Y-64988997D01*
X94040001Y-64959999D01*
X94011004Y-64936202D01*
X92926304Y-63851502D01*
X92902501Y-63822499D01*
X92843072Y-63773727D01*
X92843072Y-63700000D01*
X92827929Y-63546255D01*
X92783084Y-63398418D01*
X92710258Y-63262171D01*
X92665000Y-63207024D01*
X92665000Y-57117325D01*
X92668676Y-57080000D01*
X92665000Y-57042675D01*
X92665000Y-57042667D01*
X92654003Y-56931014D01*
X92610546Y-56787753D01*
X92539974Y-56655724D01*
X92445001Y-56539999D01*
X92416003Y-56516201D01*
X91899802Y-56000000D01*
X91993470Y-55906331D01*
X92009744Y-55917205D01*
X92198102Y-55995226D01*
X92398061Y-56035000D01*
X92601939Y-56035000D01*
X92801898Y-55995226D01*
X92990256Y-55917205D01*
X93159774Y-55803937D01*
X93303937Y-55659774D01*
X93417205Y-55490256D01*
X93495226Y-55301898D01*
X93535000Y-55101939D01*
X93535000Y-54898061D01*
X93495226Y-54698102D01*
X93417205Y-54509744D01*
X93303937Y-54340226D01*
X93159774Y-54196063D01*
X92990256Y-54082795D01*
X92801898Y-54004774D01*
X92601939Y-53965000D01*
X92398061Y-53965000D01*
X92198102Y-54004774D01*
X92009744Y-54082795D01*
X91840226Y-54196063D01*
X91797231Y-54239058D01*
X91787667Y-54240000D01*
X91676014Y-54250997D01*
X91532753Y-54294454D01*
X91400724Y-54365026D01*
X91284999Y-54459999D01*
X91261201Y-54488997D01*
X90863270Y-54886928D01*
X90625000Y-54886928D01*
X90461500Y-54903031D01*
X90304284Y-54950722D01*
X90159392Y-55028169D01*
X90032394Y-55132394D01*
X90000000Y-55171866D01*
X89967606Y-55132394D01*
X89840608Y-55028169D01*
X89695716Y-54950722D01*
X89538500Y-54903031D01*
X89375000Y-54886928D01*
X89222500Y-54886928D01*
X89222500Y-53132408D01*
X95793000Y-53132408D01*
X95793000Y-53407592D01*
X95846686Y-53677490D01*
X95951995Y-53931727D01*
X96104880Y-54160535D01*
X96299465Y-54355120D01*
X96528273Y-54508005D01*
X96782510Y-54613314D01*
X97052408Y-54667000D01*
X97327592Y-54667000D01*
X97597490Y-54613314D01*
X97851727Y-54508005D01*
X98080535Y-54355120D01*
X98275120Y-54160535D01*
X98428005Y-53931727D01*
X98533314Y-53677490D01*
X98587000Y-53407592D01*
X98587000Y-53132408D01*
X98533314Y-52862510D01*
X98428005Y-52608273D01*
X98275120Y-52379465D01*
X98080535Y-52184880D01*
X97851727Y-52031995D01*
X97597490Y-51926686D01*
X97327592Y-51873000D01*
X97052408Y-51873000D01*
X96782510Y-51926686D01*
X96528273Y-52031995D01*
X96299465Y-52184880D01*
X96104880Y-52379465D01*
X95951995Y-52608273D01*
X95846686Y-52862510D01*
X95793000Y-53132408D01*
X89222500Y-53132408D01*
X89222500Y-52453021D01*
X89343387Y-52388405D01*
X89477962Y-52277962D01*
X89588405Y-52143387D01*
X89670472Y-51989851D01*
X89697727Y-51900000D01*
X90261928Y-51900000D01*
X90274188Y-52024482D01*
X90310498Y-52144180D01*
X90369463Y-52254494D01*
X90448815Y-52351185D01*
X90545506Y-52430537D01*
X90655820Y-52489502D01*
X90775518Y-52525812D01*
X90900000Y-52538072D01*
X91189250Y-52535000D01*
X91348000Y-52376250D01*
X91348000Y-51127000D01*
X91602000Y-51127000D01*
X91602000Y-52376250D01*
X91760750Y-52535000D01*
X92050000Y-52538072D01*
X92174482Y-52525812D01*
X92294180Y-52489502D01*
X92404494Y-52430537D01*
X92501185Y-52351185D01*
X92580537Y-52254494D01*
X92639502Y-52144180D01*
X92675812Y-52024482D01*
X92688072Y-51900000D01*
X92685000Y-51285750D01*
X92526250Y-51127000D01*
X91602000Y-51127000D01*
X91348000Y-51127000D01*
X90423750Y-51127000D01*
X90265000Y-51285750D01*
X90261928Y-51900000D01*
X89697727Y-51900000D01*
X89721008Y-51823255D01*
X89738072Y-51650001D01*
X89738072Y-50349999D01*
X89721008Y-50176745D01*
X89697728Y-50100000D01*
X90261928Y-50100000D01*
X90265000Y-50714250D01*
X90423750Y-50873000D01*
X91348000Y-50873000D01*
X91348000Y-49623750D01*
X91602000Y-49623750D01*
X91602000Y-50873000D01*
X92526250Y-50873000D01*
X92685000Y-50714250D01*
X92688072Y-50100000D01*
X92675812Y-49975518D01*
X92639502Y-49855820D01*
X92580537Y-49745506D01*
X92501185Y-49648815D01*
X92404494Y-49569463D01*
X92294180Y-49510498D01*
X92174482Y-49474188D01*
X92050000Y-49461928D01*
X91760750Y-49465000D01*
X91602000Y-49623750D01*
X91348000Y-49623750D01*
X91189250Y-49465000D01*
X90900000Y-49461928D01*
X90775518Y-49474188D01*
X90655820Y-49510498D01*
X90545506Y-49569463D01*
X90448815Y-49648815D01*
X90369463Y-49745506D01*
X90310498Y-49855820D01*
X90274188Y-49975518D01*
X90261928Y-50100000D01*
X89697728Y-50100000D01*
X89670472Y-50010149D01*
X89588405Y-49856613D01*
X89477962Y-49722038D01*
X89343387Y-49611595D01*
X89222500Y-49546979D01*
X89222500Y-48374822D01*
X89226176Y-48337499D01*
X89222500Y-48300176D01*
X89222500Y-48300167D01*
X89211503Y-48188514D01*
X89170217Y-48052408D01*
X95793000Y-48052408D01*
X95793000Y-48327592D01*
X95846686Y-48597490D01*
X95951995Y-48851727D01*
X96104880Y-49080535D01*
X96299465Y-49275120D01*
X96528273Y-49428005D01*
X96782510Y-49533314D01*
X97052408Y-49587000D01*
X97327592Y-49587000D01*
X97597490Y-49533314D01*
X97851727Y-49428005D01*
X98080535Y-49275120D01*
X98275120Y-49080535D01*
X98428005Y-48851727D01*
X98533314Y-48597490D01*
X98587000Y-48327592D01*
X98587000Y-48052408D01*
X98533314Y-47782510D01*
X98428005Y-47528273D01*
X98275120Y-47299465D01*
X98080535Y-47104880D01*
X97851727Y-46951995D01*
X97597490Y-46846686D01*
X97327592Y-46793000D01*
X97052408Y-46793000D01*
X96782510Y-46846686D01*
X96528273Y-46951995D01*
X96299465Y-47104880D01*
X96104880Y-47299465D01*
X95951995Y-47528273D01*
X95846686Y-47782510D01*
X95793000Y-48052408D01*
X89170217Y-48052408D01*
X89168046Y-48045253D01*
X89097474Y-47913224D01*
X89002501Y-47797499D01*
X88973503Y-47773701D01*
X88834802Y-47635000D01*
X91994499Y-47635000D01*
X92048815Y-47701185D01*
X92145506Y-47780537D01*
X92255820Y-47839502D01*
X92375518Y-47875812D01*
X92500000Y-47888072D01*
X93500000Y-47888072D01*
X93624482Y-47875812D01*
X93744180Y-47839502D01*
X93854494Y-47780537D01*
X93951185Y-47701185D01*
X94030537Y-47604494D01*
X94089502Y-47494180D01*
X94125812Y-47374482D01*
X94138072Y-47250000D01*
X94138072Y-46500000D01*
X94125812Y-46375518D01*
X94089502Y-46255820D01*
X94030537Y-46145506D01*
X93951185Y-46048815D01*
X93854494Y-45969463D01*
X93744180Y-45910498D01*
X93624482Y-45874188D01*
X93500000Y-45861928D01*
X92500000Y-45861928D01*
X92375518Y-45874188D01*
X92255820Y-45910498D01*
X92145506Y-45969463D01*
X92048815Y-46048815D01*
X91994499Y-46115000D01*
X88005501Y-46115000D01*
X87951185Y-46048815D01*
X87854494Y-45969463D01*
X87744180Y-45910498D01*
X87624482Y-45874188D01*
X87500000Y-45861928D01*
X86500000Y-45861928D01*
X86375518Y-45874188D01*
X86255820Y-45910498D01*
X86145506Y-45969463D01*
X86048815Y-46048815D01*
X85969463Y-46145506D01*
X85910498Y-46255820D01*
X85874188Y-46375518D01*
X85861928Y-46500000D01*
X85861928Y-47250000D01*
X85874188Y-47374482D01*
X85910498Y-47494180D01*
X85969463Y-47604494D01*
X86048815Y-47701185D01*
X86145506Y-47780537D01*
X86255820Y-47839502D01*
X86375518Y-47875812D01*
X86500000Y-47888072D01*
X86938271Y-47888072D01*
X87702501Y-48652303D01*
X87702501Y-49614970D01*
X87572038Y-49722038D01*
X87461595Y-49856613D01*
X87379528Y-50010149D01*
X87328992Y-50176745D01*
X87311928Y-50349999D01*
X87311928Y-51650001D01*
X87328992Y-51823255D01*
X87379528Y-51989851D01*
X87461595Y-52143387D01*
X87572038Y-52277962D01*
X87702500Y-52385030D01*
X87702501Y-55250168D01*
X87698824Y-55287500D01*
X87702501Y-55324833D01*
X87713498Y-55436486D01*
X87720631Y-55460000D01*
X87756954Y-55579746D01*
X87827526Y-55711776D01*
X87865259Y-55757753D01*
X87922500Y-55827501D01*
X87951498Y-55851299D01*
X88012699Y-55912500D01*
X87583998Y-56341201D01*
X87555000Y-56364999D01*
X87531202Y-56393997D01*
X87531201Y-56393998D01*
X87460026Y-56480724D01*
X87389454Y-56612754D01*
X87367547Y-56684974D01*
X87345998Y-56756014D01*
X87339539Y-56821589D01*
X87331324Y-56905000D01*
X87335001Y-56942332D01*
X87335000Y-63207024D01*
X87289742Y-63262171D01*
X87216916Y-63398418D01*
X87172071Y-63546255D01*
X87156928Y-63700000D01*
X87156928Y-63833258D01*
X87050723Y-63890026D01*
X86979089Y-63948815D01*
X86934999Y-63984999D01*
X86911201Y-64013997D01*
X84413271Y-66511928D01*
X83150000Y-66511928D01*
X83025518Y-66524188D01*
X82905820Y-66560498D01*
X82795506Y-66619463D01*
X82698815Y-66698815D01*
X82619463Y-66795506D01*
X82560498Y-66905820D01*
X82536034Y-66986466D01*
X82460269Y-66902412D01*
X82226920Y-66728359D01*
X81964099Y-66603175D01*
X81816890Y-66558524D01*
X81587000Y-66679845D01*
X81587000Y-67873000D01*
X81607000Y-67873000D01*
X81607000Y-68127000D01*
X81587000Y-68127000D01*
X81587000Y-69320155D01*
X81816890Y-69441476D01*
X81964099Y-69396825D01*
X82226920Y-69271641D01*
X82460269Y-69097588D01*
X82536034Y-69013534D01*
X82560498Y-69094180D01*
X82619463Y-69204494D01*
X82698815Y-69301185D01*
X82795506Y-69380537D01*
X82905820Y-69439502D01*
X83025518Y-69475812D01*
X83150000Y-69488072D01*
X84850000Y-69488072D01*
X84974482Y-69475812D01*
X85094180Y-69439502D01*
X85204494Y-69380537D01*
X85301185Y-69301185D01*
X85380537Y-69204494D01*
X85439502Y-69094180D01*
X85475812Y-68974482D01*
X85488072Y-68850000D01*
X85488072Y-67586729D01*
X87445311Y-65629491D01*
X87507171Y-65680258D01*
X87643418Y-65753084D01*
X87761928Y-65789033D01*
X87761928Y-68210967D01*
X87643418Y-68246916D01*
X87507171Y-68319742D01*
X87387749Y-68417749D01*
X87289742Y-68537171D01*
X87216916Y-68673418D01*
X87172071Y-68821255D01*
X87156928Y-68975000D01*
X87156928Y-68975938D01*
X87101939Y-68965000D01*
X86898061Y-68965000D01*
X86698102Y-69004774D01*
X86509744Y-69082795D01*
X86340226Y-69196063D01*
X86196063Y-69340226D01*
X86082795Y-69509744D01*
X86004774Y-69698102D01*
X85965000Y-69898061D01*
X85965000Y-70065010D01*
X75139812Y-70065010D01*
X74600000Y-69525199D01*
X74600000Y-69278178D01*
X74786632Y-69153475D01*
X74993475Y-68946632D01*
X75110000Y-68772240D01*
X75226525Y-68946632D01*
X75433368Y-69153475D01*
X75676589Y-69315990D01*
X75946842Y-69427932D01*
X76233740Y-69485000D01*
X76526260Y-69485000D01*
X76813158Y-69427932D01*
X77083411Y-69315990D01*
X77326632Y-69153475D01*
X77533475Y-68946632D01*
X77650000Y-68772240D01*
X77766525Y-68946632D01*
X77973368Y-69153475D01*
X78216589Y-69315990D01*
X78486842Y-69427932D01*
X78773740Y-69485000D01*
X79066260Y-69485000D01*
X79353158Y-69427932D01*
X79623411Y-69315990D01*
X79866632Y-69153475D01*
X80073475Y-68946632D01*
X80195195Y-68764466D01*
X80264822Y-68881355D01*
X80459731Y-69097588D01*
X80693080Y-69271641D01*
X80955901Y-69396825D01*
X81103110Y-69441476D01*
X81333000Y-69320155D01*
X81333000Y-68127000D01*
X81313000Y-68127000D01*
X81313000Y-67873000D01*
X81333000Y-67873000D01*
X81333000Y-66679845D01*
X81103110Y-66558524D01*
X80955901Y-66603175D01*
X80693080Y-66728359D01*
X80459731Y-66902412D01*
X80264822Y-67118645D01*
X80195195Y-67235534D01*
X80073475Y-67053368D01*
X79866632Y-66846525D01*
X79623411Y-66684010D01*
X79353158Y-66572068D01*
X79066260Y-66515000D01*
X78773740Y-66515000D01*
X78486842Y-66572068D01*
X78216589Y-66684010D01*
X77973368Y-66846525D01*
X77766525Y-67053368D01*
X77650000Y-67227760D01*
X77533475Y-67053368D01*
X77326632Y-66846525D01*
X77083411Y-66684010D01*
X76813158Y-66572068D01*
X76526260Y-66515000D01*
X76233740Y-66515000D01*
X75946842Y-66572068D01*
X75676589Y-66684010D01*
X75433368Y-66846525D01*
X75226525Y-67053368D01*
X75110000Y-67227760D01*
X74993475Y-67053368D01*
X74786632Y-66846525D01*
X74543411Y-66684010D01*
X74273158Y-66572068D01*
X73986260Y-66515000D01*
X73693740Y-66515000D01*
X73406842Y-66572068D01*
X73136589Y-66684010D01*
X72893368Y-66846525D01*
X72686525Y-67053368D01*
X72524010Y-67296589D01*
X72412068Y-67566842D01*
X72355000Y-67853740D01*
X72355000Y-68146260D01*
X72412068Y-68433158D01*
X72524010Y-68703411D01*
X72686525Y-68946632D01*
X72893368Y-69153475D01*
X73080001Y-69278179D01*
X73080001Y-69802668D01*
X73076324Y-69840000D01*
X73080001Y-69877333D01*
X73090998Y-69988986D01*
X73097677Y-70011003D01*
X73134454Y-70132246D01*
X73205026Y-70264276D01*
X73269431Y-70342753D01*
X73300000Y-70380001D01*
X73328998Y-70403799D01*
X74261211Y-71336013D01*
X74285009Y-71365011D01*
X74314007Y-71388809D01*
X74400734Y-71459984D01*
X74532763Y-71530556D01*
X74676024Y-71574013D01*
X74825010Y-71588687D01*
X74862343Y-71585010D01*
X88637542Y-71585010D01*
X88643360Y-71604188D01*
X88659454Y-71657246D01*
X88730026Y-71789276D01*
X88788617Y-71860668D01*
X88825000Y-71905001D01*
X88853998Y-71928799D01*
X89436200Y-72511002D01*
X89459999Y-72540001D01*
X89488997Y-72563799D01*
X89575724Y-72634974D01*
X89707753Y-72705546D01*
X89851014Y-72749003D01*
X90000000Y-72763677D01*
X90037333Y-72760000D01*
X93962678Y-72760000D01*
X94000000Y-72763676D01*
X94037322Y-72760000D01*
X94037333Y-72760000D01*
X94148986Y-72749003D01*
X94292247Y-72705546D01*
X94424276Y-72634974D01*
X94540001Y-72540001D01*
X94563804Y-72510997D01*
X95583496Y-71491305D01*
X95696063Y-71659774D01*
X95840226Y-71803937D01*
X96009744Y-71917205D01*
X96198102Y-71995226D01*
X96398061Y-72035000D01*
X96601939Y-72035000D01*
X96801898Y-71995226D01*
X96990256Y-71917205D01*
X97159774Y-71803937D01*
X97303937Y-71659774D01*
X97417205Y-71490256D01*
X97495226Y-71301898D01*
X97532786Y-71113072D01*
X97875000Y-71113072D01*
X98038500Y-71096969D01*
X98195716Y-71049278D01*
X98340608Y-70971831D01*
X98467606Y-70867606D01*
X98500000Y-70828134D01*
X98532394Y-70867606D01*
X98565000Y-70894365D01*
X98565001Y-72287668D01*
X98561324Y-72325000D01*
X98565001Y-72362333D01*
X98575998Y-72473986D01*
X98587227Y-72511003D01*
X98619454Y-72617246D01*
X98690026Y-72749276D01*
X98734886Y-72803937D01*
X98785000Y-72865001D01*
X98813998Y-72888799D01*
X101925198Y-76000000D01*
X100628439Y-77296760D01*
X100500724Y-77365026D01*
X100384999Y-77459999D01*
X100361201Y-77488997D01*
X99987224Y-77862974D01*
X99851250Y-77727000D01*
X97202000Y-77727000D01*
X97202000Y-77747000D01*
X96948000Y-77747000D01*
X96948000Y-77727000D01*
X94298750Y-77727000D01*
X94140000Y-77885750D01*
X94136928Y-78150000D01*
X94149188Y-78274482D01*
X94185498Y-78394180D01*
X94215335Y-78450000D01*
X94185498Y-78505820D01*
X94149188Y-78625518D01*
X94136928Y-78750000D01*
X94136928Y-79850000D01*
X94149188Y-79974482D01*
X94185498Y-80094180D01*
X94215335Y-80150000D01*
X94185498Y-80205820D01*
X94149188Y-80325518D01*
X94136928Y-80450000D01*
X94140000Y-80714250D01*
X94298750Y-80873000D01*
X96948000Y-80873000D01*
X96948000Y-80853000D01*
X97202000Y-80853000D01*
X97202000Y-80873000D01*
X99851250Y-80873000D01*
X100010000Y-80714250D01*
X100013072Y-80450000D01*
X100000812Y-80325518D01*
X99964502Y-80205820D01*
X99934665Y-80150000D01*
X99964502Y-80094180D01*
X100000812Y-79974482D01*
X100002226Y-79960123D01*
X100049276Y-79934974D01*
X100165001Y-79840001D01*
X100188804Y-79810997D01*
X101296563Y-78703239D01*
X101424276Y-78634974D01*
X101540001Y-78540001D01*
X101563804Y-78510997D01*
X103314802Y-76760000D01*
X106685199Y-76760000D01*
X111911928Y-81986730D01*
X111911928Y-84200000D01*
X111924188Y-84324482D01*
X111960498Y-84444180D01*
X112019463Y-84554494D01*
X112098815Y-84651185D01*
X112195506Y-84730537D01*
X112305820Y-84789502D01*
X112425518Y-84825812D01*
X112550000Y-84838072D01*
X114527501Y-84838072D01*
X114527500Y-95718930D01*
X114410150Y-95754528D01*
X114256614Y-95836595D01*
X114122038Y-95947038D01*
X114011595Y-96081614D01*
X113929528Y-96235150D01*
X113878992Y-96401746D01*
X113861928Y-96575000D01*
X113861928Y-98425000D01*
X113878992Y-98598254D01*
X113929528Y-98764850D01*
X114011595Y-98918386D01*
X114122038Y-99052962D01*
X114256614Y-99163405D01*
X114410150Y-99245472D01*
X114576746Y-99296008D01*
X114750000Y-99313072D01*
X116325000Y-99313072D01*
X116498254Y-99296008D01*
X116664850Y-99245472D01*
X116818386Y-99163405D01*
X116952962Y-99052962D01*
X117063405Y-98918386D01*
X117145472Y-98764850D01*
X117172727Y-98675000D01*
X118786928Y-98675000D01*
X118799188Y-98799482D01*
X118835498Y-98919180D01*
X118894463Y-99029494D01*
X118973815Y-99126185D01*
X119070506Y-99205537D01*
X119180820Y-99264502D01*
X119300518Y-99300812D01*
X119425000Y-99313072D01*
X120176750Y-99310000D01*
X120335500Y-99151250D01*
X120335500Y-97627000D01*
X120589500Y-97627000D01*
X120589500Y-99151250D01*
X120748250Y-99310000D01*
X121500000Y-99313072D01*
X121624482Y-99300812D01*
X121744180Y-99264502D01*
X121854494Y-99205537D01*
X121951185Y-99126185D01*
X122030537Y-99029494D01*
X122089502Y-98919180D01*
X122125812Y-98799482D01*
X122138072Y-98675000D01*
X122135000Y-97785750D01*
X121976250Y-97627000D01*
X120589500Y-97627000D01*
X120335500Y-97627000D01*
X118948750Y-97627000D01*
X118790000Y-97785750D01*
X118786928Y-98675000D01*
X117172727Y-98675000D01*
X117196008Y-98598254D01*
X117213072Y-98425000D01*
X117213072Y-96575000D01*
X117196008Y-96401746D01*
X117172728Y-96325000D01*
X118786928Y-96325000D01*
X118790000Y-97214250D01*
X118948750Y-97373000D01*
X120335500Y-97373000D01*
X120335500Y-95848750D01*
X120589500Y-95848750D01*
X120589500Y-97373000D01*
X121976250Y-97373000D01*
X122135000Y-97214250D01*
X122136313Y-96834042D01*
X124315000Y-96834042D01*
X124315000Y-97165958D01*
X124379754Y-97491496D01*
X124506772Y-97798147D01*
X124691175Y-98074125D01*
X124925875Y-98308825D01*
X125201853Y-98493228D01*
X125508504Y-98620246D01*
X125834042Y-98685000D01*
X126165958Y-98685000D01*
X126491496Y-98620246D01*
X126798147Y-98493228D01*
X127074125Y-98308825D01*
X127308825Y-98074125D01*
X127493228Y-97798147D01*
X127620246Y-97491496D01*
X127685000Y-97165958D01*
X127685000Y-96834042D01*
X127620246Y-96508504D01*
X127493228Y-96201853D01*
X127308825Y-95925875D01*
X127074125Y-95691175D01*
X126798147Y-95506772D01*
X126491496Y-95379754D01*
X126165958Y-95315000D01*
X125834042Y-95315000D01*
X125508504Y-95379754D01*
X125201853Y-95506772D01*
X124925875Y-95691175D01*
X124691175Y-95925875D01*
X124506772Y-96201853D01*
X124379754Y-96508504D01*
X124315000Y-96834042D01*
X122136313Y-96834042D01*
X122138072Y-96325000D01*
X122125812Y-96200518D01*
X122089502Y-96080820D01*
X122030537Y-95970506D01*
X121951185Y-95873815D01*
X121854494Y-95794463D01*
X121744180Y-95735498D01*
X121624482Y-95699188D01*
X121500000Y-95686928D01*
X120748250Y-95690000D01*
X120589500Y-95848750D01*
X120335500Y-95848750D01*
X120176750Y-95690000D01*
X119425000Y-95686928D01*
X119300518Y-95699188D01*
X119180820Y-95735498D01*
X119070506Y-95794463D01*
X118973815Y-95873815D01*
X118894463Y-95970506D01*
X118835498Y-96080820D01*
X118799188Y-96200518D01*
X118786928Y-96325000D01*
X117172728Y-96325000D01*
X117145472Y-96235150D01*
X117063405Y-96081614D01*
X116952962Y-95947038D01*
X116818386Y-95836595D01*
X116664850Y-95754528D01*
X116547500Y-95718931D01*
X116547500Y-90051881D01*
X118090000Y-90051881D01*
X118090000Y-90428119D01*
X118163400Y-90797127D01*
X118307380Y-91144724D01*
X118516406Y-91457554D01*
X118782446Y-91723594D01*
X119095276Y-91932620D01*
X119442873Y-92076600D01*
X119811881Y-92150000D01*
X120188119Y-92150000D01*
X120557127Y-92076600D01*
X120904724Y-91932620D01*
X121217554Y-91723594D01*
X121483594Y-91457554D01*
X121692620Y-91144724D01*
X121836600Y-90797127D01*
X121910000Y-90428119D01*
X121910000Y-90051881D01*
X121836600Y-89682873D01*
X121692620Y-89335276D01*
X121483594Y-89022446D01*
X121217554Y-88756406D01*
X120904724Y-88547380D01*
X120557127Y-88403400D01*
X120188119Y-88330000D01*
X119811881Y-88330000D01*
X119442873Y-88403400D01*
X119095276Y-88547380D01*
X118782446Y-88756406D01*
X118516406Y-89022446D01*
X118307380Y-89335276D01*
X118163400Y-89682873D01*
X118090000Y-90051881D01*
X116547500Y-90051881D01*
X116547500Y-84971881D01*
X118090000Y-84971881D01*
X118090000Y-85348119D01*
X118163400Y-85717127D01*
X118307380Y-86064724D01*
X118516406Y-86377554D01*
X118782446Y-86643594D01*
X119095276Y-86852620D01*
X119442873Y-86996600D01*
X119811881Y-87070000D01*
X120188119Y-87070000D01*
X120557127Y-86996600D01*
X120904724Y-86852620D01*
X121217554Y-86643594D01*
X121483594Y-86377554D01*
X121692620Y-86064724D01*
X121836600Y-85717127D01*
X121910000Y-85348119D01*
X121910000Y-84971881D01*
X121836600Y-84602873D01*
X121692620Y-84255276D01*
X121483594Y-83942446D01*
X121217554Y-83676406D01*
X120904724Y-83467380D01*
X120557127Y-83323400D01*
X120188119Y-83250000D01*
X119811881Y-83250000D01*
X119442873Y-83323400D01*
X119095276Y-83467380D01*
X118782446Y-83676406D01*
X118516406Y-83942446D01*
X118307380Y-84255276D01*
X118163400Y-84602873D01*
X118090000Y-84971881D01*
X116547500Y-84971881D01*
X116547500Y-83087104D01*
X116552386Y-83037499D01*
X116547500Y-82987892D01*
X116532885Y-82839506D01*
X116475132Y-82649120D01*
X116381347Y-82473660D01*
X116255133Y-82319867D01*
X116216594Y-82288239D01*
X116088072Y-82159717D01*
X116088072Y-80373055D01*
X116118576Y-80272498D01*
X116140490Y-80049999D01*
X116124917Y-79891881D01*
X118090000Y-79891881D01*
X118090000Y-80268119D01*
X118163400Y-80637127D01*
X118307380Y-80984724D01*
X118516406Y-81297554D01*
X118782446Y-81563594D01*
X119095276Y-81772620D01*
X119442873Y-81916600D01*
X119811881Y-81990000D01*
X120188119Y-81990000D01*
X120557127Y-81916600D01*
X120904724Y-81772620D01*
X121217554Y-81563594D01*
X121483594Y-81297554D01*
X121692620Y-80984724D01*
X121836600Y-80637127D01*
X121910000Y-80268119D01*
X121910000Y-79891881D01*
X121836600Y-79522873D01*
X121692620Y-79175276D01*
X121483594Y-78862446D01*
X121217554Y-78596406D01*
X120904724Y-78387380D01*
X120557127Y-78243400D01*
X120188119Y-78170000D01*
X119811881Y-78170000D01*
X119442873Y-78243400D01*
X119095276Y-78387380D01*
X118782446Y-78596406D01*
X118516406Y-78862446D01*
X118307380Y-79175276D01*
X118163400Y-79522873D01*
X118090000Y-79891881D01*
X116124917Y-79891881D01*
X116118576Y-79827500D01*
X116088072Y-79726944D01*
X116088072Y-78800000D01*
X116075812Y-78675518D01*
X116039502Y-78555820D01*
X115980537Y-78445506D01*
X115901185Y-78348815D01*
X115804494Y-78269463D01*
X115694180Y-78210498D01*
X115574482Y-78174188D01*
X115450000Y-78161928D01*
X115266427Y-78161928D01*
X117679100Y-75749256D01*
X117717633Y-75717633D01*
X117843847Y-75563840D01*
X117937632Y-75388380D01*
X117966124Y-75294454D01*
X117995385Y-75197995D01*
X118014886Y-75000000D01*
X118010000Y-74950392D01*
X118010000Y-73725000D01*
X118086928Y-73725000D01*
X118086928Y-76275000D01*
X118099188Y-76399482D01*
X118135498Y-76519180D01*
X118194463Y-76629494D01*
X118273815Y-76726185D01*
X118370506Y-76805537D01*
X118480820Y-76864502D01*
X118600518Y-76900812D01*
X118725000Y-76913072D01*
X121275000Y-76913072D01*
X121399482Y-76900812D01*
X121519180Y-76864502D01*
X121629494Y-76805537D01*
X121726185Y-76726185D01*
X121805537Y-76629494D01*
X121864502Y-76519180D01*
X121900812Y-76399482D01*
X121913072Y-76275000D01*
X121913072Y-73725000D01*
X121900812Y-73600518D01*
X121864502Y-73480820D01*
X121805537Y-73370506D01*
X121726185Y-73273815D01*
X121629494Y-73194463D01*
X121519180Y-73135498D01*
X121399482Y-73099188D01*
X121275000Y-73086928D01*
X118725000Y-73086928D01*
X118600518Y-73099188D01*
X118480820Y-73135498D01*
X118370506Y-73194463D01*
X118273815Y-73273815D01*
X118194463Y-73370506D01*
X118135498Y-73480820D01*
X118099188Y-73600518D01*
X118086928Y-73725000D01*
X118010000Y-73725000D01*
X118010000Y-72135000D01*
X122944249Y-72135000D01*
X123000000Y-72140491D01*
X123055751Y-72135000D01*
X123055752Y-72135000D01*
X123222499Y-72118577D01*
X123436447Y-72053676D01*
X123633623Y-71948284D01*
X123806449Y-71806449D01*
X123841996Y-71763135D01*
X125303140Y-70301991D01*
X125346449Y-70266449D01*
X125488284Y-70093623D01*
X125593676Y-69896447D01*
X125658577Y-69682499D01*
X125675000Y-69515752D01*
X125675000Y-69515751D01*
X125680491Y-69460000D01*
X125675000Y-69404248D01*
X125675000Y-68965107D01*
X125693475Y-68946632D01*
X125810000Y-68772240D01*
X125926525Y-68946632D01*
X126133368Y-69153475D01*
X126376589Y-69315990D01*
X126646842Y-69427932D01*
X126933740Y-69485000D01*
X127226260Y-69485000D01*
X127513158Y-69427932D01*
X127783411Y-69315990D01*
X128026632Y-69153475D01*
X128233475Y-68946632D01*
X128395990Y-68703411D01*
X128507932Y-68433158D01*
X128565000Y-68146260D01*
X128565000Y-67853740D01*
X128507932Y-67566842D01*
X128395990Y-67296589D01*
X128233475Y-67053368D01*
X128026632Y-66846525D01*
X127840000Y-66721822D01*
X127840000Y-66117325D01*
X127843676Y-66080000D01*
X127840000Y-66042675D01*
X127840000Y-66042667D01*
X127829003Y-65931014D01*
X127785546Y-65787753D01*
X127714974Y-65655724D01*
X127620001Y-65539999D01*
X127591003Y-65516201D01*
X126563803Y-64489002D01*
X126563799Y-64488997D01*
X125563804Y-63489002D01*
X125540001Y-63459999D01*
X125424276Y-63365026D01*
X125292247Y-63294454D01*
X125148986Y-63250997D01*
X125037333Y-63240000D01*
X125037322Y-63240000D01*
X125000000Y-63236324D01*
X124962678Y-63240000D01*
X118760000Y-63240000D01*
X118760000Y-63037333D01*
X118763677Y-63000000D01*
X118749003Y-62851014D01*
X118705546Y-62707753D01*
X118634974Y-62575724D01*
X118563799Y-62488997D01*
X118540001Y-62459999D01*
X118511003Y-62436201D01*
X118035000Y-61960199D01*
X118035000Y-61898061D01*
X117995226Y-61698102D01*
X117917205Y-61509744D01*
X117803937Y-61340226D01*
X117659774Y-61196063D01*
X117490256Y-61082795D01*
X117301898Y-61004774D01*
X117136533Y-60971881D01*
X118090000Y-60971881D01*
X118090000Y-61348119D01*
X118163400Y-61717127D01*
X118307380Y-62064724D01*
X118516406Y-62377554D01*
X118782446Y-62643594D01*
X119095276Y-62852620D01*
X119442873Y-62996600D01*
X119811881Y-63070000D01*
X120188119Y-63070000D01*
X120557127Y-62996600D01*
X120904724Y-62852620D01*
X121217554Y-62643594D01*
X121483594Y-62377554D01*
X121692620Y-62064724D01*
X121836600Y-61717127D01*
X121910000Y-61348119D01*
X121910000Y-60971881D01*
X121836600Y-60602873D01*
X121692620Y-60255276D01*
X121483594Y-59942446D01*
X121217554Y-59676406D01*
X120904724Y-59467380D01*
X120557127Y-59323400D01*
X120188119Y-59250000D01*
X119811881Y-59250000D01*
X119442873Y-59323400D01*
X119095276Y-59467380D01*
X118782446Y-59676406D01*
X118516406Y-59942446D01*
X118307380Y-60255276D01*
X118163400Y-60602873D01*
X118090000Y-60971881D01*
X117136533Y-60971881D01*
X117101939Y-60965000D01*
X116898061Y-60965000D01*
X116698102Y-61004774D01*
X116509744Y-61082795D01*
X116340226Y-61196063D01*
X116196063Y-61340226D01*
X116082795Y-61509744D01*
X116004774Y-61698102D01*
X115995633Y-61744055D01*
X115885000Y-61633422D01*
X115885000Y-58667683D01*
X115954494Y-58630537D01*
X116051185Y-58551185D01*
X116130537Y-58454494D01*
X116189502Y-58344180D01*
X116225812Y-58224482D01*
X116238072Y-58100000D01*
X116238072Y-58013506D01*
X117595049Y-56656530D01*
X117628817Y-56628817D01*
X117657244Y-56594180D01*
X117725506Y-56511002D01*
X117739411Y-56494059D01*
X117821589Y-56340313D01*
X117872195Y-56173490D01*
X117885000Y-56043477D01*
X117885000Y-56043467D01*
X117889281Y-56000001D01*
X117885000Y-55956535D01*
X117885000Y-55891881D01*
X118090000Y-55891881D01*
X118090000Y-56268119D01*
X118163400Y-56637127D01*
X118307380Y-56984724D01*
X118516406Y-57297554D01*
X118782446Y-57563594D01*
X119095276Y-57772620D01*
X119442873Y-57916600D01*
X119811881Y-57990000D01*
X120188119Y-57990000D01*
X120557127Y-57916600D01*
X120904724Y-57772620D01*
X121217554Y-57563594D01*
X121483594Y-57297554D01*
X121692620Y-56984724D01*
X121836600Y-56637127D01*
X121910000Y-56268119D01*
X121910000Y-55891881D01*
X121836600Y-55522873D01*
X121692620Y-55175276D01*
X121483594Y-54862446D01*
X121217554Y-54596406D01*
X120904724Y-54387380D01*
X120557127Y-54243400D01*
X120188119Y-54170000D01*
X119811881Y-54170000D01*
X119442873Y-54243400D01*
X119095276Y-54387380D01*
X118782446Y-54596406D01*
X118516406Y-54862446D01*
X118307380Y-55175276D01*
X118163400Y-55522873D01*
X118090000Y-55891881D01*
X117885000Y-55891881D01*
X117885000Y-49725000D01*
X118086928Y-49725000D01*
X118086928Y-52275000D01*
X118099188Y-52399482D01*
X118135498Y-52519180D01*
X118194463Y-52629494D01*
X118273815Y-52726185D01*
X118370506Y-52805537D01*
X118480820Y-52864502D01*
X118600518Y-52900812D01*
X118725000Y-52913072D01*
X121275000Y-52913072D01*
X121399482Y-52900812D01*
X121519180Y-52864502D01*
X121629494Y-52805537D01*
X121726185Y-52726185D01*
X121805537Y-52629494D01*
X121864502Y-52519180D01*
X121900812Y-52399482D01*
X121913072Y-52275000D01*
X121913072Y-49725000D01*
X121900812Y-49600518D01*
X121864502Y-49480820D01*
X121805537Y-49370506D01*
X121726185Y-49273815D01*
X121629494Y-49194463D01*
X121519180Y-49135498D01*
X121399482Y-49099188D01*
X121275000Y-49086928D01*
X118725000Y-49086928D01*
X118600518Y-49099188D01*
X118480820Y-49135498D01*
X118370506Y-49194463D01*
X118273815Y-49273815D01*
X118194463Y-49370506D01*
X118135498Y-49480820D01*
X118099188Y-49600518D01*
X118086928Y-49725000D01*
X117885000Y-49725000D01*
X117885000Y-47043465D01*
X117889281Y-46999999D01*
X117885000Y-46956533D01*
X117885000Y-46956523D01*
X117872195Y-46826510D01*
X117821589Y-46659687D01*
X117739411Y-46505941D01*
X117628817Y-46371183D01*
X117595050Y-46343471D01*
X116306534Y-45054956D01*
X116278817Y-45021183D01*
X116181944Y-44941681D01*
X116130537Y-44845506D01*
X116051185Y-44748815D01*
X115954494Y-44669463D01*
X115844180Y-44610498D01*
X115724482Y-44574188D01*
X115600000Y-44561928D01*
X114400000Y-44561928D01*
X114275518Y-44574188D01*
X114155820Y-44610498D01*
X114045506Y-44669463D01*
X113948815Y-44748815D01*
X113869463Y-44845506D01*
X113810498Y-44955820D01*
X113774188Y-45075518D01*
X113761928Y-45200000D01*
X113761928Y-46100000D01*
X113774188Y-46224482D01*
X113810498Y-46344180D01*
X113869463Y-46454494D01*
X113948815Y-46551185D01*
X114045506Y-46630537D01*
X114155820Y-46689502D01*
X114275518Y-46725812D01*
X114400000Y-46738072D01*
X115486494Y-46738072D01*
X116115000Y-47366579D01*
X116115001Y-53526575D01*
X116051185Y-53448815D01*
X115954494Y-53369463D01*
X115844180Y-53310498D01*
X115724482Y-53274188D01*
X115600000Y-53261928D01*
X114400000Y-53261928D01*
X114275518Y-53274188D01*
X114155820Y-53310498D01*
X114045506Y-53369463D01*
X113948815Y-53448815D01*
X113869463Y-53545506D01*
X113810498Y-53655820D01*
X113774188Y-53775518D01*
X113761928Y-53900000D01*
X113761928Y-54115000D01*
X112885000Y-54115000D01*
X112885000Y-54043469D01*
X112889281Y-54000000D01*
X112885000Y-53956531D01*
X112885000Y-53956523D01*
X112872195Y-53826510D01*
X112848683Y-53749002D01*
X112821589Y-53659686D01*
X112739411Y-53505941D01*
X112656532Y-53404953D01*
X112656530Y-53404951D01*
X112628817Y-53371183D01*
X112595050Y-53343471D01*
X111656534Y-52404956D01*
X111628817Y-52371183D01*
X111494059Y-52260589D01*
X111340313Y-52178411D01*
X111173490Y-52127805D01*
X111043477Y-52115000D01*
X111043469Y-52115000D01*
X111000000Y-52110719D01*
X110956531Y-52115000D01*
X109043469Y-52115000D01*
X109000000Y-52110719D01*
X108956531Y-52115000D01*
X108956523Y-52115000D01*
X108826510Y-52127805D01*
X108659686Y-52178411D01*
X108505941Y-52260589D01*
X108404953Y-52343468D01*
X108404951Y-52343470D01*
X108371183Y-52371183D01*
X108343470Y-52404951D01*
X105633422Y-55115000D01*
X104043465Y-55115000D01*
X103999999Y-55110719D01*
X103956533Y-55115000D01*
X103956523Y-55115000D01*
X103826510Y-55127805D01*
X103659687Y-55178411D01*
X103505941Y-55260589D01*
X103505939Y-55260590D01*
X103505940Y-55260590D01*
X103404953Y-55343468D01*
X103404951Y-55343470D01*
X103371183Y-55371183D01*
X103343470Y-55404951D01*
X102762309Y-55986112D01*
X102760000Y-55962667D01*
X102760000Y-53314801D01*
X102942393Y-53132408D01*
X103413000Y-53132408D01*
X103413000Y-53407592D01*
X103466686Y-53677490D01*
X103571995Y-53931727D01*
X103724880Y-54160535D01*
X103919465Y-54355120D01*
X104148273Y-54508005D01*
X104402510Y-54613314D01*
X104672408Y-54667000D01*
X104947592Y-54667000D01*
X105217490Y-54613314D01*
X105471727Y-54508005D01*
X105700535Y-54355120D01*
X105895120Y-54160535D01*
X106048005Y-53931727D01*
X106153314Y-53677490D01*
X106207000Y-53407592D01*
X106207000Y-53132408D01*
X106153314Y-52862510D01*
X106048005Y-52608273D01*
X105895120Y-52379465D01*
X105700535Y-52184880D01*
X105471727Y-52031995D01*
X105217490Y-51926686D01*
X104947592Y-51873000D01*
X104672408Y-51873000D01*
X104402510Y-51926686D01*
X104148273Y-52031995D01*
X103919465Y-52184880D01*
X103724880Y-52379465D01*
X103571995Y-52608273D01*
X103466686Y-52862510D01*
X103413000Y-53132408D01*
X102942393Y-53132408D01*
X104314802Y-51760000D01*
X109962678Y-51760000D01*
X110000000Y-51763676D01*
X110037322Y-51760000D01*
X110037333Y-51760000D01*
X110148986Y-51749003D01*
X110292247Y-51705546D01*
X110424276Y-51634974D01*
X110540001Y-51540001D01*
X110563804Y-51510997D01*
X112511003Y-49563799D01*
X112540001Y-49540001D01*
X112590070Y-49478992D01*
X112634974Y-49424277D01*
X112705546Y-49292247D01*
X112711137Y-49273815D01*
X112749003Y-49148986D01*
X112760000Y-49037333D01*
X112760000Y-49037324D01*
X112763676Y-49000001D01*
X112760000Y-48962678D01*
X112760000Y-47894365D01*
X112792606Y-47867606D01*
X112896831Y-47740608D01*
X112974278Y-47595716D01*
X113021969Y-47438500D01*
X113038072Y-47275000D01*
X113038072Y-46725000D01*
X113021969Y-46561500D01*
X112974278Y-46404284D01*
X112896831Y-46259392D01*
X112792606Y-46132394D01*
X112665608Y-46028169D01*
X112520716Y-45950722D01*
X112363500Y-45903031D01*
X112200000Y-45886928D01*
X111800000Y-45886928D01*
X111636500Y-45903031D01*
X111479284Y-45950722D01*
X111334392Y-46028169D01*
X111207394Y-46132394D01*
X111175000Y-46171866D01*
X111142606Y-46132394D01*
X111015608Y-46028169D01*
X110870716Y-45950722D01*
X110713500Y-45903031D01*
X110550000Y-45886928D01*
X110150000Y-45886928D01*
X109986500Y-45903031D01*
X109829284Y-45950722D01*
X109684392Y-46028169D01*
X109557394Y-46132394D01*
X109469084Y-46240000D01*
X109314802Y-46240000D01*
X107760000Y-44685199D01*
X107760000Y-44350000D01*
X108911928Y-44350000D01*
X108924188Y-44474482D01*
X108960498Y-44594180D01*
X109019463Y-44704494D01*
X109098815Y-44801185D01*
X109195506Y-44880537D01*
X109305820Y-44939502D01*
X109425518Y-44975812D01*
X109550000Y-44988072D01*
X109714250Y-44985000D01*
X109873000Y-44826250D01*
X109873000Y-44077000D01*
X110127000Y-44077000D01*
X110127000Y-44826250D01*
X110285750Y-44985000D01*
X110450000Y-44988072D01*
X110574482Y-44975812D01*
X110694180Y-44939502D01*
X110804494Y-44880537D01*
X110901185Y-44801185D01*
X110980537Y-44704494D01*
X111039502Y-44594180D01*
X111075812Y-44474482D01*
X111088072Y-44350000D01*
X111085000Y-44235750D01*
X110926250Y-44077000D01*
X110127000Y-44077000D01*
X109873000Y-44077000D01*
X109073750Y-44077000D01*
X108915000Y-44235750D01*
X108911928Y-44350000D01*
X107760000Y-44350000D01*
X107760000Y-43314801D01*
X108264802Y-42810000D01*
X109023982Y-42810000D01*
X109098815Y-42901185D01*
X109195506Y-42980537D01*
X109231918Y-43000000D01*
X109195506Y-43019463D01*
X109098815Y-43098815D01*
X109019463Y-43195506D01*
X108960498Y-43305820D01*
X108924188Y-43425518D01*
X108911928Y-43550000D01*
X108915000Y-43664250D01*
X109073750Y-43823000D01*
X109873000Y-43823000D01*
X109873000Y-43803000D01*
X110127000Y-43803000D01*
X110127000Y-43823000D01*
X110926250Y-43823000D01*
X111010857Y-43738393D01*
X111019463Y-43754494D01*
X111098815Y-43851185D01*
X111195506Y-43930537D01*
X111305820Y-43989502D01*
X111425518Y-44025812D01*
X111550000Y-44038072D01*
X112450000Y-44038072D01*
X112574482Y-44025812D01*
X112694180Y-43989502D01*
X112804494Y-43930537D01*
X112859981Y-43885000D01*
X114306531Y-43885000D01*
X114350000Y-43889281D01*
X114393469Y-43885000D01*
X114393477Y-43885000D01*
X114523490Y-43872195D01*
X114649261Y-43834042D01*
X124315000Y-43834042D01*
X124315000Y-44165958D01*
X124379754Y-44491496D01*
X124506772Y-44798147D01*
X124691175Y-45074125D01*
X124925875Y-45308825D01*
X125201853Y-45493228D01*
X125508504Y-45620246D01*
X125834042Y-45685000D01*
X126165958Y-45685000D01*
X126491496Y-45620246D01*
X126798147Y-45493228D01*
X127074125Y-45308825D01*
X127308825Y-45074125D01*
X127493228Y-44798147D01*
X127620246Y-44491496D01*
X127685000Y-44165958D01*
X127685000Y-43834042D01*
X127620246Y-43508504D01*
X127493228Y-43201853D01*
X127308825Y-42925875D01*
X127074125Y-42691175D01*
X126798147Y-42506772D01*
X126491496Y-42379754D01*
X126165958Y-42315000D01*
X125834042Y-42315000D01*
X125508504Y-42379754D01*
X125201853Y-42506772D01*
X124925875Y-42691175D01*
X124691175Y-42925875D01*
X124506772Y-43201853D01*
X124379754Y-43508504D01*
X124315000Y-43834042D01*
X114649261Y-43834042D01*
X114690313Y-43821589D01*
X114844059Y-43739411D01*
X114978817Y-43628817D01*
X115006534Y-43595044D01*
X115163506Y-43438072D01*
X115600000Y-43438072D01*
X115724482Y-43425812D01*
X115844180Y-43389502D01*
X115954494Y-43330537D01*
X116051185Y-43251185D01*
X116130537Y-43154494D01*
X116189502Y-43044180D01*
X116225812Y-42924482D01*
X116238072Y-42800000D01*
X116238072Y-41900000D01*
X116225812Y-41775518D01*
X116189502Y-41655820D01*
X116130537Y-41545506D01*
X116051185Y-41448815D01*
X115954494Y-41369463D01*
X115844180Y-41310498D01*
X115724482Y-41274188D01*
X115600000Y-41261928D01*
X114400000Y-41261928D01*
X114275518Y-41274188D01*
X114155820Y-41310498D01*
X114045506Y-41369463D01*
X113948815Y-41448815D01*
X113869463Y-41545506D01*
X113810498Y-41655820D01*
X113774188Y-41775518D01*
X113761928Y-41900000D01*
X113761928Y-42115000D01*
X112885000Y-42115000D01*
X112885000Y-42043469D01*
X112889281Y-42000000D01*
X112885000Y-41956531D01*
X112885000Y-41956523D01*
X112872195Y-41826510D01*
X112853756Y-41765725D01*
X112821589Y-41659686D01*
X112739411Y-41505941D01*
X112656532Y-41404953D01*
X112656530Y-41404951D01*
X112628817Y-41371183D01*
X112595049Y-41343470D01*
X112378579Y-41127000D01*
X128873000Y-41127000D01*
X128873000Y-99873000D01*
X112033752Y-99873000D01*
X112144180Y-99839502D01*
X112254494Y-99780537D01*
X112351185Y-99701185D01*
X112430537Y-99604494D01*
X112489502Y-99494180D01*
X112525812Y-99374482D01*
X112538072Y-99250000D01*
X112535000Y-98285750D01*
X112376250Y-98127000D01*
X111127000Y-98127000D01*
X111127000Y-98147000D01*
X110873000Y-98147000D01*
X110873000Y-98127000D01*
X109623750Y-98127000D01*
X109465000Y-98285750D01*
X109461928Y-99250000D01*
X109474188Y-99374482D01*
X109510498Y-99494180D01*
X109569463Y-99604494D01*
X109648815Y-99701185D01*
X109745506Y-99780537D01*
X109855820Y-99839502D01*
X109966248Y-99873000D01*
X90732132Y-99873000D01*
X90892640Y-99712492D01*
X91149590Y-99712492D01*
X91274072Y-99700232D01*
X91393770Y-99663922D01*
X91504084Y-99604957D01*
X91600775Y-99525605D01*
X91680127Y-99428914D01*
X91739092Y-99318600D01*
X91775402Y-99198902D01*
X91787662Y-99074420D01*
X91787662Y-97174420D01*
X91775402Y-97049938D01*
X91739092Y-96930240D01*
X91680127Y-96819926D01*
X91622741Y-96750000D01*
X109461928Y-96750000D01*
X109465000Y-97714250D01*
X109623750Y-97873000D01*
X110873000Y-97873000D01*
X110873000Y-96273750D01*
X111127000Y-96273750D01*
X111127000Y-97873000D01*
X112376250Y-97873000D01*
X112535000Y-97714250D01*
X112538072Y-96750000D01*
X112525812Y-96625518D01*
X112489502Y-96505820D01*
X112430537Y-96395506D01*
X112351185Y-96298815D01*
X112254494Y-96219463D01*
X112144180Y-96160498D01*
X112024482Y-96124188D01*
X111900000Y-96111928D01*
X111285750Y-96115000D01*
X111127000Y-96273750D01*
X110873000Y-96273750D01*
X110714250Y-96115000D01*
X110100000Y-96111928D01*
X109975518Y-96124188D01*
X109855820Y-96160498D01*
X109745506Y-96219463D01*
X109648815Y-96298815D01*
X109569463Y-96395506D01*
X109510498Y-96505820D01*
X109474188Y-96625518D01*
X109461928Y-96750000D01*
X91622741Y-96750000D01*
X91600775Y-96723235D01*
X91504084Y-96643883D01*
X91393770Y-96584918D01*
X91274072Y-96548608D01*
X91149590Y-96536348D01*
X89949590Y-96536348D01*
X89825108Y-96548608D01*
X89705410Y-96584918D01*
X89595096Y-96643883D01*
X89498405Y-96723235D01*
X89419053Y-96819926D01*
X89360088Y-96930240D01*
X89323778Y-97049938D01*
X89311518Y-97174420D01*
X89311518Y-98083350D01*
X88304879Y-99089990D01*
X86686129Y-99089990D01*
X86687662Y-99074420D01*
X86687662Y-97174420D01*
X86675402Y-97049938D01*
X86639092Y-96930240D01*
X86580127Y-96819926D01*
X86500775Y-96723235D01*
X86404084Y-96643883D01*
X86293770Y-96584918D01*
X86174072Y-96548608D01*
X86049590Y-96536348D01*
X85466650Y-96536348D01*
X81135000Y-92204699D01*
X81135000Y-92153072D01*
X81275000Y-92153072D01*
X81399482Y-92140812D01*
X81519180Y-92104502D01*
X81629494Y-92045537D01*
X81726185Y-91966185D01*
X81805537Y-91869494D01*
X81864502Y-91759180D01*
X81900812Y-91639482D01*
X81913072Y-91515000D01*
X81913072Y-90824420D01*
X84211518Y-90824420D01*
X84223778Y-90948902D01*
X84260088Y-91068600D01*
X84319053Y-91178914D01*
X84398405Y-91275605D01*
X84495096Y-91354957D01*
X84605410Y-91413922D01*
X84725108Y-91450232D01*
X84849590Y-91462492D01*
X85163840Y-91459420D01*
X85322590Y-91300670D01*
X85322590Y-90001420D01*
X85576590Y-90001420D01*
X85576590Y-91300670D01*
X85735340Y-91459420D01*
X86049590Y-91462492D01*
X86174072Y-91450232D01*
X86293770Y-91413922D01*
X86404084Y-91354957D01*
X86500775Y-91275605D01*
X86580127Y-91178914D01*
X86639092Y-91068600D01*
X86675402Y-90948902D01*
X86687662Y-90824420D01*
X86684590Y-90160170D01*
X86525840Y-90001420D01*
X85576590Y-90001420D01*
X85322590Y-90001420D01*
X84373340Y-90001420D01*
X84214590Y-90160170D01*
X84211518Y-90824420D01*
X81913072Y-90824420D01*
X81913072Y-88965000D01*
X81909076Y-88924420D01*
X84211518Y-88924420D01*
X84214590Y-89588670D01*
X84373340Y-89747420D01*
X85322590Y-89747420D01*
X85322590Y-88448170D01*
X85576590Y-88448170D01*
X85576590Y-89747420D01*
X86525840Y-89747420D01*
X86684590Y-89588670D01*
X86687662Y-88924420D01*
X89311518Y-88924420D01*
X89311518Y-90824420D01*
X89323778Y-90948902D01*
X89360088Y-91068600D01*
X89419053Y-91178914D01*
X89498405Y-91275605D01*
X89595096Y-91354957D01*
X89705410Y-91413922D01*
X89825108Y-91450232D01*
X89949590Y-91462492D01*
X91149590Y-91462492D01*
X91274072Y-91450232D01*
X91393770Y-91413922D01*
X91504084Y-91354957D01*
X91600775Y-91275605D01*
X91632192Y-91237323D01*
X93173240Y-92778371D01*
X93129528Y-92860150D01*
X93078992Y-93026746D01*
X93061928Y-93200000D01*
X93061928Y-94800000D01*
X93078992Y-94973254D01*
X93129528Y-95139850D01*
X93211595Y-95293386D01*
X93322038Y-95427962D01*
X93456614Y-95538405D01*
X93610150Y-95620472D01*
X93776746Y-95671008D01*
X93950000Y-95688072D01*
X98050000Y-95688072D01*
X98223254Y-95671008D01*
X98389850Y-95620472D01*
X98543386Y-95538405D01*
X98677962Y-95427962D01*
X98788405Y-95293386D01*
X98870472Y-95139850D01*
X98897727Y-95050000D01*
X101861928Y-95050000D01*
X101874188Y-95174482D01*
X101910498Y-95294180D01*
X101969463Y-95404494D01*
X102048815Y-95501185D01*
X102145506Y-95580537D01*
X102255820Y-95639502D01*
X102375518Y-95675812D01*
X102500000Y-95688072D01*
X104514250Y-95685000D01*
X104673000Y-95526250D01*
X104673000Y-94127000D01*
X104927000Y-94127000D01*
X104927000Y-95526250D01*
X105085750Y-95685000D01*
X107100000Y-95688072D01*
X107224482Y-95675812D01*
X107344180Y-95639502D01*
X107454494Y-95580537D01*
X107551185Y-95501185D01*
X107630537Y-95404494D01*
X107689502Y-95294180D01*
X107725812Y-95174482D01*
X107738072Y-95050000D01*
X107735000Y-94285750D01*
X107576250Y-94127000D01*
X104927000Y-94127000D01*
X104673000Y-94127000D01*
X102023750Y-94127000D01*
X101865000Y-94285750D01*
X101861928Y-95050000D01*
X98897727Y-95050000D01*
X98921008Y-94973254D01*
X98938072Y-94800000D01*
X98938072Y-93200000D01*
X98921008Y-93026746D01*
X98897728Y-92950000D01*
X101861928Y-92950000D01*
X101865000Y-93714250D01*
X102023750Y-93873000D01*
X104673000Y-93873000D01*
X104673000Y-92473750D01*
X104927000Y-92473750D01*
X104927000Y-93873000D01*
X107576250Y-93873000D01*
X107735000Y-93714250D01*
X107738072Y-92950000D01*
X107725812Y-92825518D01*
X107689502Y-92705820D01*
X107630537Y-92595506D01*
X107551185Y-92498815D01*
X107454494Y-92419463D01*
X107344180Y-92360498D01*
X107224482Y-92324188D01*
X107100000Y-92311928D01*
X105085750Y-92315000D01*
X104927000Y-92473750D01*
X104673000Y-92473750D01*
X104514250Y-92315000D01*
X102500000Y-92311928D01*
X102375518Y-92324188D01*
X102255820Y-92360498D01*
X102145506Y-92419463D01*
X102048815Y-92498815D01*
X101969463Y-92595506D01*
X101910498Y-92705820D01*
X101874188Y-92825518D01*
X101861928Y-92950000D01*
X98897728Y-92950000D01*
X98870472Y-92860150D01*
X98788405Y-92706614D01*
X98677962Y-92572038D01*
X98543386Y-92461595D01*
X98389850Y-92379528D01*
X98223254Y-92328992D01*
X98050000Y-92311928D01*
X95917060Y-92311928D01*
X93692631Y-90087500D01*
X98192060Y-85588072D01*
X99375000Y-85588072D01*
X99499482Y-85575812D01*
X99619180Y-85539502D01*
X99729494Y-85480537D01*
X99826185Y-85401185D01*
X99905537Y-85304494D01*
X99964502Y-85194180D01*
X100000812Y-85074482D01*
X100013072Y-84950000D01*
X100013072Y-83850000D01*
X100000812Y-83725518D01*
X99996105Y-83710000D01*
X102011928Y-83710000D01*
X102011928Y-84200000D01*
X102024188Y-84324482D01*
X102060498Y-84444180D01*
X102119463Y-84554494D01*
X102198815Y-84651185D01*
X102295506Y-84730537D01*
X102405820Y-84789502D01*
X102525518Y-84825812D01*
X102650000Y-84838072D01*
X105550000Y-84838072D01*
X105674482Y-84825812D01*
X105794180Y-84789502D01*
X105902987Y-84731342D01*
X109990001Y-88818357D01*
X109990000Y-92122762D01*
X109975518Y-92124188D01*
X109855820Y-92160498D01*
X109745506Y-92219463D01*
X109648815Y-92298815D01*
X109569463Y-92395506D01*
X109510498Y-92505820D01*
X109474188Y-92625518D01*
X109461928Y-92750000D01*
X109461928Y-95250000D01*
X109474188Y-95374482D01*
X109510498Y-95494180D01*
X109569463Y-95604494D01*
X109648815Y-95701185D01*
X109745506Y-95780537D01*
X109855820Y-95839502D01*
X109975518Y-95875812D01*
X110100000Y-95888072D01*
X111900000Y-95888072D01*
X112024482Y-95875812D01*
X112144180Y-95839502D01*
X112254494Y-95780537D01*
X112351185Y-95701185D01*
X112430537Y-95604494D01*
X112489502Y-95494180D01*
X112525812Y-95374482D01*
X112538072Y-95250000D01*
X112538072Y-92750000D01*
X112525812Y-92625518D01*
X112489502Y-92505820D01*
X112430537Y-92395506D01*
X112351185Y-92298815D01*
X112254494Y-92219463D01*
X112144180Y-92160498D01*
X112024482Y-92124188D01*
X112010000Y-92122762D01*
X112010000Y-88449608D01*
X112014886Y-88400000D01*
X111995385Y-88202005D01*
X111937632Y-88011620D01*
X111843846Y-87836159D01*
X111749256Y-87720900D01*
X111717633Y-87682367D01*
X111679100Y-87650744D01*
X106188072Y-82159717D01*
X106188072Y-78800000D01*
X106175812Y-78675518D01*
X106139502Y-78555820D01*
X106080537Y-78445506D01*
X106001185Y-78348815D01*
X105904494Y-78269463D01*
X105794180Y-78210498D01*
X105674482Y-78174188D01*
X105550000Y-78161928D01*
X102650000Y-78161928D01*
X102525518Y-78174188D01*
X102405820Y-78210498D01*
X102295506Y-78269463D01*
X102198815Y-78348815D01*
X102119463Y-78445506D01*
X102060498Y-78555820D01*
X102024188Y-78675518D01*
X102011928Y-78800000D01*
X102011928Y-81690000D01*
X99996105Y-81690000D01*
X100000812Y-81674482D01*
X100013072Y-81550000D01*
X100010000Y-81285750D01*
X99851250Y-81127000D01*
X97202000Y-81127000D01*
X97202000Y-81147000D01*
X96948000Y-81147000D01*
X96948000Y-81127000D01*
X94298750Y-81127000D01*
X94140000Y-81285750D01*
X94136928Y-81550000D01*
X94149188Y-81674482D01*
X94185498Y-81794180D01*
X94215335Y-81850000D01*
X94185498Y-81905820D01*
X94149188Y-82025518D01*
X94136928Y-82150000D01*
X94136928Y-83250000D01*
X94149188Y-83374482D01*
X94185498Y-83494180D01*
X94215335Y-83550000D01*
X94185498Y-83605820D01*
X94149188Y-83725518D01*
X94136928Y-83850000D01*
X94136928Y-84950000D01*
X94149188Y-85074482D01*
X94185498Y-85194180D01*
X94244463Y-85304494D01*
X94323815Y-85401185D01*
X94420506Y-85480537D01*
X94530820Y-85539502D01*
X94650518Y-85575812D01*
X94775000Y-85588072D01*
X94981796Y-85588072D01*
X91831736Y-88738133D01*
X91818669Y-88739420D01*
X91757044Y-88739420D01*
X91739092Y-88680240D01*
X91680127Y-88569926D01*
X91600775Y-88473235D01*
X91504084Y-88393883D01*
X91393770Y-88334918D01*
X91274072Y-88298608D01*
X91149590Y-88286348D01*
X89949590Y-88286348D01*
X89825108Y-88298608D01*
X89705410Y-88334918D01*
X89595096Y-88393883D01*
X89498405Y-88473235D01*
X89419053Y-88569926D01*
X89360088Y-88680240D01*
X89323778Y-88799938D01*
X89311518Y-88924420D01*
X86687662Y-88924420D01*
X86675402Y-88799938D01*
X86639092Y-88680240D01*
X86580127Y-88569926D01*
X86500775Y-88473235D01*
X86404084Y-88393883D01*
X86293770Y-88334918D01*
X86174072Y-88298608D01*
X86049590Y-88286348D01*
X85735340Y-88289420D01*
X85576590Y-88448170D01*
X85322590Y-88448170D01*
X85163840Y-88289420D01*
X84849590Y-88286348D01*
X84725108Y-88298608D01*
X84605410Y-88334918D01*
X84495096Y-88393883D01*
X84398405Y-88473235D01*
X84319053Y-88569926D01*
X84260088Y-88680240D01*
X84223778Y-88799938D01*
X84211518Y-88924420D01*
X81909076Y-88924420D01*
X81900812Y-88840518D01*
X81864502Y-88720820D01*
X81805537Y-88610506D01*
X81726185Y-88513815D01*
X81629494Y-88434463D01*
X81519180Y-88375498D01*
X81399482Y-88339188D01*
X81275000Y-88326928D01*
X78725000Y-88326928D01*
X78600518Y-88339188D01*
X78480820Y-88375498D01*
X78370506Y-88434463D01*
X78273815Y-88513815D01*
X78194463Y-88610506D01*
X78135498Y-88720820D01*
X78099188Y-88840518D01*
X78086928Y-88965000D01*
X78086928Y-91515000D01*
X78099188Y-91639482D01*
X78135498Y-91759180D01*
X78194463Y-91869494D01*
X78273815Y-91966185D01*
X78370506Y-92045537D01*
X78480820Y-92104502D01*
X78600518Y-92140812D01*
X78725000Y-92153072D01*
X78865001Y-92153072D01*
X78865001Y-92619069D01*
X78859509Y-92674830D01*
X78881423Y-92897328D01*
X78946324Y-93111276D01*
X78961940Y-93140491D01*
X79051717Y-93308453D01*
X79193552Y-93481279D01*
X79236860Y-93516821D01*
X84211518Y-98491480D01*
X84211518Y-98606386D01*
X77135000Y-91529869D01*
X77135000Y-84971881D01*
X78090000Y-84971881D01*
X78090000Y-85348119D01*
X78163400Y-85717127D01*
X78307380Y-86064724D01*
X78516406Y-86377554D01*
X78782446Y-86643594D01*
X79095276Y-86852620D01*
X79442873Y-86996600D01*
X79811881Y-87070000D01*
X80188119Y-87070000D01*
X80557127Y-86996600D01*
X80904724Y-86852620D01*
X81217554Y-86643594D01*
X81461148Y-86400000D01*
X82586928Y-86400000D01*
X82599188Y-86524482D01*
X82635498Y-86644180D01*
X82694463Y-86754494D01*
X82773815Y-86851185D01*
X82870506Y-86930537D01*
X82980820Y-86989502D01*
X83100518Y-87025812D01*
X83225000Y-87038072D01*
X87639250Y-87035000D01*
X87798000Y-86876250D01*
X87798000Y-81127000D01*
X88052000Y-81127000D01*
X88052000Y-86876250D01*
X88210750Y-87035000D01*
X92625000Y-87038072D01*
X92749482Y-87025812D01*
X92869180Y-86989502D01*
X92979494Y-86930537D01*
X93076185Y-86851185D01*
X93155537Y-86754494D01*
X93214502Y-86644180D01*
X93250812Y-86524482D01*
X93263072Y-86400000D01*
X93260000Y-81285750D01*
X93101250Y-81127000D01*
X88052000Y-81127000D01*
X87798000Y-81127000D01*
X82748750Y-81127000D01*
X82590000Y-81285750D01*
X82586928Y-86400000D01*
X81461148Y-86400000D01*
X81483594Y-86377554D01*
X81692620Y-86064724D01*
X81836600Y-85717127D01*
X81910000Y-85348119D01*
X81910000Y-84971881D01*
X81836600Y-84602873D01*
X81692620Y-84255276D01*
X81483594Y-83942446D01*
X81217554Y-83676406D01*
X80904724Y-83467380D01*
X80557127Y-83323400D01*
X80188119Y-83250000D01*
X79811881Y-83250000D01*
X79442873Y-83323400D01*
X79095276Y-83467380D01*
X78782446Y-83676406D01*
X78516406Y-83942446D01*
X78307380Y-84255276D01*
X78163400Y-84602873D01*
X78090000Y-84971881D01*
X77135000Y-84971881D01*
X77135000Y-79891881D01*
X78090000Y-79891881D01*
X78090000Y-80268119D01*
X78163400Y-80637127D01*
X78307380Y-80984724D01*
X78516406Y-81297554D01*
X78782446Y-81563594D01*
X79095276Y-81772620D01*
X79442873Y-81916600D01*
X79811881Y-81990000D01*
X80188119Y-81990000D01*
X80557127Y-81916600D01*
X80904724Y-81772620D01*
X81217554Y-81563594D01*
X81483594Y-81297554D01*
X81692620Y-80984724D01*
X81836600Y-80637127D01*
X81910000Y-80268119D01*
X81910000Y-79891881D01*
X81836600Y-79522873D01*
X81692620Y-79175276D01*
X81483594Y-78862446D01*
X81217554Y-78596406D01*
X80904724Y-78387380D01*
X80557127Y-78243400D01*
X80188119Y-78170000D01*
X79811881Y-78170000D01*
X79442873Y-78243400D01*
X79095276Y-78387380D01*
X78782446Y-78596406D01*
X78516406Y-78862446D01*
X78307380Y-79175276D01*
X78163400Y-79522873D01*
X78090000Y-79891881D01*
X77135000Y-79891881D01*
X77135000Y-79470131D01*
X79714502Y-76890630D01*
X79811881Y-76910000D01*
X80188119Y-76910000D01*
X80557127Y-76836600D01*
X80904724Y-76692620D01*
X81217554Y-76483594D01*
X81483594Y-76217554D01*
X81692620Y-75904724D01*
X81818841Y-75600000D01*
X82586928Y-75600000D01*
X82590000Y-80714250D01*
X82748750Y-80873000D01*
X87798000Y-80873000D01*
X87798000Y-75123750D01*
X88052000Y-75123750D01*
X88052000Y-80873000D01*
X93101250Y-80873000D01*
X93260000Y-80714250D01*
X93262201Y-77050000D01*
X94136928Y-77050000D01*
X94140000Y-77314250D01*
X94298750Y-77473000D01*
X96948000Y-77473000D01*
X96948000Y-76573750D01*
X97202000Y-76573750D01*
X97202000Y-77473000D01*
X99851250Y-77473000D01*
X100010000Y-77314250D01*
X100013072Y-77050000D01*
X100000812Y-76925518D01*
X99964502Y-76805820D01*
X99905537Y-76695506D01*
X99826185Y-76598815D01*
X99729494Y-76519463D01*
X99619180Y-76460498D01*
X99499482Y-76424188D01*
X99375000Y-76411928D01*
X97360750Y-76415000D01*
X97202000Y-76573750D01*
X96948000Y-76573750D01*
X96789250Y-76415000D01*
X94775000Y-76411928D01*
X94650518Y-76424188D01*
X94530820Y-76460498D01*
X94420506Y-76519463D01*
X94323815Y-76598815D01*
X94244463Y-76695506D01*
X94185498Y-76805820D01*
X94149188Y-76925518D01*
X94136928Y-77050000D01*
X93262201Y-77050000D01*
X93263072Y-75600000D01*
X93250812Y-75475518D01*
X93214502Y-75355820D01*
X93155537Y-75245506D01*
X93076185Y-75148815D01*
X92979494Y-75069463D01*
X92869180Y-75010498D01*
X92749482Y-74974188D01*
X92625000Y-74961928D01*
X88210750Y-74965000D01*
X88052000Y-75123750D01*
X87798000Y-75123750D01*
X87639250Y-74965000D01*
X83225000Y-74961928D01*
X83100518Y-74974188D01*
X82980820Y-75010498D01*
X82870506Y-75069463D01*
X82773815Y-75148815D01*
X82694463Y-75245506D01*
X82635498Y-75355820D01*
X82599188Y-75475518D01*
X82586928Y-75600000D01*
X81818841Y-75600000D01*
X81836600Y-75557127D01*
X81910000Y-75188119D01*
X81910000Y-74811881D01*
X81836600Y-74442873D01*
X81692620Y-74095276D01*
X81483594Y-73782446D01*
X81217554Y-73516406D01*
X80904724Y-73307380D01*
X80557127Y-73163400D01*
X80188119Y-73090000D01*
X79811881Y-73090000D01*
X79442873Y-73163400D01*
X79095276Y-73307380D01*
X78782446Y-73516406D01*
X78516406Y-73782446D01*
X78307380Y-74095276D01*
X78163400Y-74442873D01*
X78090000Y-74811881D01*
X78090000Y-75188119D01*
X78109370Y-75285498D01*
X75236865Y-78158004D01*
X75193551Y-78193551D01*
X75051716Y-78366377D01*
X74974413Y-78511003D01*
X74946324Y-78563554D01*
X74881423Y-78777502D01*
X74859509Y-79000000D01*
X74865000Y-79055752D01*
X74865001Y-91944239D01*
X74859509Y-92000000D01*
X74881423Y-92222498D01*
X74946324Y-92436446D01*
X74979661Y-92498815D01*
X75051717Y-92633623D01*
X75193552Y-92806449D01*
X75236860Y-92841991D01*
X82267868Y-99873000D01*
X71127000Y-99873000D01*
X71127000Y-96834042D01*
X72315000Y-96834042D01*
X72315000Y-97165958D01*
X72379754Y-97491496D01*
X72506772Y-97798147D01*
X72691175Y-98074125D01*
X72925875Y-98308825D01*
X73201853Y-98493228D01*
X73508504Y-98620246D01*
X73834042Y-98685000D01*
X74165958Y-98685000D01*
X74491496Y-98620246D01*
X74798147Y-98493228D01*
X75074125Y-98308825D01*
X75308825Y-98074125D01*
X75493228Y-97798147D01*
X75620246Y-97491496D01*
X75685000Y-97165958D01*
X75685000Y-96834042D01*
X75620246Y-96508504D01*
X75493228Y-96201853D01*
X75308825Y-95925875D01*
X75074125Y-95691175D01*
X74798147Y-95506772D01*
X74491496Y-95379754D01*
X74165958Y-95315000D01*
X73834042Y-95315000D01*
X73508504Y-95379754D01*
X73201853Y-95506772D01*
X72925875Y-95691175D01*
X72691175Y-95925875D01*
X72506772Y-96201853D01*
X72379754Y-96508504D01*
X72315000Y-96834042D01*
X71127000Y-96834042D01*
X71127000Y-59725000D01*
X78086928Y-59725000D01*
X78086928Y-62275000D01*
X78099188Y-62399482D01*
X78135498Y-62519180D01*
X78194463Y-62629494D01*
X78273815Y-62726185D01*
X78370506Y-62805537D01*
X78480820Y-62864502D01*
X78600518Y-62900812D01*
X78725000Y-62913072D01*
X81275000Y-62913072D01*
X81399482Y-62900812D01*
X81519180Y-62864502D01*
X81629494Y-62805537D01*
X81726185Y-62726185D01*
X81805537Y-62629494D01*
X81864502Y-62519180D01*
X81900812Y-62399482D01*
X81913072Y-62275000D01*
X81913072Y-59725000D01*
X81900812Y-59600518D01*
X81864502Y-59480820D01*
X81805537Y-59370506D01*
X81726185Y-59273815D01*
X81629494Y-59194463D01*
X81519180Y-59135498D01*
X81399482Y-59099188D01*
X81275000Y-59086928D01*
X78725000Y-59086928D01*
X78600518Y-59099188D01*
X78480820Y-59135498D01*
X78370506Y-59194463D01*
X78273815Y-59273815D01*
X78194463Y-59370506D01*
X78135498Y-59480820D01*
X78099188Y-59600518D01*
X78086928Y-59725000D01*
X71127000Y-59725000D01*
X71127000Y-55731881D01*
X78090000Y-55731881D01*
X78090000Y-56108119D01*
X78163400Y-56477127D01*
X78307380Y-56824724D01*
X78516406Y-57137554D01*
X78782446Y-57403594D01*
X79095276Y-57612620D01*
X79442873Y-57756600D01*
X79811881Y-57830000D01*
X80188119Y-57830000D01*
X80557127Y-57756600D01*
X80904724Y-57612620D01*
X81217554Y-57403594D01*
X81483594Y-57137554D01*
X81692620Y-56824724D01*
X81836600Y-56477127D01*
X81910000Y-56108119D01*
X81910000Y-55731881D01*
X81836600Y-55362873D01*
X81692620Y-55015276D01*
X81483594Y-54702446D01*
X81217554Y-54436406D01*
X80904724Y-54227380D01*
X80557127Y-54083400D01*
X80188119Y-54010000D01*
X79811881Y-54010000D01*
X79442873Y-54083400D01*
X79095276Y-54227380D01*
X78782446Y-54436406D01*
X78516406Y-54702446D01*
X78307380Y-55015276D01*
X78163400Y-55362873D01*
X78090000Y-55731881D01*
X71127000Y-55731881D01*
X71127000Y-50651881D01*
X78090000Y-50651881D01*
X78090000Y-51028119D01*
X78163400Y-51397127D01*
X78307380Y-51744724D01*
X78516406Y-52057554D01*
X78782446Y-52323594D01*
X79095276Y-52532620D01*
X79442873Y-52676600D01*
X79811881Y-52750000D01*
X80188119Y-52750000D01*
X80557127Y-52676600D01*
X80904724Y-52532620D01*
X81217554Y-52323594D01*
X81483594Y-52057554D01*
X81692620Y-51744724D01*
X81836600Y-51397127D01*
X81910000Y-51028119D01*
X81910000Y-50651881D01*
X81836600Y-50282873D01*
X81692620Y-49935276D01*
X81483594Y-49622446D01*
X81217554Y-49356406D01*
X80904724Y-49147380D01*
X80557127Y-49003400D01*
X80188119Y-48930000D01*
X79811881Y-48930000D01*
X79442873Y-49003400D01*
X79095276Y-49147380D01*
X78782446Y-49356406D01*
X78516406Y-49622446D01*
X78307380Y-49935276D01*
X78163400Y-50282873D01*
X78090000Y-50651881D01*
X71127000Y-50651881D01*
X71127000Y-43834042D01*
X72315000Y-43834042D01*
X72315000Y-44165958D01*
X72379754Y-44491496D01*
X72506772Y-44798147D01*
X72691175Y-45074125D01*
X72925875Y-45308825D01*
X73201853Y-45493228D01*
X73508504Y-45620246D01*
X73834042Y-45685000D01*
X74165958Y-45685000D01*
X74491496Y-45620246D01*
X74798147Y-45493228D01*
X75074125Y-45308825D01*
X75308825Y-45074125D01*
X75493228Y-44798147D01*
X75620246Y-44491496D01*
X75685000Y-44165958D01*
X75685000Y-43834042D01*
X75658338Y-43700000D01*
X79936928Y-43700000D01*
X79949188Y-43824482D01*
X79985498Y-43944180D01*
X80044463Y-44054494D01*
X80123815Y-44151185D01*
X80220506Y-44230537D01*
X80277351Y-44260922D01*
X80200722Y-44404284D01*
X80153031Y-44561500D01*
X80136928Y-44725000D01*
X80136928Y-45275000D01*
X80153031Y-45438500D01*
X80200722Y-45595716D01*
X80278169Y-45740608D01*
X80382394Y-45867606D01*
X80509392Y-45971831D01*
X80654284Y-46049278D01*
X80811500Y-46096969D01*
X80975000Y-46113072D01*
X81375000Y-46113072D01*
X81538500Y-46096969D01*
X81695716Y-46049278D01*
X81840608Y-45971831D01*
X81967606Y-45867606D01*
X82000000Y-45828134D01*
X82032394Y-45867606D01*
X82065000Y-45894365D01*
X82065001Y-54787668D01*
X82061324Y-54825000D01*
X82065001Y-54862333D01*
X82075998Y-54973986D01*
X82083889Y-55000000D01*
X82119454Y-55117246D01*
X82190026Y-55249276D01*
X82236431Y-55305820D01*
X82285000Y-55365001D01*
X82313998Y-55388799D01*
X84965000Y-58039802D01*
X84965000Y-58101939D01*
X85004774Y-58301898D01*
X85082795Y-58490256D01*
X85196063Y-58659774D01*
X85340226Y-58803937D01*
X85509744Y-58917205D01*
X85698102Y-58995226D01*
X85898061Y-59035000D01*
X86101939Y-59035000D01*
X86301898Y-58995226D01*
X86490256Y-58917205D01*
X86659774Y-58803937D01*
X86803937Y-58659774D01*
X86917205Y-58490256D01*
X86995226Y-58301898D01*
X87035000Y-58101939D01*
X87035000Y-57898061D01*
X86995226Y-57698102D01*
X86917205Y-57509744D01*
X86803937Y-57340226D01*
X86659774Y-57196063D01*
X86490256Y-57082795D01*
X86301898Y-57004774D01*
X86101939Y-56965000D01*
X86039802Y-56965000D01*
X83585000Y-54510199D01*
X83585000Y-45894365D01*
X83617606Y-45867606D01*
X83721831Y-45740608D01*
X83799278Y-45595716D01*
X83846969Y-45438500D01*
X83863072Y-45275000D01*
X83863072Y-44725000D01*
X83846969Y-44561500D01*
X83799278Y-44404284D01*
X83721831Y-44259392D01*
X83666488Y-44191957D01*
X83671164Y-44189458D01*
X83804792Y-44079792D01*
X83914458Y-43946164D01*
X83995947Y-43793709D01*
X84046128Y-43628285D01*
X84058762Y-43500000D01*
X85861928Y-43500000D01*
X85874188Y-43624482D01*
X85910498Y-43744180D01*
X85969463Y-43854494D01*
X86048815Y-43951185D01*
X86145506Y-44030537D01*
X86255820Y-44089502D01*
X86375518Y-44125812D01*
X86500000Y-44138072D01*
X86714250Y-44135000D01*
X86873000Y-43976250D01*
X86873000Y-43252000D01*
X87127000Y-43252000D01*
X87127000Y-43976250D01*
X87285750Y-44135000D01*
X87500000Y-44138072D01*
X87624482Y-44125812D01*
X87744180Y-44089502D01*
X87854494Y-44030537D01*
X87951185Y-43951185D01*
X88030537Y-43854494D01*
X88089502Y-43744180D01*
X88125812Y-43624482D01*
X88138072Y-43500000D01*
X91861928Y-43500000D01*
X91874188Y-43624482D01*
X91910498Y-43744180D01*
X91969463Y-43854494D01*
X92048815Y-43951185D01*
X92145506Y-44030537D01*
X92255820Y-44089502D01*
X92375518Y-44125812D01*
X92500000Y-44138072D01*
X92714250Y-44135000D01*
X92873000Y-43976250D01*
X92873000Y-43252000D01*
X93127000Y-43252000D01*
X93127000Y-43976250D01*
X93285750Y-44135000D01*
X93500000Y-44138072D01*
X93624482Y-44125812D01*
X93744180Y-44089502D01*
X93854494Y-44030537D01*
X93951185Y-43951185D01*
X94030537Y-43854494D01*
X94089502Y-43744180D01*
X94125812Y-43624482D01*
X94138072Y-43500000D01*
X94135000Y-43410750D01*
X93976250Y-43252000D01*
X93127000Y-43252000D01*
X92873000Y-43252000D01*
X92023750Y-43252000D01*
X91865000Y-43410750D01*
X91861928Y-43500000D01*
X88138072Y-43500000D01*
X88135000Y-43410750D01*
X87976250Y-43252000D01*
X87127000Y-43252000D01*
X86873000Y-43252000D01*
X86023750Y-43252000D01*
X85865000Y-43410750D01*
X85861928Y-43500000D01*
X84058762Y-43500000D01*
X84063072Y-43456250D01*
X84063072Y-42750000D01*
X85861928Y-42750000D01*
X85865000Y-42839250D01*
X86023750Y-42998000D01*
X86873000Y-42998000D01*
X86873000Y-42273750D01*
X87127000Y-42273750D01*
X87127000Y-42998000D01*
X87976250Y-42998000D01*
X88135000Y-42839250D01*
X88138072Y-42750000D01*
X91861928Y-42750000D01*
X91865000Y-42839250D01*
X92023750Y-42998000D01*
X92873000Y-42998000D01*
X92873000Y-42273750D01*
X93127000Y-42273750D01*
X93127000Y-42998000D01*
X93976250Y-42998000D01*
X94001842Y-42972408D01*
X95793000Y-42972408D01*
X95793000Y-43247592D01*
X95846686Y-43517490D01*
X95951995Y-43771727D01*
X96104880Y-44000535D01*
X96299465Y-44195120D01*
X96528273Y-44348005D01*
X96782510Y-44453314D01*
X97052408Y-44507000D01*
X97327592Y-44507000D01*
X97597490Y-44453314D01*
X97851727Y-44348005D01*
X98080535Y-44195120D01*
X98275120Y-44000535D01*
X98428005Y-43771727D01*
X98533314Y-43517490D01*
X98587000Y-43247592D01*
X98587000Y-42972408D01*
X98533314Y-42702510D01*
X98428005Y-42448273D01*
X98275120Y-42219465D01*
X98080535Y-42024880D01*
X97896886Y-41902169D01*
X97895546Y-41897753D01*
X97824974Y-41765724D01*
X97730001Y-41649999D01*
X97614275Y-41555026D01*
X97482246Y-41484454D01*
X97338985Y-41440997D01*
X97190000Y-41426323D01*
X97041014Y-41440997D01*
X96897753Y-41484454D01*
X96765724Y-41555026D01*
X96649999Y-41649999D01*
X96555026Y-41765725D01*
X96484454Y-41897754D01*
X96483115Y-41902169D01*
X96299465Y-42024880D01*
X96104880Y-42219465D01*
X95951995Y-42448273D01*
X95846686Y-42702510D01*
X95793000Y-42972408D01*
X94001842Y-42972408D01*
X94135000Y-42839250D01*
X94138072Y-42750000D01*
X94125812Y-42625518D01*
X94089502Y-42505820D01*
X94030537Y-42395506D01*
X93951185Y-42298815D01*
X93854494Y-42219463D01*
X93744180Y-42160498D01*
X93624482Y-42124188D01*
X93500000Y-42111928D01*
X93285750Y-42115000D01*
X93127000Y-42273750D01*
X92873000Y-42273750D01*
X92714250Y-42115000D01*
X92500000Y-42111928D01*
X92375518Y-42124188D01*
X92255820Y-42160498D01*
X92145506Y-42219463D01*
X92048815Y-42298815D01*
X91969463Y-42395506D01*
X91910498Y-42505820D01*
X91874188Y-42625518D01*
X91861928Y-42750000D01*
X88138072Y-42750000D01*
X88125812Y-42625518D01*
X88089502Y-42505820D01*
X88030537Y-42395506D01*
X87951185Y-42298815D01*
X87854494Y-42219463D01*
X87744180Y-42160498D01*
X87624482Y-42124188D01*
X87500000Y-42111928D01*
X87285750Y-42115000D01*
X87127000Y-42273750D01*
X86873000Y-42273750D01*
X86714250Y-42115000D01*
X86500000Y-42111928D01*
X86375518Y-42124188D01*
X86255820Y-42160498D01*
X86145506Y-42219463D01*
X86048815Y-42298815D01*
X85969463Y-42395506D01*
X85910498Y-42505820D01*
X85874188Y-42625518D01*
X85861928Y-42750000D01*
X84063072Y-42750000D01*
X84063072Y-42543750D01*
X84046128Y-42371715D01*
X83995947Y-42206291D01*
X83914458Y-42053836D01*
X83804792Y-41920208D01*
X83671164Y-41810542D01*
X83518709Y-41729053D01*
X83353285Y-41678872D01*
X83181250Y-41661928D01*
X82693750Y-41661928D01*
X82521715Y-41678872D01*
X82356291Y-41729053D01*
X82203836Y-41810542D01*
X82070208Y-41920208D01*
X82064992Y-41926564D01*
X82001185Y-41848815D01*
X81904494Y-41769463D01*
X81794180Y-41710498D01*
X81674482Y-41674188D01*
X81550000Y-41661928D01*
X81348250Y-41665000D01*
X81189500Y-41823750D01*
X81189500Y-42873000D01*
X81209500Y-42873000D01*
X81209500Y-43127000D01*
X81189500Y-43127000D01*
X81189500Y-43147000D01*
X80935500Y-43147000D01*
X80935500Y-43127000D01*
X80098750Y-43127000D01*
X79940000Y-43285750D01*
X79936928Y-43700000D01*
X75658338Y-43700000D01*
X75620246Y-43508504D01*
X75493228Y-43201853D01*
X75308825Y-42925875D01*
X75074125Y-42691175D01*
X74798147Y-42506772D01*
X74491496Y-42379754D01*
X74165958Y-42315000D01*
X73834042Y-42315000D01*
X73508504Y-42379754D01*
X73201853Y-42506772D01*
X72925875Y-42691175D01*
X72691175Y-42925875D01*
X72506772Y-43201853D01*
X72379754Y-43508504D01*
X72315000Y-43834042D01*
X71127000Y-43834042D01*
X71127000Y-42300000D01*
X79936928Y-42300000D01*
X79940000Y-42714250D01*
X80098750Y-42873000D01*
X80935500Y-42873000D01*
X80935500Y-41823750D01*
X80776750Y-41665000D01*
X80575000Y-41661928D01*
X80450518Y-41674188D01*
X80330820Y-41710498D01*
X80220506Y-41769463D01*
X80123815Y-41848815D01*
X80044463Y-41945506D01*
X79985498Y-42055820D01*
X79949188Y-42175518D01*
X79936928Y-42300000D01*
X71127000Y-42300000D01*
X71127000Y-41127000D01*
X101621421Y-41127000D01*
X100404956Y-42343466D01*
G37*
G04 #@! TD.AperFunction*
D32*
X117115001Y-66541580D02*
X117115000Y-69633421D01*
X116876776Y-69871645D01*
X116777501Y-69881423D01*
X116563553Y-69946324D01*
X116366377Y-70051716D01*
X116193551Y-70193551D01*
X116051716Y-70366377D01*
X115946324Y-70563553D01*
X115881423Y-70777501D01*
X115859509Y-71000000D01*
X115881423Y-71222499D01*
X115946324Y-71436447D01*
X115990001Y-71518161D01*
X115990000Y-74581644D01*
X113320901Y-77250744D01*
X113282368Y-77282367D01*
X113250745Y-77320900D01*
X113250744Y-77320901D01*
X113156154Y-77436160D01*
X113062368Y-77611621D01*
X113004615Y-77802006D01*
X112985114Y-78000000D01*
X112990001Y-78049618D01*
X112990001Y-78161928D01*
X112550000Y-78161928D01*
X112425518Y-78174188D01*
X112305820Y-78210498D01*
X112195506Y-78269463D01*
X112098815Y-78348815D01*
X112019463Y-78445506D01*
X111960498Y-78555820D01*
X111924188Y-78675518D01*
X111911928Y-78800000D01*
X111911928Y-79837126D01*
X108074801Y-76000000D01*
X110064801Y-74010000D01*
X112601928Y-74010000D01*
X112614188Y-74134482D01*
X112650498Y-74254180D01*
X112709463Y-74364494D01*
X112788815Y-74461185D01*
X112885506Y-74540537D01*
X112995820Y-74599502D01*
X113115518Y-74635812D01*
X113240000Y-74648072D01*
X113714250Y-74645000D01*
X113873000Y-74486250D01*
X113873000Y-73247000D01*
X114127000Y-73247000D01*
X114127000Y-74486250D01*
X114285750Y-74645000D01*
X114760000Y-74648072D01*
X114884482Y-74635812D01*
X115004180Y-74599502D01*
X115114494Y-74540537D01*
X115211185Y-74461185D01*
X115290537Y-74364494D01*
X115349502Y-74254180D01*
X115385812Y-74134482D01*
X115398072Y-74010000D01*
X115395000Y-73405750D01*
X115236250Y-73247000D01*
X114127000Y-73247000D01*
X113873000Y-73247000D01*
X112763750Y-73247000D01*
X112605000Y-73405750D01*
X112601928Y-74010000D01*
X110064801Y-74010000D01*
X111511004Y-72563798D01*
X111540001Y-72540001D01*
X111634974Y-72424276D01*
X111705546Y-72292247D01*
X111749003Y-72148986D01*
X111760000Y-72037333D01*
X111760000Y-72037324D01*
X111763676Y-72000001D01*
X111760000Y-71962678D01*
X111760000Y-71507538D01*
X111898061Y-71535000D01*
X112101939Y-71535000D01*
X112301898Y-71495226D01*
X112490256Y-71417205D01*
X112601928Y-71342588D01*
X112601928Y-71470000D01*
X112614188Y-71594482D01*
X112650498Y-71714180D01*
X112709463Y-71824494D01*
X112730395Y-71850000D01*
X112709463Y-71875506D01*
X112650498Y-71985820D01*
X112614188Y-72105518D01*
X112601928Y-72230000D01*
X112605000Y-72834250D01*
X112763750Y-72993000D01*
X113873000Y-72993000D01*
X113873000Y-72973000D01*
X114127000Y-72973000D01*
X114127000Y-72993000D01*
X115236250Y-72993000D01*
X115395000Y-72834250D01*
X115398072Y-72230000D01*
X115385812Y-72105518D01*
X115349502Y-71985820D01*
X115290537Y-71875506D01*
X115269605Y-71850000D01*
X115290537Y-71824494D01*
X115349502Y-71714180D01*
X115385812Y-71594482D01*
X115398072Y-71470000D01*
X115398072Y-69690000D01*
X115385812Y-69565518D01*
X115349502Y-69445820D01*
X115290537Y-69335506D01*
X115269605Y-69310000D01*
X115290537Y-69284494D01*
X115349502Y-69174180D01*
X115385812Y-69054482D01*
X115398072Y-68930000D01*
X115398072Y-67150000D01*
X115385812Y-67025518D01*
X115349502Y-66905820D01*
X115290537Y-66795506D01*
X115269605Y-66770000D01*
X115290537Y-66744494D01*
X115349502Y-66634180D01*
X115385812Y-66514482D01*
X115398072Y-66390000D01*
X115398072Y-65501729D01*
X115736612Y-65163190D01*
X117115001Y-66541580D01*
G04 #@! TA.AperFunction,Conductor*
D33*
G36*
X117115001Y-66541580D02*
G01*
X117115000Y-69633421D01*
X116876776Y-69871645D01*
X116777501Y-69881423D01*
X116563553Y-69946324D01*
X116366377Y-70051716D01*
X116193551Y-70193551D01*
X116051716Y-70366377D01*
X115946324Y-70563553D01*
X115881423Y-70777501D01*
X115859509Y-71000000D01*
X115881423Y-71222499D01*
X115946324Y-71436447D01*
X115990001Y-71518161D01*
X115990000Y-74581644D01*
X113320901Y-77250744D01*
X113282368Y-77282367D01*
X113250745Y-77320900D01*
X113250744Y-77320901D01*
X113156154Y-77436160D01*
X113062368Y-77611621D01*
X113004615Y-77802006D01*
X112985114Y-78000000D01*
X112990001Y-78049618D01*
X112990001Y-78161928D01*
X112550000Y-78161928D01*
X112425518Y-78174188D01*
X112305820Y-78210498D01*
X112195506Y-78269463D01*
X112098815Y-78348815D01*
X112019463Y-78445506D01*
X111960498Y-78555820D01*
X111924188Y-78675518D01*
X111911928Y-78800000D01*
X111911928Y-79837126D01*
X108074801Y-76000000D01*
X110064801Y-74010000D01*
X112601928Y-74010000D01*
X112614188Y-74134482D01*
X112650498Y-74254180D01*
X112709463Y-74364494D01*
X112788815Y-74461185D01*
X112885506Y-74540537D01*
X112995820Y-74599502D01*
X113115518Y-74635812D01*
X113240000Y-74648072D01*
X113714250Y-74645000D01*
X113873000Y-74486250D01*
X113873000Y-73247000D01*
X114127000Y-73247000D01*
X114127000Y-74486250D01*
X114285750Y-74645000D01*
X114760000Y-74648072D01*
X114884482Y-74635812D01*
X115004180Y-74599502D01*
X115114494Y-74540537D01*
X115211185Y-74461185D01*
X115290537Y-74364494D01*
X115349502Y-74254180D01*
X115385812Y-74134482D01*
X115398072Y-74010000D01*
X115395000Y-73405750D01*
X115236250Y-73247000D01*
X114127000Y-73247000D01*
X113873000Y-73247000D01*
X112763750Y-73247000D01*
X112605000Y-73405750D01*
X112601928Y-74010000D01*
X110064801Y-74010000D01*
X111511004Y-72563798D01*
X111540001Y-72540001D01*
X111634974Y-72424276D01*
X111705546Y-72292247D01*
X111749003Y-72148986D01*
X111760000Y-72037333D01*
X111760000Y-72037324D01*
X111763676Y-72000001D01*
X111760000Y-71962678D01*
X111760000Y-71507538D01*
X111898061Y-71535000D01*
X112101939Y-71535000D01*
X112301898Y-71495226D01*
X112490256Y-71417205D01*
X112601928Y-71342588D01*
X112601928Y-71470000D01*
X112614188Y-71594482D01*
X112650498Y-71714180D01*
X112709463Y-71824494D01*
X112730395Y-71850000D01*
X112709463Y-71875506D01*
X112650498Y-71985820D01*
X112614188Y-72105518D01*
X112601928Y-72230000D01*
X112605000Y-72834250D01*
X112763750Y-72993000D01*
X113873000Y-72993000D01*
X113873000Y-72973000D01*
X114127000Y-72973000D01*
X114127000Y-72993000D01*
X115236250Y-72993000D01*
X115395000Y-72834250D01*
X115398072Y-72230000D01*
X115385812Y-72105518D01*
X115349502Y-71985820D01*
X115290537Y-71875506D01*
X115269605Y-71850000D01*
X115290537Y-71824494D01*
X115349502Y-71714180D01*
X115385812Y-71594482D01*
X115398072Y-71470000D01*
X115398072Y-69690000D01*
X115385812Y-69565518D01*
X115349502Y-69445820D01*
X115290537Y-69335506D01*
X115269605Y-69310000D01*
X115290537Y-69284494D01*
X115349502Y-69174180D01*
X115385812Y-69054482D01*
X115398072Y-68930000D01*
X115398072Y-67150000D01*
X115385812Y-67025518D01*
X115349502Y-66905820D01*
X115290537Y-66795506D01*
X115269605Y-66770000D01*
X115290537Y-66744494D01*
X115349502Y-66634180D01*
X115385812Y-66514482D01*
X115398072Y-66390000D01*
X115398072Y-65501729D01*
X115736612Y-65163190D01*
X117115001Y-66541580D01*
G37*
G04 #@! TD.AperFunction*
D32*
X92740000Y-65814802D02*
X92740001Y-67962667D01*
X92736324Y-68000000D01*
X92750998Y-68148985D01*
X92794454Y-68292246D01*
X92865026Y-68424276D01*
X92918142Y-68488997D01*
X92960000Y-68540001D01*
X92988998Y-68563799D01*
X93465000Y-69039802D01*
X93465000Y-69101939D01*
X93504774Y-69301898D01*
X93582795Y-69490256D01*
X93696063Y-69659774D01*
X93840226Y-69803937D01*
X94009744Y-69917205D01*
X94198102Y-69995226D01*
X94398061Y-70035000D01*
X94601939Y-70035000D01*
X94801898Y-69995226D01*
X94990256Y-69917205D01*
X95043710Y-69881488D01*
X93685199Y-71240000D01*
X91219839Y-71240000D01*
X91228008Y-71198931D01*
X91228008Y-71130412D01*
X91238805Y-71117256D01*
X91269974Y-71079277D01*
X91306698Y-71010573D01*
X91360820Y-71039502D01*
X91480518Y-71075812D01*
X91605000Y-71088072D01*
X91619250Y-71085000D01*
X91778000Y-70926250D01*
X91778000Y-69764500D01*
X92032000Y-69764500D01*
X92032000Y-70926250D01*
X92190750Y-71085000D01*
X92205000Y-71088072D01*
X92329482Y-71075812D01*
X92449180Y-71039502D01*
X92559494Y-70980537D01*
X92656185Y-70901185D01*
X92735537Y-70804494D01*
X92794502Y-70694180D01*
X92830812Y-70574482D01*
X92843072Y-70450000D01*
X92840000Y-69923250D01*
X92681250Y-69764500D01*
X92032000Y-69764500D01*
X91778000Y-69764500D01*
X91758000Y-69764500D01*
X91758000Y-69510500D01*
X91778000Y-69510500D01*
X91778000Y-69490500D01*
X92032000Y-69490500D01*
X92032000Y-69510500D01*
X92681250Y-69510500D01*
X92840000Y-69351750D01*
X92843072Y-68825000D01*
X92830812Y-68700518D01*
X92794502Y-68580820D01*
X92735537Y-68470506D01*
X92656185Y-68373815D01*
X92559494Y-68294463D01*
X92449180Y-68235498D01*
X92329482Y-68199188D01*
X92238072Y-68190185D01*
X92238072Y-65789033D01*
X92356582Y-65753084D01*
X92492829Y-65680258D01*
X92554689Y-65629491D01*
X92740000Y-65814802D01*
G04 #@! TA.AperFunction,Conductor*
D33*
G36*
X92740000Y-65814802D02*
G01*
X92740001Y-67962667D01*
X92736324Y-68000000D01*
X92750998Y-68148985D01*
X92794454Y-68292246D01*
X92865026Y-68424276D01*
X92918142Y-68488997D01*
X92960000Y-68540001D01*
X92988998Y-68563799D01*
X93465000Y-69039802D01*
X93465000Y-69101939D01*
X93504774Y-69301898D01*
X93582795Y-69490256D01*
X93696063Y-69659774D01*
X93840226Y-69803937D01*
X94009744Y-69917205D01*
X94198102Y-69995226D01*
X94398061Y-70035000D01*
X94601939Y-70035000D01*
X94801898Y-69995226D01*
X94990256Y-69917205D01*
X95043710Y-69881488D01*
X93685199Y-71240000D01*
X91219839Y-71240000D01*
X91228008Y-71198931D01*
X91228008Y-71130412D01*
X91238805Y-71117256D01*
X91269974Y-71079277D01*
X91306698Y-71010573D01*
X91360820Y-71039502D01*
X91480518Y-71075812D01*
X91605000Y-71088072D01*
X91619250Y-71085000D01*
X91778000Y-70926250D01*
X91778000Y-69764500D01*
X92032000Y-69764500D01*
X92032000Y-70926250D01*
X92190750Y-71085000D01*
X92205000Y-71088072D01*
X92329482Y-71075812D01*
X92449180Y-71039502D01*
X92559494Y-70980537D01*
X92656185Y-70901185D01*
X92735537Y-70804494D01*
X92794502Y-70694180D01*
X92830812Y-70574482D01*
X92843072Y-70450000D01*
X92840000Y-69923250D01*
X92681250Y-69764500D01*
X92032000Y-69764500D01*
X91778000Y-69764500D01*
X91758000Y-69764500D01*
X91758000Y-69510500D01*
X91778000Y-69510500D01*
X91778000Y-69490500D01*
X92032000Y-69490500D01*
X92032000Y-69510500D01*
X92681250Y-69510500D01*
X92840000Y-69351750D01*
X92843072Y-68825000D01*
X92830812Y-68700518D01*
X92794502Y-68580820D01*
X92735537Y-68470506D01*
X92656185Y-68373815D01*
X92559494Y-68294463D01*
X92449180Y-68235498D01*
X92329482Y-68199188D01*
X92238072Y-68190185D01*
X92238072Y-65789033D01*
X92356582Y-65753084D01*
X92492829Y-65680258D01*
X92554689Y-65629491D01*
X92740000Y-65814802D01*
G37*
G04 #@! TD.AperFunction*
D32*
X117851014Y-64749003D02*
X118000000Y-64763677D01*
X118037333Y-64760000D01*
X124685199Y-64760000D01*
X125488997Y-65563799D01*
X125489002Y-65563803D01*
X126320001Y-66394803D01*
X126320001Y-66721821D01*
X126133368Y-66846525D01*
X125926525Y-67053368D01*
X125810000Y-67227760D01*
X125693475Y-67053368D01*
X125486632Y-66846525D01*
X125243411Y-66684010D01*
X124973158Y-66572068D01*
X124686260Y-66515000D01*
X124393740Y-66515000D01*
X124106842Y-66572068D01*
X123836589Y-66684010D01*
X123593368Y-66846525D01*
X123461513Y-66978380D01*
X123439502Y-66905820D01*
X123380537Y-66795506D01*
X123301185Y-66698815D01*
X123204494Y-66619463D01*
X123094180Y-66560498D01*
X122974482Y-66524188D01*
X122850000Y-66511928D01*
X122285750Y-66515000D01*
X122127000Y-66673750D01*
X122127000Y-67873000D01*
X122147000Y-67873000D01*
X122147000Y-68127000D01*
X122127000Y-68127000D01*
X122127000Y-69326250D01*
X122285750Y-69485000D01*
X122850000Y-69488072D01*
X122913001Y-69481867D01*
X122529869Y-69865000D01*
X118885000Y-69865000D01*
X118885000Y-68850000D01*
X120511928Y-68850000D01*
X120524188Y-68974482D01*
X120560498Y-69094180D01*
X120619463Y-69204494D01*
X120698815Y-69301185D01*
X120795506Y-69380537D01*
X120905820Y-69439502D01*
X121025518Y-69475812D01*
X121150000Y-69488072D01*
X121714250Y-69485000D01*
X121873000Y-69326250D01*
X121873000Y-68127000D01*
X120673750Y-68127000D01*
X120515000Y-68285750D01*
X120511928Y-68850000D01*
X118885000Y-68850000D01*
X118885000Y-67150000D01*
X120511928Y-67150000D01*
X120515000Y-67714250D01*
X120673750Y-67873000D01*
X121873000Y-67873000D01*
X121873000Y-66673750D01*
X121714250Y-66515000D01*
X121150000Y-66511928D01*
X121025518Y-66524188D01*
X120905820Y-66560498D01*
X120795506Y-66619463D01*
X120698815Y-66698815D01*
X120619463Y-66795506D01*
X120560498Y-66905820D01*
X120524188Y-67025518D01*
X120511928Y-67150000D01*
X118885000Y-67150000D01*
X118885000Y-66218465D01*
X118889281Y-66174999D01*
X118885000Y-66131533D01*
X118885000Y-66131523D01*
X118872195Y-66001510D01*
X118821589Y-65834687D01*
X118739411Y-65680941D01*
X118701687Y-65634974D01*
X118656532Y-65579953D01*
X118656530Y-65579951D01*
X118628817Y-65546183D01*
X118595049Y-65518470D01*
X117814508Y-64737929D01*
X117851014Y-64749003D01*
G04 #@! TA.AperFunction,Conductor*
D33*
G36*
X117851014Y-64749003D02*
G01*
X118000000Y-64763677D01*
X118037333Y-64760000D01*
X124685199Y-64760000D01*
X125488997Y-65563799D01*
X125489002Y-65563803D01*
X126320001Y-66394803D01*
X126320001Y-66721821D01*
X126133368Y-66846525D01*
X125926525Y-67053368D01*
X125810000Y-67227760D01*
X125693475Y-67053368D01*
X125486632Y-66846525D01*
X125243411Y-66684010D01*
X124973158Y-66572068D01*
X124686260Y-66515000D01*
X124393740Y-66515000D01*
X124106842Y-66572068D01*
X123836589Y-66684010D01*
X123593368Y-66846525D01*
X123461513Y-66978380D01*
X123439502Y-66905820D01*
X123380537Y-66795506D01*
X123301185Y-66698815D01*
X123204494Y-66619463D01*
X123094180Y-66560498D01*
X122974482Y-66524188D01*
X122850000Y-66511928D01*
X122285750Y-66515000D01*
X122127000Y-66673750D01*
X122127000Y-67873000D01*
X122147000Y-67873000D01*
X122147000Y-68127000D01*
X122127000Y-68127000D01*
X122127000Y-69326250D01*
X122285750Y-69485000D01*
X122850000Y-69488072D01*
X122913001Y-69481867D01*
X122529869Y-69865000D01*
X118885000Y-69865000D01*
X118885000Y-68850000D01*
X120511928Y-68850000D01*
X120524188Y-68974482D01*
X120560498Y-69094180D01*
X120619463Y-69204494D01*
X120698815Y-69301185D01*
X120795506Y-69380537D01*
X120905820Y-69439502D01*
X121025518Y-69475812D01*
X121150000Y-69488072D01*
X121714250Y-69485000D01*
X121873000Y-69326250D01*
X121873000Y-68127000D01*
X120673750Y-68127000D01*
X120515000Y-68285750D01*
X120511928Y-68850000D01*
X118885000Y-68850000D01*
X118885000Y-67150000D01*
X120511928Y-67150000D01*
X120515000Y-67714250D01*
X120673750Y-67873000D01*
X121873000Y-67873000D01*
X121873000Y-66673750D01*
X121714250Y-66515000D01*
X121150000Y-66511928D01*
X121025518Y-66524188D01*
X120905820Y-66560498D01*
X120795506Y-66619463D01*
X120698815Y-66698815D01*
X120619463Y-66795506D01*
X120560498Y-66905820D01*
X120524188Y-67025518D01*
X120511928Y-67150000D01*
X118885000Y-67150000D01*
X118885000Y-66218465D01*
X118889281Y-66174999D01*
X118885000Y-66131533D01*
X118885000Y-66131523D01*
X118872195Y-66001510D01*
X118821589Y-65834687D01*
X118739411Y-65680941D01*
X118701687Y-65634974D01*
X118656532Y-65579953D01*
X118656530Y-65579951D01*
X118628817Y-65546183D01*
X118595049Y-65518470D01*
X117814508Y-64737929D01*
X117851014Y-64749003D01*
G37*
G04 #@! TD.AperFunction*
D32*
X116115001Y-55633420D02*
X115186494Y-56561928D01*
X114400000Y-56561928D01*
X114275518Y-56574188D01*
X114155820Y-56610498D01*
X114045506Y-56669463D01*
X113948815Y-56748815D01*
X113869463Y-56845506D01*
X113810498Y-56955820D01*
X113774188Y-57075518D01*
X113761928Y-57200000D01*
X113761928Y-58100000D01*
X113774188Y-58224482D01*
X113810498Y-58344180D01*
X113869463Y-58454494D01*
X113948815Y-58551185D01*
X114045506Y-58630537D01*
X114115000Y-58667683D01*
X114115001Y-61115000D01*
X113043469Y-61115000D01*
X113000000Y-61110719D01*
X112956531Y-61115000D01*
X112956523Y-61115000D01*
X112826510Y-61127805D01*
X112659686Y-61178411D01*
X112505941Y-61260589D01*
X112404953Y-61343468D01*
X112404951Y-61343470D01*
X112371183Y-61371183D01*
X112343470Y-61404951D01*
X111633422Y-62115000D01*
X107286579Y-62115000D01*
X106205701Y-61034123D01*
X106207000Y-61027592D01*
X106207000Y-60752408D01*
X106153314Y-60482510D01*
X106048005Y-60228273D01*
X105895120Y-59999465D01*
X105700535Y-59804880D01*
X105695000Y-59801182D01*
X105695000Y-59438818D01*
X105700535Y-59435120D01*
X105895120Y-59240535D01*
X106048005Y-59011727D01*
X106153314Y-58757490D01*
X106207000Y-58487592D01*
X106207000Y-58212408D01*
X106153314Y-57942510D01*
X106048005Y-57688273D01*
X105895120Y-57459465D01*
X105700535Y-57264880D01*
X105471727Y-57111995D01*
X105217490Y-57006686D01*
X104947592Y-56953000D01*
X104672408Y-56953000D01*
X104402510Y-57006686D01*
X104148273Y-57111995D01*
X104122087Y-57129492D01*
X104366579Y-56885000D01*
X105956531Y-56885000D01*
X106000000Y-56889281D01*
X106043469Y-56885000D01*
X106043477Y-56885000D01*
X106173490Y-56872195D01*
X106340313Y-56821589D01*
X106494059Y-56739411D01*
X106628817Y-56628817D01*
X106656534Y-56595044D01*
X107240119Y-56011459D01*
X107240000Y-56012668D01*
X107240000Y-56012678D01*
X107236324Y-56050000D01*
X107240000Y-56087323D01*
X107240001Y-57962668D01*
X107236324Y-58000000D01*
X107250998Y-58148985D01*
X107294454Y-58292246D01*
X107365026Y-58424276D01*
X107416989Y-58487592D01*
X107460000Y-58540001D01*
X107488998Y-58563799D01*
X108436201Y-59511003D01*
X108459999Y-59540001D01*
X108488997Y-59563799D01*
X108575724Y-59634974D01*
X108707753Y-59705546D01*
X108851014Y-59749003D01*
X109000000Y-59763677D01*
X109037333Y-59760000D01*
X109469084Y-59760000D01*
X109557394Y-59867606D01*
X109684392Y-59971831D01*
X109829284Y-60049278D01*
X109986500Y-60096969D01*
X110150000Y-60113072D01*
X110464431Y-60113072D01*
X110340226Y-60196063D01*
X110196063Y-60340226D01*
X110082795Y-60509744D01*
X110004774Y-60698102D01*
X109965000Y-60898061D01*
X109965000Y-61101939D01*
X110004774Y-61301898D01*
X110082795Y-61490256D01*
X110196063Y-61659774D01*
X110340226Y-61803937D01*
X110509744Y-61917205D01*
X110698102Y-61995226D01*
X110898061Y-62035000D01*
X111101939Y-62035000D01*
X111301898Y-61995226D01*
X111490256Y-61917205D01*
X111659774Y-61803937D01*
X111803937Y-61659774D01*
X111917205Y-61490256D01*
X111995226Y-61301898D01*
X112035000Y-61101939D01*
X112035000Y-61039801D01*
X112511003Y-60563799D01*
X112540001Y-60540001D01*
X112634974Y-60424276D01*
X112705546Y-60292247D01*
X112749003Y-60148986D01*
X112760000Y-60037333D01*
X112763677Y-60000000D01*
X112760000Y-59962667D01*
X112760000Y-59894365D01*
X112792606Y-59867606D01*
X112896831Y-59740608D01*
X112974278Y-59595716D01*
X113021969Y-59438500D01*
X113038072Y-59275000D01*
X113038072Y-58725000D01*
X113021969Y-58561500D01*
X112974278Y-58404284D01*
X112896831Y-58259392D01*
X112792606Y-58132394D01*
X112665608Y-58028169D01*
X112520716Y-57950722D01*
X112363500Y-57903031D01*
X112200000Y-57886928D01*
X111800000Y-57886928D01*
X111636500Y-57903031D01*
X111479284Y-57950722D01*
X111334392Y-58028169D01*
X111207394Y-58132394D01*
X111175000Y-58171866D01*
X111142606Y-58132394D01*
X111015608Y-58028169D01*
X110870716Y-57950722D01*
X110713500Y-57903031D01*
X110550000Y-57886928D01*
X110150000Y-57886928D01*
X109986500Y-57903031D01*
X109829284Y-57950722D01*
X109684392Y-58028169D01*
X109557394Y-58132394D01*
X109469084Y-58240000D01*
X109314802Y-58240000D01*
X108760000Y-57685199D01*
X108760000Y-56364801D01*
X109047799Y-56077002D01*
X109073748Y-56077002D01*
X108915000Y-56235750D01*
X108911928Y-56350000D01*
X108924188Y-56474482D01*
X108960498Y-56594180D01*
X109019463Y-56704494D01*
X109098815Y-56801185D01*
X109195506Y-56880537D01*
X109305820Y-56939502D01*
X109425518Y-56975812D01*
X109550000Y-56988072D01*
X109714250Y-56985000D01*
X109873000Y-56826250D01*
X109873000Y-56077000D01*
X110127000Y-56077000D01*
X110127000Y-56826250D01*
X110285750Y-56985000D01*
X110450000Y-56988072D01*
X110574482Y-56975812D01*
X110694180Y-56939502D01*
X110804494Y-56880537D01*
X110901185Y-56801185D01*
X110980537Y-56704494D01*
X111039502Y-56594180D01*
X111075812Y-56474482D01*
X111088072Y-56350000D01*
X111085000Y-56235750D01*
X110926250Y-56077000D01*
X110127000Y-56077000D01*
X109873000Y-56077000D01*
X109853000Y-56077000D01*
X109853000Y-55823000D01*
X109873000Y-55823000D01*
X109873000Y-55803000D01*
X110127000Y-55803000D01*
X110127000Y-55823000D01*
X110926250Y-55823000D01*
X111010857Y-55738393D01*
X111019463Y-55754494D01*
X111098815Y-55851185D01*
X111195506Y-55930537D01*
X111305820Y-55989502D01*
X111425518Y-56025812D01*
X111550000Y-56038072D01*
X112450000Y-56038072D01*
X112574482Y-56025812D01*
X112694180Y-55989502D01*
X112804494Y-55930537D01*
X112859981Y-55885000D01*
X114306531Y-55885000D01*
X114350000Y-55889281D01*
X114393469Y-55885000D01*
X114393477Y-55885000D01*
X114523490Y-55872195D01*
X114690313Y-55821589D01*
X114844059Y-55739411D01*
X114978817Y-55628817D01*
X115006534Y-55595044D01*
X115163506Y-55438072D01*
X115600000Y-55438072D01*
X115724482Y-55425812D01*
X115844180Y-55389502D01*
X115954494Y-55330537D01*
X116051185Y-55251185D01*
X116115001Y-55173425D01*
X116115001Y-55633420D01*
G04 #@! TA.AperFunction,Conductor*
D33*
G36*
X116115001Y-55633420D02*
G01*
X115186494Y-56561928D01*
X114400000Y-56561928D01*
X114275518Y-56574188D01*
X114155820Y-56610498D01*
X114045506Y-56669463D01*
X113948815Y-56748815D01*
X113869463Y-56845506D01*
X113810498Y-56955820D01*
X113774188Y-57075518D01*
X113761928Y-57200000D01*
X113761928Y-58100000D01*
X113774188Y-58224482D01*
X113810498Y-58344180D01*
X113869463Y-58454494D01*
X113948815Y-58551185D01*
X114045506Y-58630537D01*
X114115000Y-58667683D01*
X114115001Y-61115000D01*
X113043469Y-61115000D01*
X113000000Y-61110719D01*
X112956531Y-61115000D01*
X112956523Y-61115000D01*
X112826510Y-61127805D01*
X112659686Y-61178411D01*
X112505941Y-61260589D01*
X112404953Y-61343468D01*
X112404951Y-61343470D01*
X112371183Y-61371183D01*
X112343470Y-61404951D01*
X111633422Y-62115000D01*
X107286579Y-62115000D01*
X106205701Y-61034123D01*
X106207000Y-61027592D01*
X106207000Y-60752408D01*
X106153314Y-60482510D01*
X106048005Y-60228273D01*
X105895120Y-59999465D01*
X105700535Y-59804880D01*
X105695000Y-59801182D01*
X105695000Y-59438818D01*
X105700535Y-59435120D01*
X105895120Y-59240535D01*
X106048005Y-59011727D01*
X106153314Y-58757490D01*
X106207000Y-58487592D01*
X106207000Y-58212408D01*
X106153314Y-57942510D01*
X106048005Y-57688273D01*
X105895120Y-57459465D01*
X105700535Y-57264880D01*
X105471727Y-57111995D01*
X105217490Y-57006686D01*
X104947592Y-56953000D01*
X104672408Y-56953000D01*
X104402510Y-57006686D01*
X104148273Y-57111995D01*
X104122087Y-57129492D01*
X104366579Y-56885000D01*
X105956531Y-56885000D01*
X106000000Y-56889281D01*
X106043469Y-56885000D01*
X106043477Y-56885000D01*
X106173490Y-56872195D01*
X106340313Y-56821589D01*
X106494059Y-56739411D01*
X106628817Y-56628817D01*
X106656534Y-56595044D01*
X107240119Y-56011459D01*
X107240000Y-56012668D01*
X107240000Y-56012678D01*
X107236324Y-56050000D01*
X107240000Y-56087323D01*
X107240001Y-57962668D01*
X107236324Y-58000000D01*
X107250998Y-58148985D01*
X107294454Y-58292246D01*
X107365026Y-58424276D01*
X107416989Y-58487592D01*
X107460000Y-58540001D01*
X107488998Y-58563799D01*
X108436201Y-59511003D01*
X108459999Y-59540001D01*
X108488997Y-59563799D01*
X108575724Y-59634974D01*
X108707753Y-59705546D01*
X108851014Y-59749003D01*
X109000000Y-59763677D01*
X109037333Y-59760000D01*
X109469084Y-59760000D01*
X109557394Y-59867606D01*
X109684392Y-59971831D01*
X109829284Y-60049278D01*
X109986500Y-60096969D01*
X110150000Y-60113072D01*
X110464431Y-60113072D01*
X110340226Y-60196063D01*
X110196063Y-60340226D01*
X110082795Y-60509744D01*
X110004774Y-60698102D01*
X109965000Y-60898061D01*
X109965000Y-61101939D01*
X110004774Y-61301898D01*
X110082795Y-61490256D01*
X110196063Y-61659774D01*
X110340226Y-61803937D01*
X110509744Y-61917205D01*
X110698102Y-61995226D01*
X110898061Y-62035000D01*
X111101939Y-62035000D01*
X111301898Y-61995226D01*
X111490256Y-61917205D01*
X111659774Y-61803937D01*
X111803937Y-61659774D01*
X111917205Y-61490256D01*
X111995226Y-61301898D01*
X112035000Y-61101939D01*
X112035000Y-61039801D01*
X112511003Y-60563799D01*
X112540001Y-60540001D01*
X112634974Y-60424276D01*
X112705546Y-60292247D01*
X112749003Y-60148986D01*
X112760000Y-60037333D01*
X112763677Y-60000000D01*
X112760000Y-59962667D01*
X112760000Y-59894365D01*
X112792606Y-59867606D01*
X112896831Y-59740608D01*
X112974278Y-59595716D01*
X113021969Y-59438500D01*
X113038072Y-59275000D01*
X113038072Y-58725000D01*
X113021969Y-58561500D01*
X112974278Y-58404284D01*
X112896831Y-58259392D01*
X112792606Y-58132394D01*
X112665608Y-58028169D01*
X112520716Y-57950722D01*
X112363500Y-57903031D01*
X112200000Y-57886928D01*
X111800000Y-57886928D01*
X111636500Y-57903031D01*
X111479284Y-57950722D01*
X111334392Y-58028169D01*
X111207394Y-58132394D01*
X111175000Y-58171866D01*
X111142606Y-58132394D01*
X111015608Y-58028169D01*
X110870716Y-57950722D01*
X110713500Y-57903031D01*
X110550000Y-57886928D01*
X110150000Y-57886928D01*
X109986500Y-57903031D01*
X109829284Y-57950722D01*
X109684392Y-58028169D01*
X109557394Y-58132394D01*
X109469084Y-58240000D01*
X109314802Y-58240000D01*
X108760000Y-57685199D01*
X108760000Y-56364801D01*
X109047799Y-56077002D01*
X109073748Y-56077002D01*
X108915000Y-56235750D01*
X108911928Y-56350000D01*
X108924188Y-56474482D01*
X108960498Y-56594180D01*
X109019463Y-56704494D01*
X109098815Y-56801185D01*
X109195506Y-56880537D01*
X109305820Y-56939502D01*
X109425518Y-56975812D01*
X109550000Y-56988072D01*
X109714250Y-56985000D01*
X109873000Y-56826250D01*
X109873000Y-56077000D01*
X110127000Y-56077000D01*
X110127000Y-56826250D01*
X110285750Y-56985000D01*
X110450000Y-56988072D01*
X110574482Y-56975812D01*
X110694180Y-56939502D01*
X110804494Y-56880537D01*
X110901185Y-56801185D01*
X110980537Y-56704494D01*
X111039502Y-56594180D01*
X111075812Y-56474482D01*
X111088072Y-56350000D01*
X111085000Y-56235750D01*
X110926250Y-56077000D01*
X110127000Y-56077000D01*
X109873000Y-56077000D01*
X109853000Y-56077000D01*
X109853000Y-55823000D01*
X109873000Y-55823000D01*
X109873000Y-55803000D01*
X110127000Y-55803000D01*
X110127000Y-55823000D01*
X110926250Y-55823000D01*
X111010857Y-55738393D01*
X111019463Y-55754494D01*
X111098815Y-55851185D01*
X111195506Y-55930537D01*
X111305820Y-55989502D01*
X111425518Y-56025812D01*
X111550000Y-56038072D01*
X112450000Y-56038072D01*
X112574482Y-56025812D01*
X112694180Y-55989502D01*
X112804494Y-55930537D01*
X112859981Y-55885000D01*
X114306531Y-55885000D01*
X114350000Y-55889281D01*
X114393469Y-55885000D01*
X114393477Y-55885000D01*
X114523490Y-55872195D01*
X114690313Y-55821589D01*
X114844059Y-55739411D01*
X114978817Y-55628817D01*
X115006534Y-55595044D01*
X115163506Y-55438072D01*
X115600000Y-55438072D01*
X115724482Y-55425812D01*
X115844180Y-55389502D01*
X115954494Y-55330537D01*
X116051185Y-55251185D01*
X116115001Y-55173425D01*
X116115001Y-55633420D01*
G37*
G04 #@! TD.AperFunction*
M02*
