G04 #@! TF.GenerationSoftware,KiCad,Pcbnew,5.1.10-88a1d61d58~88~ubuntu20.10.1*
G04 #@! TF.CreationDate,2021-05-12T21:52:12+02:00*
G04 #@! TF.ProjectId,Servopoint_opto,53657276-6f70-46f6-996e-745f6f70746f,rev?*
G04 #@! TF.SameCoordinates,Original*
G04 #@! TF.FileFunction,Copper,L2,Bot*
G04 #@! TF.FilePolarity,Positive*
%FSLAX46Y46*%
G04 Gerber Fmt 4.6, Leading zero omitted, Abs format (unit mm)*
G04 Created by KiCad (PCBNEW 5.1.10-88a1d61d58~88~ubuntu20.10.1) date 2021-05-12 21:52:12*
%MOMM*%
%LPD*%
G01*
G04 APERTURE LIST*
G04 #@! TA.AperFunction,ComponentPad*
%ADD10C,2.550000*%
G04 #@! TD*
G04 #@! TA.AperFunction,ComponentPad*
%ADD11R,2.550000X2.550000*%
G04 #@! TD*
G04 #@! TA.AperFunction,ComponentPad*
%ADD12O,1.700000X1.700000*%
G04 #@! TD*
G04 #@! TA.AperFunction,ComponentPad*
%ADD13R,1.700000X1.700000*%
G04 #@! TD*
G04 #@! TA.AperFunction,ComponentPad*
%ADD14C,1.524000*%
G04 #@! TD*
G04 #@! TA.AperFunction,ViaPad*
%ADD15C,0.800000*%
G04 #@! TD*
G04 #@! TA.AperFunction,Conductor*
%ADD16C,0.250000*%
G04 #@! TD*
G04 #@! TA.AperFunction,Conductor*
%ADD17C,1.000000*%
G04 #@! TD*
G04 #@! TA.AperFunction,Conductor*
%ADD18C,0.254000*%
G04 #@! TD*
G04 #@! TA.AperFunction,Conductor*
%ADD19C,0.100000*%
G04 #@! TD*
G04 APERTURE END LIST*
D10*
X80000000Y-50840000D03*
X80000000Y-55920000D03*
D11*
X80000000Y-61000000D03*
D10*
X120000000Y-61160000D03*
X120000000Y-56080000D03*
D11*
X120000000Y-51000000D03*
D10*
X80000000Y-75000000D03*
X80000000Y-80080000D03*
X80000000Y-85160000D03*
D11*
X80000000Y-90240000D03*
D10*
X120000000Y-90240000D03*
X120000000Y-85160000D03*
X120000000Y-80080000D03*
D11*
X120000000Y-75000000D03*
D12*
X73840000Y-68000000D03*
X76380000Y-68000000D03*
X78920000Y-68000000D03*
X81460000Y-68000000D03*
D13*
X84000000Y-68000000D03*
D14*
X104810000Y-60890000D03*
X104810000Y-58350000D03*
X104810000Y-53270000D03*
X104810000Y-48190000D03*
X104810000Y-43110000D03*
X97190000Y-43110000D03*
X97190000Y-48190000D03*
X97190000Y-53270000D03*
X97190000Y-58350000D03*
X97190000Y-60890000D03*
D13*
X122000000Y-68000000D03*
D12*
X124540000Y-68000000D03*
X127080000Y-68000000D03*
D15*
X89000000Y-45000000D03*
X80000000Y-47000000D03*
X109000000Y-45000000D03*
X113000000Y-57000000D03*
X115975000Y-73000000D03*
X93000000Y-71000000D03*
X96000000Y-72000000D03*
X117000000Y-62000000D03*
X90635000Y-61365000D03*
X89365000Y-59635000D03*
X86000000Y-58000000D03*
X87000000Y-70000000D03*
X96500000Y-71000000D03*
X112000000Y-70500000D03*
X94500000Y-69000000D03*
X101000000Y-69500000D03*
X92500000Y-55000000D03*
X95000000Y-66000000D03*
X101000000Y-57000000D03*
X111000000Y-61000000D03*
X90193008Y-71096992D03*
X108500000Y-72000000D03*
X108500000Y-66500000D03*
X107000000Y-69500000D03*
X101000000Y-68000000D03*
D16*
X93000000Y-71000000D02*
X95000000Y-71000000D01*
X95000000Y-71000000D02*
X96000000Y-72000000D01*
X96000000Y-72000000D02*
X95292890Y-71292890D01*
X117000000Y-62000000D02*
X114000000Y-59000000D01*
X114000000Y-59000000D02*
X109000000Y-59000000D01*
X109000000Y-59000000D02*
X106000000Y-56000000D01*
X90635000Y-61365000D02*
X90635000Y-60365000D01*
X90635000Y-60365000D02*
X95000000Y-56000000D01*
X95000000Y-56000000D02*
X106000000Y-56000000D01*
X89365000Y-59365000D02*
X89365000Y-59635000D01*
X88000000Y-58000000D02*
X89365000Y-59365000D01*
X86000000Y-58000000D02*
X88000000Y-58000000D01*
X87000000Y-70000000D02*
X95500000Y-70000000D01*
X95500000Y-70000000D02*
X96500000Y-71000000D01*
X96500000Y-71000000D02*
X111500000Y-71000000D01*
X111500000Y-71000000D02*
X112000000Y-70500000D01*
D17*
X117190000Y-48190000D02*
X120000000Y-51000000D01*
X104810000Y-48190000D02*
X117190000Y-48190000D01*
X117190000Y-53270000D02*
X120000000Y-56080000D01*
X104810000Y-53270000D02*
X117190000Y-53270000D01*
X124000000Y-48000000D02*
X119110000Y-43110000D01*
X124000000Y-59000000D02*
X124000000Y-48000000D01*
X119110000Y-43110000D02*
X104810000Y-43110000D01*
X121840000Y-61160000D02*
X124000000Y-59000000D01*
X120000000Y-61160000D02*
X121840000Y-61160000D01*
D16*
X94500000Y-69000000D02*
X100500000Y-69000000D01*
X100500000Y-69000000D02*
X101000000Y-69500000D01*
X78920000Y-68000000D02*
X78920000Y-70080000D01*
X78920000Y-70080000D02*
X78000000Y-71000000D01*
X78000000Y-71000000D02*
X72500000Y-71000000D01*
X72500000Y-71000000D02*
X71500000Y-70000000D01*
X71500000Y-70000000D02*
X71500000Y-65500000D01*
X71500000Y-65500000D02*
X73500000Y-63500000D01*
X73500000Y-63500000D02*
X83000000Y-63500000D01*
X83000000Y-63500000D02*
X84000000Y-62500000D01*
X84000000Y-56000000D02*
X85500000Y-54500000D01*
X84000000Y-62500000D02*
X84000000Y-56000000D01*
X85500000Y-54500000D02*
X92000000Y-54500000D01*
X92000000Y-54500000D02*
X92500000Y-55000000D01*
X95000000Y-66000000D02*
X98000000Y-66000000D01*
X98000000Y-66000000D02*
X102000000Y-62000000D01*
X101000000Y-57000000D02*
X102000000Y-58000000D01*
X102000000Y-58000000D02*
X102000000Y-62000000D01*
X76380000Y-67490000D02*
X76380000Y-68000000D01*
X76200000Y-67310000D02*
X76380000Y-67490000D01*
X78740000Y-64770000D02*
X76200000Y-67310000D01*
X83820000Y-64770000D02*
X78740000Y-64770000D01*
X87000000Y-67950000D02*
X83820000Y-64770000D01*
X87000000Y-68000000D02*
X87000000Y-67950000D01*
X87050000Y-68000000D02*
X87000000Y-68000000D01*
X90096016Y-71000000D02*
X90193008Y-71096992D01*
X86852998Y-71000000D02*
X90096016Y-71000000D01*
X86224999Y-70372001D02*
X86852998Y-71000000D01*
X86224999Y-68825001D02*
X86224999Y-70372001D01*
X87050000Y-68000000D02*
X86224999Y-68825001D01*
X90193008Y-71096992D02*
X92500000Y-73403984D01*
X92500000Y-73403984D02*
X107596016Y-73403984D01*
X108500000Y-72500000D02*
X108500000Y-72000000D01*
X107596016Y-73403984D02*
X108500000Y-72500000D01*
X111000000Y-64000000D02*
X108500000Y-66500000D01*
X111000000Y-61000000D02*
X111000000Y-64000000D01*
D17*
X80000000Y-75000000D02*
X120000000Y-75000000D01*
X80000000Y-90240000D02*
X120000000Y-90240000D01*
X80000000Y-80080000D02*
X120000000Y-80080000D01*
D16*
X120000000Y-80080000D02*
X124000000Y-76080000D01*
X124000000Y-76080000D02*
X124000000Y-73500000D01*
X124000000Y-73500000D02*
X120000000Y-69500000D01*
X120000000Y-69500000D02*
X107000000Y-69500000D01*
D17*
X80000000Y-85160000D02*
X120000000Y-85160000D01*
D16*
X129000000Y-76160000D02*
X120000000Y-85160000D01*
X128000000Y-65000000D02*
X129000000Y-66000000D01*
X129000000Y-66000000D02*
X129000000Y-76160000D01*
X117500000Y-65000000D02*
X128000000Y-65000000D01*
X114500000Y-68000000D02*
X117500000Y-65000000D01*
X101000000Y-68000000D02*
X114500000Y-68000000D01*
D17*
X82650000Y-48190000D02*
X80000000Y-50840000D01*
X97190000Y-48190000D02*
X82650000Y-48190000D01*
X82650000Y-53270000D02*
X80000000Y-55920000D01*
X97190000Y-53270000D02*
X82650000Y-53270000D01*
X79890000Y-43110000D02*
X97190000Y-43110000D01*
X79000000Y-61000000D02*
X76000000Y-58000000D01*
X80000000Y-61000000D02*
X79000000Y-61000000D01*
X79890000Y-43110000D02*
X79890000Y-45110000D01*
X79890000Y-45110000D02*
X76000000Y-49000000D01*
X76000000Y-49000000D02*
X76000000Y-58000000D01*
D18*
X84487127Y-66511928D02*
X83150000Y-66511928D01*
X83025518Y-66524188D01*
X82905820Y-66560498D01*
X82795506Y-66619463D01*
X82698815Y-66698815D01*
X82619463Y-66795506D01*
X82560498Y-66905820D01*
X82536034Y-66986466D01*
X82460269Y-66902412D01*
X82226920Y-66728359D01*
X81964099Y-66603175D01*
X81816890Y-66558524D01*
X81587000Y-66679845D01*
X81587000Y-67873000D01*
X81607000Y-67873000D01*
X81607000Y-68127000D01*
X81587000Y-68127000D01*
X81587000Y-69320155D01*
X81816890Y-69441476D01*
X81964099Y-69396825D01*
X82226920Y-69271641D01*
X82460269Y-69097588D01*
X82536034Y-69013534D01*
X82560498Y-69094180D01*
X82619463Y-69204494D01*
X82698815Y-69301185D01*
X82795506Y-69380537D01*
X82905820Y-69439502D01*
X83025518Y-69475812D01*
X83150000Y-69488072D01*
X84850000Y-69488072D01*
X84974482Y-69475812D01*
X85094180Y-69439502D01*
X85204494Y-69380537D01*
X85301185Y-69301185D01*
X85380537Y-69204494D01*
X85439502Y-69094180D01*
X85464999Y-69010127D01*
X85465000Y-70334669D01*
X85461323Y-70372001D01*
X85475997Y-70520986D01*
X85519453Y-70664247D01*
X85590025Y-70796277D01*
X85628926Y-70843677D01*
X85684999Y-70912002D01*
X85713997Y-70935800D01*
X86289198Y-71511002D01*
X86312997Y-71540001D01*
X86428722Y-71634974D01*
X86560751Y-71705546D01*
X86704012Y-71749003D01*
X86815665Y-71760000D01*
X86815673Y-71760000D01*
X86852998Y-71763676D01*
X86890323Y-71760000D01*
X89392305Y-71760000D01*
X89533234Y-71900929D01*
X89702752Y-72014197D01*
X89891110Y-72092218D01*
X90091069Y-72131992D01*
X90153207Y-72131992D01*
X91886213Y-73865000D01*
X81538755Y-73865000D01*
X81483594Y-73782446D01*
X81217554Y-73516406D01*
X80904724Y-73307380D01*
X80557127Y-73163400D01*
X80188119Y-73090000D01*
X79811881Y-73090000D01*
X79442873Y-73163400D01*
X79095276Y-73307380D01*
X78782446Y-73516406D01*
X78516406Y-73782446D01*
X78307380Y-74095276D01*
X78163400Y-74442873D01*
X78090000Y-74811881D01*
X78090000Y-75188119D01*
X78163400Y-75557127D01*
X78307380Y-75904724D01*
X78516406Y-76217554D01*
X78782446Y-76483594D01*
X79095276Y-76692620D01*
X79442873Y-76836600D01*
X79811881Y-76910000D01*
X80188119Y-76910000D01*
X80557127Y-76836600D01*
X80904724Y-76692620D01*
X81217554Y-76483594D01*
X81483594Y-76217554D01*
X81538755Y-76135000D01*
X118086928Y-76135000D01*
X118086928Y-76275000D01*
X118099188Y-76399482D01*
X118135498Y-76519180D01*
X118194463Y-76629494D01*
X118273815Y-76726185D01*
X118370506Y-76805537D01*
X118480820Y-76864502D01*
X118600518Y-76900812D01*
X118725000Y-76913072D01*
X121275000Y-76913072D01*
X121399482Y-76900812D01*
X121519180Y-76864502D01*
X121629494Y-76805537D01*
X121726185Y-76726185D01*
X121805537Y-76629494D01*
X121864502Y-76519180D01*
X121900812Y-76399482D01*
X121913072Y-76275000D01*
X121913072Y-73725000D01*
X121900812Y-73600518D01*
X121864502Y-73480820D01*
X121805537Y-73370506D01*
X121726185Y-73273815D01*
X121629494Y-73194463D01*
X121519180Y-73135498D01*
X121399482Y-73099188D01*
X121275000Y-73086928D01*
X118725000Y-73086928D01*
X118600518Y-73099188D01*
X118480820Y-73135498D01*
X118370506Y-73194463D01*
X118273815Y-73273815D01*
X118194463Y-73370506D01*
X118135498Y-73480820D01*
X118099188Y-73600518D01*
X118086928Y-73725000D01*
X118086928Y-73865000D01*
X108209801Y-73865000D01*
X109011009Y-73063794D01*
X109040001Y-73040001D01*
X109063795Y-73011008D01*
X109063799Y-73011004D01*
X109134973Y-72924277D01*
X109134974Y-72924276D01*
X109205546Y-72792247D01*
X109220386Y-72743325D01*
X109303937Y-72659774D01*
X109417205Y-72490256D01*
X109495226Y-72301898D01*
X109535000Y-72101939D01*
X109535000Y-71898061D01*
X109507538Y-71760000D01*
X111462678Y-71760000D01*
X111500000Y-71763676D01*
X111537322Y-71760000D01*
X111537333Y-71760000D01*
X111648986Y-71749003D01*
X111792247Y-71705546D01*
X111924276Y-71634974D01*
X112040001Y-71540001D01*
X112044105Y-71535000D01*
X112101939Y-71535000D01*
X112301898Y-71495226D01*
X112490256Y-71417205D01*
X112659774Y-71303937D01*
X112803937Y-71159774D01*
X112917205Y-70990256D01*
X112995226Y-70801898D01*
X113035000Y-70601939D01*
X113035000Y-70398061D01*
X113007538Y-70260000D01*
X119685199Y-70260000D01*
X123240001Y-73814803D01*
X123240000Y-75765198D01*
X120701852Y-78303347D01*
X120557127Y-78243400D01*
X120188119Y-78170000D01*
X119811881Y-78170000D01*
X119442873Y-78243400D01*
X119095276Y-78387380D01*
X118782446Y-78596406D01*
X118516406Y-78862446D01*
X118461245Y-78945000D01*
X81538755Y-78945000D01*
X81483594Y-78862446D01*
X81217554Y-78596406D01*
X80904724Y-78387380D01*
X80557127Y-78243400D01*
X80188119Y-78170000D01*
X79811881Y-78170000D01*
X79442873Y-78243400D01*
X79095276Y-78387380D01*
X78782446Y-78596406D01*
X78516406Y-78862446D01*
X78307380Y-79175276D01*
X78163400Y-79522873D01*
X78090000Y-79891881D01*
X78090000Y-80268119D01*
X78163400Y-80637127D01*
X78307380Y-80984724D01*
X78516406Y-81297554D01*
X78782446Y-81563594D01*
X79095276Y-81772620D01*
X79442873Y-81916600D01*
X79811881Y-81990000D01*
X80188119Y-81990000D01*
X80557127Y-81916600D01*
X80904724Y-81772620D01*
X81217554Y-81563594D01*
X81483594Y-81297554D01*
X81538755Y-81215000D01*
X118461245Y-81215000D01*
X118516406Y-81297554D01*
X118782446Y-81563594D01*
X119095276Y-81772620D01*
X119442873Y-81916600D01*
X119811881Y-81990000D01*
X120188119Y-81990000D01*
X120557127Y-81916600D01*
X120904724Y-81772620D01*
X121217554Y-81563594D01*
X121483594Y-81297554D01*
X121692620Y-80984724D01*
X121836600Y-80637127D01*
X121910000Y-80268119D01*
X121910000Y-79891881D01*
X121836600Y-79522873D01*
X121776653Y-79378148D01*
X124511004Y-76643798D01*
X124540001Y-76620001D01*
X124634974Y-76504276D01*
X124705546Y-76372247D01*
X124749003Y-76228986D01*
X124760000Y-76117333D01*
X124760000Y-76117324D01*
X124763676Y-76080001D01*
X124760000Y-76042678D01*
X124760000Y-73537322D01*
X124763676Y-73499999D01*
X124760000Y-73462676D01*
X124760000Y-73462667D01*
X124749003Y-73351014D01*
X124705546Y-73207753D01*
X124634974Y-73075724D01*
X124540001Y-72959999D01*
X124511003Y-72936201D01*
X121053355Y-69478554D01*
X121150000Y-69488072D01*
X121714250Y-69485000D01*
X121873000Y-69326250D01*
X121873000Y-68127000D01*
X120673750Y-68127000D01*
X120515000Y-68285750D01*
X120511928Y-68850000D01*
X120521246Y-68944607D01*
X120424276Y-68865026D01*
X120292247Y-68794454D01*
X120148986Y-68750997D01*
X120037333Y-68740000D01*
X120037322Y-68740000D01*
X120000000Y-68736324D01*
X119962678Y-68740000D01*
X114678665Y-68740000D01*
X114792247Y-68705546D01*
X114924276Y-68634974D01*
X115040001Y-68540001D01*
X115063804Y-68510997D01*
X116424801Y-67150000D01*
X120511928Y-67150000D01*
X120515000Y-67714250D01*
X120673750Y-67873000D01*
X121873000Y-67873000D01*
X121873000Y-66673750D01*
X121714250Y-66515000D01*
X121150000Y-66511928D01*
X121025518Y-66524188D01*
X120905820Y-66560498D01*
X120795506Y-66619463D01*
X120698815Y-66698815D01*
X120619463Y-66795506D01*
X120560498Y-66905820D01*
X120524188Y-67025518D01*
X120511928Y-67150000D01*
X116424801Y-67150000D01*
X117814802Y-65760000D01*
X127685199Y-65760000D01*
X128240000Y-66314802D01*
X128240000Y-67063134D01*
X128233475Y-67053368D01*
X128026632Y-66846525D01*
X127783411Y-66684010D01*
X127513158Y-66572068D01*
X127226260Y-66515000D01*
X126933740Y-66515000D01*
X126646842Y-66572068D01*
X126376589Y-66684010D01*
X126133368Y-66846525D01*
X125926525Y-67053368D01*
X125810000Y-67227760D01*
X125693475Y-67053368D01*
X125486632Y-66846525D01*
X125243411Y-66684010D01*
X124973158Y-66572068D01*
X124686260Y-66515000D01*
X124393740Y-66515000D01*
X124106842Y-66572068D01*
X123836589Y-66684010D01*
X123593368Y-66846525D01*
X123461513Y-66978380D01*
X123439502Y-66905820D01*
X123380537Y-66795506D01*
X123301185Y-66698815D01*
X123204494Y-66619463D01*
X123094180Y-66560498D01*
X122974482Y-66524188D01*
X122850000Y-66511928D01*
X122285750Y-66515000D01*
X122127000Y-66673750D01*
X122127000Y-67873000D01*
X122147000Y-67873000D01*
X122147000Y-68127000D01*
X122127000Y-68127000D01*
X122127000Y-69326250D01*
X122285750Y-69485000D01*
X122850000Y-69488072D01*
X122974482Y-69475812D01*
X123094180Y-69439502D01*
X123204494Y-69380537D01*
X123301185Y-69301185D01*
X123380537Y-69204494D01*
X123439502Y-69094180D01*
X123461513Y-69021620D01*
X123593368Y-69153475D01*
X123836589Y-69315990D01*
X124106842Y-69427932D01*
X124393740Y-69485000D01*
X124686260Y-69485000D01*
X124973158Y-69427932D01*
X125243411Y-69315990D01*
X125486632Y-69153475D01*
X125693475Y-68946632D01*
X125810000Y-68772240D01*
X125926525Y-68946632D01*
X126133368Y-69153475D01*
X126376589Y-69315990D01*
X126646842Y-69427932D01*
X126933740Y-69485000D01*
X127226260Y-69485000D01*
X127513158Y-69427932D01*
X127783411Y-69315990D01*
X128026632Y-69153475D01*
X128233475Y-68946632D01*
X128240000Y-68936866D01*
X128240001Y-75845197D01*
X120701852Y-83383347D01*
X120557127Y-83323400D01*
X120188119Y-83250000D01*
X119811881Y-83250000D01*
X119442873Y-83323400D01*
X119095276Y-83467380D01*
X118782446Y-83676406D01*
X118516406Y-83942446D01*
X118461245Y-84025000D01*
X81538755Y-84025000D01*
X81483594Y-83942446D01*
X81217554Y-83676406D01*
X80904724Y-83467380D01*
X80557127Y-83323400D01*
X80188119Y-83250000D01*
X79811881Y-83250000D01*
X79442873Y-83323400D01*
X79095276Y-83467380D01*
X78782446Y-83676406D01*
X78516406Y-83942446D01*
X78307380Y-84255276D01*
X78163400Y-84602873D01*
X78090000Y-84971881D01*
X78090000Y-85348119D01*
X78163400Y-85717127D01*
X78307380Y-86064724D01*
X78516406Y-86377554D01*
X78782446Y-86643594D01*
X79095276Y-86852620D01*
X79442873Y-86996600D01*
X79811881Y-87070000D01*
X80188119Y-87070000D01*
X80557127Y-86996600D01*
X80904724Y-86852620D01*
X81217554Y-86643594D01*
X81483594Y-86377554D01*
X81538755Y-86295000D01*
X118461245Y-86295000D01*
X118516406Y-86377554D01*
X118782446Y-86643594D01*
X119095276Y-86852620D01*
X119442873Y-86996600D01*
X119811881Y-87070000D01*
X120188119Y-87070000D01*
X120557127Y-86996600D01*
X120904724Y-86852620D01*
X121217554Y-86643594D01*
X121483594Y-86377554D01*
X121692620Y-86064724D01*
X121836600Y-85717127D01*
X121910000Y-85348119D01*
X121910000Y-84971881D01*
X121836600Y-84602873D01*
X121776653Y-84458148D01*
X128873000Y-77361802D01*
X128873000Y-99873000D01*
X71127000Y-99873000D01*
X71127000Y-96834042D01*
X72315000Y-96834042D01*
X72315000Y-97165958D01*
X72379754Y-97491496D01*
X72506772Y-97798147D01*
X72691175Y-98074125D01*
X72925875Y-98308825D01*
X73201853Y-98493228D01*
X73508504Y-98620246D01*
X73834042Y-98685000D01*
X74165958Y-98685000D01*
X74491496Y-98620246D01*
X74798147Y-98493228D01*
X75074125Y-98308825D01*
X75308825Y-98074125D01*
X75493228Y-97798147D01*
X75620246Y-97491496D01*
X75685000Y-97165958D01*
X75685000Y-96834042D01*
X124315000Y-96834042D01*
X124315000Y-97165958D01*
X124379754Y-97491496D01*
X124506772Y-97798147D01*
X124691175Y-98074125D01*
X124925875Y-98308825D01*
X125201853Y-98493228D01*
X125508504Y-98620246D01*
X125834042Y-98685000D01*
X126165958Y-98685000D01*
X126491496Y-98620246D01*
X126798147Y-98493228D01*
X127074125Y-98308825D01*
X127308825Y-98074125D01*
X127493228Y-97798147D01*
X127620246Y-97491496D01*
X127685000Y-97165958D01*
X127685000Y-96834042D01*
X127620246Y-96508504D01*
X127493228Y-96201853D01*
X127308825Y-95925875D01*
X127074125Y-95691175D01*
X126798147Y-95506772D01*
X126491496Y-95379754D01*
X126165958Y-95315000D01*
X125834042Y-95315000D01*
X125508504Y-95379754D01*
X125201853Y-95506772D01*
X124925875Y-95691175D01*
X124691175Y-95925875D01*
X124506772Y-96201853D01*
X124379754Y-96508504D01*
X124315000Y-96834042D01*
X75685000Y-96834042D01*
X75620246Y-96508504D01*
X75493228Y-96201853D01*
X75308825Y-95925875D01*
X75074125Y-95691175D01*
X74798147Y-95506772D01*
X74491496Y-95379754D01*
X74165958Y-95315000D01*
X73834042Y-95315000D01*
X73508504Y-95379754D01*
X73201853Y-95506772D01*
X72925875Y-95691175D01*
X72691175Y-95925875D01*
X72506772Y-96201853D01*
X72379754Y-96508504D01*
X72315000Y-96834042D01*
X71127000Y-96834042D01*
X71127000Y-88965000D01*
X78086928Y-88965000D01*
X78086928Y-91515000D01*
X78099188Y-91639482D01*
X78135498Y-91759180D01*
X78194463Y-91869494D01*
X78273815Y-91966185D01*
X78370506Y-92045537D01*
X78480820Y-92104502D01*
X78600518Y-92140812D01*
X78725000Y-92153072D01*
X81275000Y-92153072D01*
X81399482Y-92140812D01*
X81519180Y-92104502D01*
X81629494Y-92045537D01*
X81726185Y-91966185D01*
X81805537Y-91869494D01*
X81864502Y-91759180D01*
X81900812Y-91639482D01*
X81913072Y-91515000D01*
X81913072Y-91375000D01*
X118461245Y-91375000D01*
X118516406Y-91457554D01*
X118782446Y-91723594D01*
X119095276Y-91932620D01*
X119442873Y-92076600D01*
X119811881Y-92150000D01*
X120188119Y-92150000D01*
X120557127Y-92076600D01*
X120904724Y-91932620D01*
X121217554Y-91723594D01*
X121483594Y-91457554D01*
X121692620Y-91144724D01*
X121836600Y-90797127D01*
X121910000Y-90428119D01*
X121910000Y-90051881D01*
X121836600Y-89682873D01*
X121692620Y-89335276D01*
X121483594Y-89022446D01*
X121217554Y-88756406D01*
X120904724Y-88547380D01*
X120557127Y-88403400D01*
X120188119Y-88330000D01*
X119811881Y-88330000D01*
X119442873Y-88403400D01*
X119095276Y-88547380D01*
X118782446Y-88756406D01*
X118516406Y-89022446D01*
X118461245Y-89105000D01*
X81913072Y-89105000D01*
X81913072Y-88965000D01*
X81900812Y-88840518D01*
X81864502Y-88720820D01*
X81805537Y-88610506D01*
X81726185Y-88513815D01*
X81629494Y-88434463D01*
X81519180Y-88375498D01*
X81399482Y-88339188D01*
X81275000Y-88326928D01*
X78725000Y-88326928D01*
X78600518Y-88339188D01*
X78480820Y-88375498D01*
X78370506Y-88434463D01*
X78273815Y-88513815D01*
X78194463Y-88610506D01*
X78135498Y-88720820D01*
X78099188Y-88840518D01*
X78086928Y-88965000D01*
X71127000Y-88965000D01*
X71127000Y-70701802D01*
X71936200Y-71511002D01*
X71959999Y-71540001D01*
X71988997Y-71563799D01*
X72075724Y-71634974D01*
X72207753Y-71705546D01*
X72351014Y-71749003D01*
X72500000Y-71763677D01*
X72537333Y-71760000D01*
X77962678Y-71760000D01*
X78000000Y-71763676D01*
X78037322Y-71760000D01*
X78037333Y-71760000D01*
X78148986Y-71749003D01*
X78292247Y-71705546D01*
X78424276Y-71634974D01*
X78540001Y-71540001D01*
X78563803Y-71510998D01*
X79431008Y-70643795D01*
X79460001Y-70620001D01*
X79483795Y-70591008D01*
X79483799Y-70591004D01*
X79549454Y-70511002D01*
X79554974Y-70504276D01*
X79625546Y-70372247D01*
X79669003Y-70228986D01*
X79680000Y-70117333D01*
X79680000Y-70117324D01*
X79683676Y-70080001D01*
X79680000Y-70042678D01*
X79680000Y-69278178D01*
X79866632Y-69153475D01*
X80073475Y-68946632D01*
X80195195Y-68764466D01*
X80264822Y-68881355D01*
X80459731Y-69097588D01*
X80693080Y-69271641D01*
X80955901Y-69396825D01*
X81103110Y-69441476D01*
X81333000Y-69320155D01*
X81333000Y-68127000D01*
X81313000Y-68127000D01*
X81313000Y-67873000D01*
X81333000Y-67873000D01*
X81333000Y-66679845D01*
X81103110Y-66558524D01*
X80955901Y-66603175D01*
X80693080Y-66728359D01*
X80459731Y-66902412D01*
X80264822Y-67118645D01*
X80195195Y-67235534D01*
X80073475Y-67053368D01*
X79866632Y-66846525D01*
X79623411Y-66684010D01*
X79353158Y-66572068D01*
X79066260Y-66515000D01*
X78773740Y-66515000D01*
X78486842Y-66572068D01*
X78216589Y-66684010D01*
X77973368Y-66846525D01*
X77766525Y-67053368D01*
X77650000Y-67227760D01*
X77533475Y-67053368D01*
X77532454Y-67052347D01*
X79054803Y-65530000D01*
X83505199Y-65530000D01*
X84487127Y-66511928D01*
G04 #@! TA.AperFunction,Conductor*
D19*
G36*
X84487127Y-66511928D02*
G01*
X83150000Y-66511928D01*
X83025518Y-66524188D01*
X82905820Y-66560498D01*
X82795506Y-66619463D01*
X82698815Y-66698815D01*
X82619463Y-66795506D01*
X82560498Y-66905820D01*
X82536034Y-66986466D01*
X82460269Y-66902412D01*
X82226920Y-66728359D01*
X81964099Y-66603175D01*
X81816890Y-66558524D01*
X81587000Y-66679845D01*
X81587000Y-67873000D01*
X81607000Y-67873000D01*
X81607000Y-68127000D01*
X81587000Y-68127000D01*
X81587000Y-69320155D01*
X81816890Y-69441476D01*
X81964099Y-69396825D01*
X82226920Y-69271641D01*
X82460269Y-69097588D01*
X82536034Y-69013534D01*
X82560498Y-69094180D01*
X82619463Y-69204494D01*
X82698815Y-69301185D01*
X82795506Y-69380537D01*
X82905820Y-69439502D01*
X83025518Y-69475812D01*
X83150000Y-69488072D01*
X84850000Y-69488072D01*
X84974482Y-69475812D01*
X85094180Y-69439502D01*
X85204494Y-69380537D01*
X85301185Y-69301185D01*
X85380537Y-69204494D01*
X85439502Y-69094180D01*
X85464999Y-69010127D01*
X85465000Y-70334669D01*
X85461323Y-70372001D01*
X85475997Y-70520986D01*
X85519453Y-70664247D01*
X85590025Y-70796277D01*
X85628926Y-70843677D01*
X85684999Y-70912002D01*
X85713997Y-70935800D01*
X86289198Y-71511002D01*
X86312997Y-71540001D01*
X86428722Y-71634974D01*
X86560751Y-71705546D01*
X86704012Y-71749003D01*
X86815665Y-71760000D01*
X86815673Y-71760000D01*
X86852998Y-71763676D01*
X86890323Y-71760000D01*
X89392305Y-71760000D01*
X89533234Y-71900929D01*
X89702752Y-72014197D01*
X89891110Y-72092218D01*
X90091069Y-72131992D01*
X90153207Y-72131992D01*
X91886213Y-73865000D01*
X81538755Y-73865000D01*
X81483594Y-73782446D01*
X81217554Y-73516406D01*
X80904724Y-73307380D01*
X80557127Y-73163400D01*
X80188119Y-73090000D01*
X79811881Y-73090000D01*
X79442873Y-73163400D01*
X79095276Y-73307380D01*
X78782446Y-73516406D01*
X78516406Y-73782446D01*
X78307380Y-74095276D01*
X78163400Y-74442873D01*
X78090000Y-74811881D01*
X78090000Y-75188119D01*
X78163400Y-75557127D01*
X78307380Y-75904724D01*
X78516406Y-76217554D01*
X78782446Y-76483594D01*
X79095276Y-76692620D01*
X79442873Y-76836600D01*
X79811881Y-76910000D01*
X80188119Y-76910000D01*
X80557127Y-76836600D01*
X80904724Y-76692620D01*
X81217554Y-76483594D01*
X81483594Y-76217554D01*
X81538755Y-76135000D01*
X118086928Y-76135000D01*
X118086928Y-76275000D01*
X118099188Y-76399482D01*
X118135498Y-76519180D01*
X118194463Y-76629494D01*
X118273815Y-76726185D01*
X118370506Y-76805537D01*
X118480820Y-76864502D01*
X118600518Y-76900812D01*
X118725000Y-76913072D01*
X121275000Y-76913072D01*
X121399482Y-76900812D01*
X121519180Y-76864502D01*
X121629494Y-76805537D01*
X121726185Y-76726185D01*
X121805537Y-76629494D01*
X121864502Y-76519180D01*
X121900812Y-76399482D01*
X121913072Y-76275000D01*
X121913072Y-73725000D01*
X121900812Y-73600518D01*
X121864502Y-73480820D01*
X121805537Y-73370506D01*
X121726185Y-73273815D01*
X121629494Y-73194463D01*
X121519180Y-73135498D01*
X121399482Y-73099188D01*
X121275000Y-73086928D01*
X118725000Y-73086928D01*
X118600518Y-73099188D01*
X118480820Y-73135498D01*
X118370506Y-73194463D01*
X118273815Y-73273815D01*
X118194463Y-73370506D01*
X118135498Y-73480820D01*
X118099188Y-73600518D01*
X118086928Y-73725000D01*
X118086928Y-73865000D01*
X108209801Y-73865000D01*
X109011009Y-73063794D01*
X109040001Y-73040001D01*
X109063795Y-73011008D01*
X109063799Y-73011004D01*
X109134973Y-72924277D01*
X109134974Y-72924276D01*
X109205546Y-72792247D01*
X109220386Y-72743325D01*
X109303937Y-72659774D01*
X109417205Y-72490256D01*
X109495226Y-72301898D01*
X109535000Y-72101939D01*
X109535000Y-71898061D01*
X109507538Y-71760000D01*
X111462678Y-71760000D01*
X111500000Y-71763676D01*
X111537322Y-71760000D01*
X111537333Y-71760000D01*
X111648986Y-71749003D01*
X111792247Y-71705546D01*
X111924276Y-71634974D01*
X112040001Y-71540001D01*
X112044105Y-71535000D01*
X112101939Y-71535000D01*
X112301898Y-71495226D01*
X112490256Y-71417205D01*
X112659774Y-71303937D01*
X112803937Y-71159774D01*
X112917205Y-70990256D01*
X112995226Y-70801898D01*
X113035000Y-70601939D01*
X113035000Y-70398061D01*
X113007538Y-70260000D01*
X119685199Y-70260000D01*
X123240001Y-73814803D01*
X123240000Y-75765198D01*
X120701852Y-78303347D01*
X120557127Y-78243400D01*
X120188119Y-78170000D01*
X119811881Y-78170000D01*
X119442873Y-78243400D01*
X119095276Y-78387380D01*
X118782446Y-78596406D01*
X118516406Y-78862446D01*
X118461245Y-78945000D01*
X81538755Y-78945000D01*
X81483594Y-78862446D01*
X81217554Y-78596406D01*
X80904724Y-78387380D01*
X80557127Y-78243400D01*
X80188119Y-78170000D01*
X79811881Y-78170000D01*
X79442873Y-78243400D01*
X79095276Y-78387380D01*
X78782446Y-78596406D01*
X78516406Y-78862446D01*
X78307380Y-79175276D01*
X78163400Y-79522873D01*
X78090000Y-79891881D01*
X78090000Y-80268119D01*
X78163400Y-80637127D01*
X78307380Y-80984724D01*
X78516406Y-81297554D01*
X78782446Y-81563594D01*
X79095276Y-81772620D01*
X79442873Y-81916600D01*
X79811881Y-81990000D01*
X80188119Y-81990000D01*
X80557127Y-81916600D01*
X80904724Y-81772620D01*
X81217554Y-81563594D01*
X81483594Y-81297554D01*
X81538755Y-81215000D01*
X118461245Y-81215000D01*
X118516406Y-81297554D01*
X118782446Y-81563594D01*
X119095276Y-81772620D01*
X119442873Y-81916600D01*
X119811881Y-81990000D01*
X120188119Y-81990000D01*
X120557127Y-81916600D01*
X120904724Y-81772620D01*
X121217554Y-81563594D01*
X121483594Y-81297554D01*
X121692620Y-80984724D01*
X121836600Y-80637127D01*
X121910000Y-80268119D01*
X121910000Y-79891881D01*
X121836600Y-79522873D01*
X121776653Y-79378148D01*
X124511004Y-76643798D01*
X124540001Y-76620001D01*
X124634974Y-76504276D01*
X124705546Y-76372247D01*
X124749003Y-76228986D01*
X124760000Y-76117333D01*
X124760000Y-76117324D01*
X124763676Y-76080001D01*
X124760000Y-76042678D01*
X124760000Y-73537322D01*
X124763676Y-73499999D01*
X124760000Y-73462676D01*
X124760000Y-73462667D01*
X124749003Y-73351014D01*
X124705546Y-73207753D01*
X124634974Y-73075724D01*
X124540001Y-72959999D01*
X124511003Y-72936201D01*
X121053355Y-69478554D01*
X121150000Y-69488072D01*
X121714250Y-69485000D01*
X121873000Y-69326250D01*
X121873000Y-68127000D01*
X120673750Y-68127000D01*
X120515000Y-68285750D01*
X120511928Y-68850000D01*
X120521246Y-68944607D01*
X120424276Y-68865026D01*
X120292247Y-68794454D01*
X120148986Y-68750997D01*
X120037333Y-68740000D01*
X120037322Y-68740000D01*
X120000000Y-68736324D01*
X119962678Y-68740000D01*
X114678665Y-68740000D01*
X114792247Y-68705546D01*
X114924276Y-68634974D01*
X115040001Y-68540001D01*
X115063804Y-68510997D01*
X116424801Y-67150000D01*
X120511928Y-67150000D01*
X120515000Y-67714250D01*
X120673750Y-67873000D01*
X121873000Y-67873000D01*
X121873000Y-66673750D01*
X121714250Y-66515000D01*
X121150000Y-66511928D01*
X121025518Y-66524188D01*
X120905820Y-66560498D01*
X120795506Y-66619463D01*
X120698815Y-66698815D01*
X120619463Y-66795506D01*
X120560498Y-66905820D01*
X120524188Y-67025518D01*
X120511928Y-67150000D01*
X116424801Y-67150000D01*
X117814802Y-65760000D01*
X127685199Y-65760000D01*
X128240000Y-66314802D01*
X128240000Y-67063134D01*
X128233475Y-67053368D01*
X128026632Y-66846525D01*
X127783411Y-66684010D01*
X127513158Y-66572068D01*
X127226260Y-66515000D01*
X126933740Y-66515000D01*
X126646842Y-66572068D01*
X126376589Y-66684010D01*
X126133368Y-66846525D01*
X125926525Y-67053368D01*
X125810000Y-67227760D01*
X125693475Y-67053368D01*
X125486632Y-66846525D01*
X125243411Y-66684010D01*
X124973158Y-66572068D01*
X124686260Y-66515000D01*
X124393740Y-66515000D01*
X124106842Y-66572068D01*
X123836589Y-66684010D01*
X123593368Y-66846525D01*
X123461513Y-66978380D01*
X123439502Y-66905820D01*
X123380537Y-66795506D01*
X123301185Y-66698815D01*
X123204494Y-66619463D01*
X123094180Y-66560498D01*
X122974482Y-66524188D01*
X122850000Y-66511928D01*
X122285750Y-66515000D01*
X122127000Y-66673750D01*
X122127000Y-67873000D01*
X122147000Y-67873000D01*
X122147000Y-68127000D01*
X122127000Y-68127000D01*
X122127000Y-69326250D01*
X122285750Y-69485000D01*
X122850000Y-69488072D01*
X122974482Y-69475812D01*
X123094180Y-69439502D01*
X123204494Y-69380537D01*
X123301185Y-69301185D01*
X123380537Y-69204494D01*
X123439502Y-69094180D01*
X123461513Y-69021620D01*
X123593368Y-69153475D01*
X123836589Y-69315990D01*
X124106842Y-69427932D01*
X124393740Y-69485000D01*
X124686260Y-69485000D01*
X124973158Y-69427932D01*
X125243411Y-69315990D01*
X125486632Y-69153475D01*
X125693475Y-68946632D01*
X125810000Y-68772240D01*
X125926525Y-68946632D01*
X126133368Y-69153475D01*
X126376589Y-69315990D01*
X126646842Y-69427932D01*
X126933740Y-69485000D01*
X127226260Y-69485000D01*
X127513158Y-69427932D01*
X127783411Y-69315990D01*
X128026632Y-69153475D01*
X128233475Y-68946632D01*
X128240000Y-68936866D01*
X128240001Y-75845197D01*
X120701852Y-83383347D01*
X120557127Y-83323400D01*
X120188119Y-83250000D01*
X119811881Y-83250000D01*
X119442873Y-83323400D01*
X119095276Y-83467380D01*
X118782446Y-83676406D01*
X118516406Y-83942446D01*
X118461245Y-84025000D01*
X81538755Y-84025000D01*
X81483594Y-83942446D01*
X81217554Y-83676406D01*
X80904724Y-83467380D01*
X80557127Y-83323400D01*
X80188119Y-83250000D01*
X79811881Y-83250000D01*
X79442873Y-83323400D01*
X79095276Y-83467380D01*
X78782446Y-83676406D01*
X78516406Y-83942446D01*
X78307380Y-84255276D01*
X78163400Y-84602873D01*
X78090000Y-84971881D01*
X78090000Y-85348119D01*
X78163400Y-85717127D01*
X78307380Y-86064724D01*
X78516406Y-86377554D01*
X78782446Y-86643594D01*
X79095276Y-86852620D01*
X79442873Y-86996600D01*
X79811881Y-87070000D01*
X80188119Y-87070000D01*
X80557127Y-86996600D01*
X80904724Y-86852620D01*
X81217554Y-86643594D01*
X81483594Y-86377554D01*
X81538755Y-86295000D01*
X118461245Y-86295000D01*
X118516406Y-86377554D01*
X118782446Y-86643594D01*
X119095276Y-86852620D01*
X119442873Y-86996600D01*
X119811881Y-87070000D01*
X120188119Y-87070000D01*
X120557127Y-86996600D01*
X120904724Y-86852620D01*
X121217554Y-86643594D01*
X121483594Y-86377554D01*
X121692620Y-86064724D01*
X121836600Y-85717127D01*
X121910000Y-85348119D01*
X121910000Y-84971881D01*
X121836600Y-84602873D01*
X121776653Y-84458148D01*
X128873000Y-77361802D01*
X128873000Y-99873000D01*
X71127000Y-99873000D01*
X71127000Y-96834042D01*
X72315000Y-96834042D01*
X72315000Y-97165958D01*
X72379754Y-97491496D01*
X72506772Y-97798147D01*
X72691175Y-98074125D01*
X72925875Y-98308825D01*
X73201853Y-98493228D01*
X73508504Y-98620246D01*
X73834042Y-98685000D01*
X74165958Y-98685000D01*
X74491496Y-98620246D01*
X74798147Y-98493228D01*
X75074125Y-98308825D01*
X75308825Y-98074125D01*
X75493228Y-97798147D01*
X75620246Y-97491496D01*
X75685000Y-97165958D01*
X75685000Y-96834042D01*
X124315000Y-96834042D01*
X124315000Y-97165958D01*
X124379754Y-97491496D01*
X124506772Y-97798147D01*
X124691175Y-98074125D01*
X124925875Y-98308825D01*
X125201853Y-98493228D01*
X125508504Y-98620246D01*
X125834042Y-98685000D01*
X126165958Y-98685000D01*
X126491496Y-98620246D01*
X126798147Y-98493228D01*
X127074125Y-98308825D01*
X127308825Y-98074125D01*
X127493228Y-97798147D01*
X127620246Y-97491496D01*
X127685000Y-97165958D01*
X127685000Y-96834042D01*
X127620246Y-96508504D01*
X127493228Y-96201853D01*
X127308825Y-95925875D01*
X127074125Y-95691175D01*
X126798147Y-95506772D01*
X126491496Y-95379754D01*
X126165958Y-95315000D01*
X125834042Y-95315000D01*
X125508504Y-95379754D01*
X125201853Y-95506772D01*
X124925875Y-95691175D01*
X124691175Y-95925875D01*
X124506772Y-96201853D01*
X124379754Y-96508504D01*
X124315000Y-96834042D01*
X75685000Y-96834042D01*
X75620246Y-96508504D01*
X75493228Y-96201853D01*
X75308825Y-95925875D01*
X75074125Y-95691175D01*
X74798147Y-95506772D01*
X74491496Y-95379754D01*
X74165958Y-95315000D01*
X73834042Y-95315000D01*
X73508504Y-95379754D01*
X73201853Y-95506772D01*
X72925875Y-95691175D01*
X72691175Y-95925875D01*
X72506772Y-96201853D01*
X72379754Y-96508504D01*
X72315000Y-96834042D01*
X71127000Y-96834042D01*
X71127000Y-88965000D01*
X78086928Y-88965000D01*
X78086928Y-91515000D01*
X78099188Y-91639482D01*
X78135498Y-91759180D01*
X78194463Y-91869494D01*
X78273815Y-91966185D01*
X78370506Y-92045537D01*
X78480820Y-92104502D01*
X78600518Y-92140812D01*
X78725000Y-92153072D01*
X81275000Y-92153072D01*
X81399482Y-92140812D01*
X81519180Y-92104502D01*
X81629494Y-92045537D01*
X81726185Y-91966185D01*
X81805537Y-91869494D01*
X81864502Y-91759180D01*
X81900812Y-91639482D01*
X81913072Y-91515000D01*
X81913072Y-91375000D01*
X118461245Y-91375000D01*
X118516406Y-91457554D01*
X118782446Y-91723594D01*
X119095276Y-91932620D01*
X119442873Y-92076600D01*
X119811881Y-92150000D01*
X120188119Y-92150000D01*
X120557127Y-92076600D01*
X120904724Y-91932620D01*
X121217554Y-91723594D01*
X121483594Y-91457554D01*
X121692620Y-91144724D01*
X121836600Y-90797127D01*
X121910000Y-90428119D01*
X121910000Y-90051881D01*
X121836600Y-89682873D01*
X121692620Y-89335276D01*
X121483594Y-89022446D01*
X121217554Y-88756406D01*
X120904724Y-88547380D01*
X120557127Y-88403400D01*
X120188119Y-88330000D01*
X119811881Y-88330000D01*
X119442873Y-88403400D01*
X119095276Y-88547380D01*
X118782446Y-88756406D01*
X118516406Y-89022446D01*
X118461245Y-89105000D01*
X81913072Y-89105000D01*
X81913072Y-88965000D01*
X81900812Y-88840518D01*
X81864502Y-88720820D01*
X81805537Y-88610506D01*
X81726185Y-88513815D01*
X81629494Y-88434463D01*
X81519180Y-88375498D01*
X81399482Y-88339188D01*
X81275000Y-88326928D01*
X78725000Y-88326928D01*
X78600518Y-88339188D01*
X78480820Y-88375498D01*
X78370506Y-88434463D01*
X78273815Y-88513815D01*
X78194463Y-88610506D01*
X78135498Y-88720820D01*
X78099188Y-88840518D01*
X78086928Y-88965000D01*
X71127000Y-88965000D01*
X71127000Y-70701802D01*
X71936200Y-71511002D01*
X71959999Y-71540001D01*
X71988997Y-71563799D01*
X72075724Y-71634974D01*
X72207753Y-71705546D01*
X72351014Y-71749003D01*
X72500000Y-71763677D01*
X72537333Y-71760000D01*
X77962678Y-71760000D01*
X78000000Y-71763676D01*
X78037322Y-71760000D01*
X78037333Y-71760000D01*
X78148986Y-71749003D01*
X78292247Y-71705546D01*
X78424276Y-71634974D01*
X78540001Y-71540001D01*
X78563803Y-71510998D01*
X79431008Y-70643795D01*
X79460001Y-70620001D01*
X79483795Y-70591008D01*
X79483799Y-70591004D01*
X79549454Y-70511002D01*
X79554974Y-70504276D01*
X79625546Y-70372247D01*
X79669003Y-70228986D01*
X79680000Y-70117333D01*
X79680000Y-70117324D01*
X79683676Y-70080001D01*
X79680000Y-70042678D01*
X79680000Y-69278178D01*
X79866632Y-69153475D01*
X80073475Y-68946632D01*
X80195195Y-68764466D01*
X80264822Y-68881355D01*
X80459731Y-69097588D01*
X80693080Y-69271641D01*
X80955901Y-69396825D01*
X81103110Y-69441476D01*
X81333000Y-69320155D01*
X81333000Y-68127000D01*
X81313000Y-68127000D01*
X81313000Y-67873000D01*
X81333000Y-67873000D01*
X81333000Y-66679845D01*
X81103110Y-66558524D01*
X80955901Y-66603175D01*
X80693080Y-66728359D01*
X80459731Y-66902412D01*
X80264822Y-67118645D01*
X80195195Y-67235534D01*
X80073475Y-67053368D01*
X79866632Y-66846525D01*
X79623411Y-66684010D01*
X79353158Y-66572068D01*
X79066260Y-66515000D01*
X78773740Y-66515000D01*
X78486842Y-66572068D01*
X78216589Y-66684010D01*
X77973368Y-66846525D01*
X77766525Y-67053368D01*
X77650000Y-67227760D01*
X77533475Y-67053368D01*
X77532454Y-67052347D01*
X79054803Y-65530000D01*
X83505199Y-65530000D01*
X84487127Y-66511928D01*
G37*
G04 #@! TD.AperFunction*
D18*
X95465000Y-71039802D02*
X95465000Y-71101939D01*
X95504774Y-71301898D01*
X95582795Y-71490256D01*
X95696063Y-71659774D01*
X95840226Y-71803937D01*
X96009744Y-71917205D01*
X96198102Y-71995226D01*
X96398061Y-72035000D01*
X96601939Y-72035000D01*
X96801898Y-71995226D01*
X96990256Y-71917205D01*
X97159774Y-71803937D01*
X97203711Y-71760000D01*
X107492462Y-71760000D01*
X107465000Y-71898061D01*
X107465000Y-72101939D01*
X107504774Y-72301898D01*
X107539490Y-72385708D01*
X107281214Y-72643984D01*
X92814803Y-72643984D01*
X91228008Y-71057191D01*
X91228008Y-70995053D01*
X91188234Y-70795094D01*
X91173697Y-70760000D01*
X95185199Y-70760000D01*
X95465000Y-71039802D01*
G04 #@! TA.AperFunction,Conductor*
D19*
G36*
X95465000Y-71039802D02*
G01*
X95465000Y-71101939D01*
X95504774Y-71301898D01*
X95582795Y-71490256D01*
X95696063Y-71659774D01*
X95840226Y-71803937D01*
X96009744Y-71917205D01*
X96198102Y-71995226D01*
X96398061Y-72035000D01*
X96601939Y-72035000D01*
X96801898Y-71995226D01*
X96990256Y-71917205D01*
X97159774Y-71803937D01*
X97203711Y-71760000D01*
X107492462Y-71760000D01*
X107465000Y-71898061D01*
X107465000Y-72101939D01*
X107504774Y-72301898D01*
X107539490Y-72385708D01*
X107281214Y-72643984D01*
X92814803Y-72643984D01*
X91228008Y-71057191D01*
X91228008Y-70995053D01*
X91188234Y-70795094D01*
X91173697Y-70760000D01*
X95185199Y-70760000D01*
X95465000Y-71039802D01*
G37*
G04 #@! TD.AperFunction*
D18*
X128873000Y-64798198D02*
X128563804Y-64489002D01*
X128540001Y-64459999D01*
X128424276Y-64365026D01*
X128292247Y-64294454D01*
X128148986Y-64250997D01*
X128037333Y-64240000D01*
X128037322Y-64240000D01*
X128000000Y-64236324D01*
X127962678Y-64240000D01*
X117537325Y-64240000D01*
X117500000Y-64236324D01*
X117462675Y-64240000D01*
X117462667Y-64240000D01*
X117351014Y-64250997D01*
X117207753Y-64294454D01*
X117075724Y-64365026D01*
X116959999Y-64459999D01*
X116936201Y-64488997D01*
X114185199Y-67240000D01*
X109223711Y-67240000D01*
X109303937Y-67159774D01*
X109417205Y-66990256D01*
X109495226Y-66801898D01*
X109535000Y-66601939D01*
X109535000Y-66539801D01*
X111511003Y-64563799D01*
X111540001Y-64540001D01*
X111605657Y-64459999D01*
X111634974Y-64424277D01*
X111705546Y-64292247D01*
X111715328Y-64260000D01*
X111749003Y-64148986D01*
X111760000Y-64037333D01*
X111760000Y-64037323D01*
X111763676Y-64000000D01*
X111760000Y-63962677D01*
X111760000Y-61703711D01*
X111803937Y-61659774D01*
X111917205Y-61490256D01*
X111995226Y-61301898D01*
X112035000Y-61101939D01*
X112035000Y-60898061D01*
X111995226Y-60698102D01*
X111917205Y-60509744D01*
X111803937Y-60340226D01*
X111659774Y-60196063D01*
X111490256Y-60082795D01*
X111301898Y-60004774D01*
X111101939Y-59965000D01*
X110898061Y-59965000D01*
X110698102Y-60004774D01*
X110509744Y-60082795D01*
X110340226Y-60196063D01*
X110196063Y-60340226D01*
X110082795Y-60509744D01*
X110004774Y-60698102D01*
X109965000Y-60898061D01*
X109965000Y-61101939D01*
X110004774Y-61301898D01*
X110082795Y-61490256D01*
X110196063Y-61659774D01*
X110240000Y-61703711D01*
X110240001Y-63685197D01*
X108460199Y-65465000D01*
X108398061Y-65465000D01*
X108198102Y-65504774D01*
X108009744Y-65582795D01*
X107840226Y-65696063D01*
X107696063Y-65840226D01*
X107582795Y-66009744D01*
X107504774Y-66198102D01*
X107465000Y-66398061D01*
X107465000Y-66601939D01*
X107504774Y-66801898D01*
X107582795Y-66990256D01*
X107696063Y-67159774D01*
X107776289Y-67240000D01*
X101703711Y-67240000D01*
X101659774Y-67196063D01*
X101490256Y-67082795D01*
X101301898Y-67004774D01*
X101101939Y-66965000D01*
X100898061Y-66965000D01*
X100698102Y-67004774D01*
X100509744Y-67082795D01*
X100340226Y-67196063D01*
X100196063Y-67340226D01*
X100082795Y-67509744D01*
X100004774Y-67698102D01*
X99965000Y-67898061D01*
X99965000Y-68101939D01*
X99992462Y-68240000D01*
X95203711Y-68240000D01*
X95159774Y-68196063D01*
X94990256Y-68082795D01*
X94801898Y-68004774D01*
X94601939Y-67965000D01*
X94398061Y-67965000D01*
X94198102Y-68004774D01*
X94009744Y-68082795D01*
X93840226Y-68196063D01*
X93696063Y-68340226D01*
X93582795Y-68509744D01*
X93504774Y-68698102D01*
X93465000Y-68898061D01*
X93465000Y-69101939D01*
X93492462Y-69240000D01*
X87703711Y-69240000D01*
X87659774Y-69196063D01*
X87490256Y-69082795D01*
X87301898Y-69004774D01*
X87150202Y-68974600D01*
X87561002Y-68563799D01*
X87590001Y-68540001D01*
X87684974Y-68424276D01*
X87755546Y-68292247D01*
X87799003Y-68148986D01*
X87813677Y-68000000D01*
X87799003Y-67851014D01*
X87755546Y-67707753D01*
X87684974Y-67575724D01*
X87590001Y-67459999D01*
X87562538Y-67437461D01*
X87540001Y-67409999D01*
X87511003Y-67386201D01*
X84383804Y-64259003D01*
X84360001Y-64229999D01*
X84244276Y-64135026D01*
X84112247Y-64064454D01*
X83968986Y-64020997D01*
X83857333Y-64010000D01*
X83857322Y-64010000D01*
X83820000Y-64006324D01*
X83782678Y-64010000D01*
X83564801Y-64010000D01*
X84511004Y-63063798D01*
X84540001Y-63040001D01*
X84634974Y-62924276D01*
X84705546Y-62792247D01*
X84749003Y-62648986D01*
X84760000Y-62537333D01*
X84760000Y-62537332D01*
X84763677Y-62500000D01*
X84760000Y-62462667D01*
X84760000Y-57898061D01*
X84965000Y-57898061D01*
X84965000Y-58101939D01*
X85004774Y-58301898D01*
X85082795Y-58490256D01*
X85196063Y-58659774D01*
X85340226Y-58803937D01*
X85509744Y-58917205D01*
X85698102Y-58995226D01*
X85898061Y-59035000D01*
X86101939Y-59035000D01*
X86301898Y-58995226D01*
X86490256Y-58917205D01*
X86659774Y-58803937D01*
X86703711Y-58760000D01*
X87685199Y-58760000D01*
X88351279Y-59426081D01*
X88330000Y-59533061D01*
X88330000Y-59736939D01*
X88369774Y-59936898D01*
X88447795Y-60125256D01*
X88561063Y-60294774D01*
X88705226Y-60438937D01*
X88874744Y-60552205D01*
X89063102Y-60630226D01*
X89263061Y-60670000D01*
X89466939Y-60670000D01*
X89666898Y-60630226D01*
X89855256Y-60552205D01*
X89875001Y-60539012D01*
X89875001Y-60661288D01*
X89831063Y-60705226D01*
X89717795Y-60874744D01*
X89639774Y-61063102D01*
X89600000Y-61263061D01*
X89600000Y-61466939D01*
X89639774Y-61666898D01*
X89717795Y-61855256D01*
X89831063Y-62024774D01*
X89975226Y-62168937D01*
X90144744Y-62282205D01*
X90333102Y-62360226D01*
X90533061Y-62400000D01*
X90736939Y-62400000D01*
X90936898Y-62360226D01*
X91125256Y-62282205D01*
X91294774Y-62168937D01*
X91438937Y-62024774D01*
X91552205Y-61855256D01*
X91630226Y-61666898D01*
X91670000Y-61466939D01*
X91670000Y-61263061D01*
X91630226Y-61063102D01*
X91552205Y-60874744D01*
X91438937Y-60705226D01*
X91404256Y-60670545D01*
X93862393Y-58212408D01*
X95793000Y-58212408D01*
X95793000Y-58487592D01*
X95846686Y-58757490D01*
X95951995Y-59011727D01*
X96104880Y-59240535D01*
X96299465Y-59435120D01*
X96528273Y-59588005D01*
X96605515Y-59620000D01*
X96528273Y-59651995D01*
X96299465Y-59804880D01*
X96104880Y-59999465D01*
X95951995Y-60228273D01*
X95846686Y-60482510D01*
X95793000Y-60752408D01*
X95793000Y-61027592D01*
X95846686Y-61297490D01*
X95951995Y-61551727D01*
X96104880Y-61780535D01*
X96299465Y-61975120D01*
X96528273Y-62128005D01*
X96782510Y-62233314D01*
X97052408Y-62287000D01*
X97327592Y-62287000D01*
X97597490Y-62233314D01*
X97851727Y-62128005D01*
X98080535Y-61975120D01*
X98275120Y-61780535D01*
X98428005Y-61551727D01*
X98533314Y-61297490D01*
X98587000Y-61027592D01*
X98587000Y-60752408D01*
X98533314Y-60482510D01*
X98428005Y-60228273D01*
X98275120Y-59999465D01*
X98080535Y-59804880D01*
X97851727Y-59651995D01*
X97774485Y-59620000D01*
X97851727Y-59588005D01*
X98080535Y-59435120D01*
X98275120Y-59240535D01*
X98428005Y-59011727D01*
X98533314Y-58757490D01*
X98587000Y-58487592D01*
X98587000Y-58212408D01*
X98533314Y-57942510D01*
X98428005Y-57688273D01*
X98275120Y-57459465D01*
X98080535Y-57264880D01*
X97851727Y-57111995D01*
X97597490Y-57006686D01*
X97327592Y-56953000D01*
X97052408Y-56953000D01*
X96782510Y-57006686D01*
X96528273Y-57111995D01*
X96299465Y-57264880D01*
X96104880Y-57459465D01*
X95951995Y-57688273D01*
X95846686Y-57942510D01*
X95793000Y-58212408D01*
X93862393Y-58212408D01*
X95314802Y-56760000D01*
X99992462Y-56760000D01*
X99965000Y-56898061D01*
X99965000Y-57101939D01*
X100004774Y-57301898D01*
X100082795Y-57490256D01*
X100196063Y-57659774D01*
X100340226Y-57803937D01*
X100509744Y-57917205D01*
X100698102Y-57995226D01*
X100898061Y-58035000D01*
X100960199Y-58035000D01*
X101240000Y-58314802D01*
X101240001Y-61685197D01*
X97685199Y-65240000D01*
X95703711Y-65240000D01*
X95659774Y-65196063D01*
X95490256Y-65082795D01*
X95301898Y-65004774D01*
X95101939Y-64965000D01*
X94898061Y-64965000D01*
X94698102Y-65004774D01*
X94509744Y-65082795D01*
X94340226Y-65196063D01*
X94196063Y-65340226D01*
X94082795Y-65509744D01*
X94004774Y-65698102D01*
X93965000Y-65898061D01*
X93965000Y-66101939D01*
X94004774Y-66301898D01*
X94082795Y-66490256D01*
X94196063Y-66659774D01*
X94340226Y-66803937D01*
X94509744Y-66917205D01*
X94698102Y-66995226D01*
X94898061Y-67035000D01*
X95101939Y-67035000D01*
X95301898Y-66995226D01*
X95490256Y-66917205D01*
X95659774Y-66803937D01*
X95703711Y-66760000D01*
X97962678Y-66760000D01*
X98000000Y-66763676D01*
X98037322Y-66760000D01*
X98037333Y-66760000D01*
X98148986Y-66749003D01*
X98292247Y-66705546D01*
X98424276Y-66634974D01*
X98540001Y-66540001D01*
X98563804Y-66510997D01*
X102511003Y-62563799D01*
X102540001Y-62540001D01*
X102634974Y-62424276D01*
X102705546Y-62292247D01*
X102749003Y-62148986D01*
X102760000Y-62037333D01*
X102760000Y-62037324D01*
X102763676Y-62000001D01*
X102760000Y-61962678D01*
X102760000Y-58212408D01*
X103413000Y-58212408D01*
X103413000Y-58487592D01*
X103466686Y-58757490D01*
X103571995Y-59011727D01*
X103724880Y-59240535D01*
X103919465Y-59435120D01*
X104148273Y-59588005D01*
X104225515Y-59620000D01*
X104148273Y-59651995D01*
X103919465Y-59804880D01*
X103724880Y-59999465D01*
X103571995Y-60228273D01*
X103466686Y-60482510D01*
X103413000Y-60752408D01*
X103413000Y-61027592D01*
X103466686Y-61297490D01*
X103571995Y-61551727D01*
X103724880Y-61780535D01*
X103919465Y-61975120D01*
X104148273Y-62128005D01*
X104402510Y-62233314D01*
X104672408Y-62287000D01*
X104947592Y-62287000D01*
X105217490Y-62233314D01*
X105471727Y-62128005D01*
X105700535Y-61975120D01*
X105895120Y-61780535D01*
X106048005Y-61551727D01*
X106153314Y-61297490D01*
X106207000Y-61027592D01*
X106207000Y-60752408D01*
X106153314Y-60482510D01*
X106048005Y-60228273D01*
X105895120Y-59999465D01*
X105700535Y-59804880D01*
X105471727Y-59651995D01*
X105394485Y-59620000D01*
X105471727Y-59588005D01*
X105700535Y-59435120D01*
X105895120Y-59240535D01*
X106048005Y-59011727D01*
X106153314Y-58757490D01*
X106207000Y-58487592D01*
X106207000Y-58212408D01*
X106153314Y-57942510D01*
X106048005Y-57688273D01*
X105895120Y-57459465D01*
X105700535Y-57264880D01*
X105471727Y-57111995D01*
X105217490Y-57006686D01*
X104947592Y-56953000D01*
X104672408Y-56953000D01*
X104402510Y-57006686D01*
X104148273Y-57111995D01*
X103919465Y-57264880D01*
X103724880Y-57459465D01*
X103571995Y-57688273D01*
X103466686Y-57942510D01*
X103413000Y-58212408D01*
X102760000Y-58212408D01*
X102760000Y-58037333D01*
X102763677Y-58000000D01*
X102749003Y-57851014D01*
X102705546Y-57707753D01*
X102634974Y-57575724D01*
X102563799Y-57488997D01*
X102540001Y-57459999D01*
X102511003Y-57436201D01*
X102035000Y-56960199D01*
X102035000Y-56898061D01*
X102007538Y-56760000D01*
X105685199Y-56760000D01*
X108436200Y-59511002D01*
X108459999Y-59540001D01*
X108575724Y-59634974D01*
X108707753Y-59705546D01*
X108851014Y-59749003D01*
X108962667Y-59760000D01*
X108962675Y-59760000D01*
X109000000Y-59763676D01*
X109037325Y-59760000D01*
X113685199Y-59760000D01*
X115965000Y-62039802D01*
X115965000Y-62101939D01*
X116004774Y-62301898D01*
X116082795Y-62490256D01*
X116196063Y-62659774D01*
X116340226Y-62803937D01*
X116509744Y-62917205D01*
X116698102Y-62995226D01*
X116898061Y-63035000D01*
X117101939Y-63035000D01*
X117301898Y-62995226D01*
X117490256Y-62917205D01*
X117659774Y-62803937D01*
X117803937Y-62659774D01*
X117917205Y-62490256D01*
X117995226Y-62301898D01*
X118035000Y-62101939D01*
X118035000Y-61898061D01*
X117995226Y-61698102D01*
X117917205Y-61509744D01*
X117803937Y-61340226D01*
X117659774Y-61196063D01*
X117490256Y-61082795D01*
X117301898Y-61004774D01*
X117101939Y-60965000D01*
X117039802Y-60965000D01*
X114563804Y-58489003D01*
X114540001Y-58459999D01*
X114424276Y-58365026D01*
X114292247Y-58294454D01*
X114148986Y-58250997D01*
X114037333Y-58240000D01*
X114037322Y-58240000D01*
X114000000Y-58236324D01*
X113962678Y-58240000D01*
X109314802Y-58240000D01*
X106563804Y-55489003D01*
X106540001Y-55459999D01*
X106424276Y-55365026D01*
X106292247Y-55294454D01*
X106148986Y-55250997D01*
X106037333Y-55240000D01*
X106037322Y-55240000D01*
X106000000Y-55236324D01*
X105962678Y-55240000D01*
X95037322Y-55240000D01*
X94999999Y-55236324D01*
X94962676Y-55240000D01*
X94962667Y-55240000D01*
X94851014Y-55250997D01*
X94707753Y-55294454D01*
X94575724Y-55365026D01*
X94459999Y-55459999D01*
X94436201Y-55488997D01*
X90398696Y-59526503D01*
X90360226Y-59333102D01*
X90282205Y-59144744D01*
X90168937Y-58975226D01*
X90024774Y-58831063D01*
X89855256Y-58717795D01*
X89748290Y-58673488D01*
X88563804Y-57489003D01*
X88540001Y-57459999D01*
X88424276Y-57365026D01*
X88292247Y-57294454D01*
X88148986Y-57250997D01*
X88037333Y-57240000D01*
X88037322Y-57240000D01*
X88000000Y-57236324D01*
X87962678Y-57240000D01*
X86703711Y-57240000D01*
X86659774Y-57196063D01*
X86490256Y-57082795D01*
X86301898Y-57004774D01*
X86101939Y-56965000D01*
X85898061Y-56965000D01*
X85698102Y-57004774D01*
X85509744Y-57082795D01*
X85340226Y-57196063D01*
X85196063Y-57340226D01*
X85082795Y-57509744D01*
X85004774Y-57698102D01*
X84965000Y-57898061D01*
X84760000Y-57898061D01*
X84760000Y-56314801D01*
X85814802Y-55260000D01*
X91496440Y-55260000D01*
X91504774Y-55301898D01*
X91582795Y-55490256D01*
X91696063Y-55659774D01*
X91840226Y-55803937D01*
X92009744Y-55917205D01*
X92198102Y-55995226D01*
X92398061Y-56035000D01*
X92601939Y-56035000D01*
X92801898Y-55995226D01*
X92990256Y-55917205D01*
X93159774Y-55803937D01*
X93303937Y-55659774D01*
X93417205Y-55490256D01*
X93495226Y-55301898D01*
X93535000Y-55101939D01*
X93535000Y-54898061D01*
X93495226Y-54698102D01*
X93417205Y-54509744D01*
X93347217Y-54405000D01*
X96374116Y-54405000D01*
X96528273Y-54508005D01*
X96782510Y-54613314D01*
X97052408Y-54667000D01*
X97327592Y-54667000D01*
X97597490Y-54613314D01*
X97851727Y-54508005D01*
X98080535Y-54355120D01*
X98275120Y-54160535D01*
X98428005Y-53931727D01*
X98533314Y-53677490D01*
X98587000Y-53407592D01*
X98587000Y-53132408D01*
X103413000Y-53132408D01*
X103413000Y-53407592D01*
X103466686Y-53677490D01*
X103571995Y-53931727D01*
X103724880Y-54160535D01*
X103919465Y-54355120D01*
X104148273Y-54508005D01*
X104402510Y-54613314D01*
X104672408Y-54667000D01*
X104947592Y-54667000D01*
X105217490Y-54613314D01*
X105471727Y-54508005D01*
X105625884Y-54405000D01*
X116719869Y-54405000D01*
X118109370Y-55794502D01*
X118090000Y-55891881D01*
X118090000Y-56268119D01*
X118163400Y-56637127D01*
X118307380Y-56984724D01*
X118516406Y-57297554D01*
X118782446Y-57563594D01*
X119095276Y-57772620D01*
X119442873Y-57916600D01*
X119811881Y-57990000D01*
X120188119Y-57990000D01*
X120557127Y-57916600D01*
X120904724Y-57772620D01*
X121217554Y-57563594D01*
X121483594Y-57297554D01*
X121692620Y-56984724D01*
X121836600Y-56637127D01*
X121910000Y-56268119D01*
X121910000Y-55891881D01*
X121836600Y-55522873D01*
X121692620Y-55175276D01*
X121483594Y-54862446D01*
X121217554Y-54596406D01*
X120904724Y-54387380D01*
X120557127Y-54243400D01*
X120188119Y-54170000D01*
X119811881Y-54170000D01*
X119714502Y-54189370D01*
X118031996Y-52506865D01*
X117996449Y-52463551D01*
X117823623Y-52321716D01*
X117626447Y-52216324D01*
X117412499Y-52151423D01*
X117245752Y-52135000D01*
X117245751Y-52135000D01*
X117190000Y-52129509D01*
X117134249Y-52135000D01*
X105625884Y-52135000D01*
X105471727Y-52031995D01*
X105217490Y-51926686D01*
X104947592Y-51873000D01*
X104672408Y-51873000D01*
X104402510Y-51926686D01*
X104148273Y-52031995D01*
X103919465Y-52184880D01*
X103724880Y-52379465D01*
X103571995Y-52608273D01*
X103466686Y-52862510D01*
X103413000Y-53132408D01*
X98587000Y-53132408D01*
X98533314Y-52862510D01*
X98428005Y-52608273D01*
X98275120Y-52379465D01*
X98080535Y-52184880D01*
X97851727Y-52031995D01*
X97597490Y-51926686D01*
X97327592Y-51873000D01*
X97052408Y-51873000D01*
X96782510Y-51926686D01*
X96528273Y-52031995D01*
X96374116Y-52135000D01*
X82705751Y-52135000D01*
X82650000Y-52129509D01*
X82594248Y-52135000D01*
X82427501Y-52151423D01*
X82213553Y-52216324D01*
X82016377Y-52321716D01*
X81843551Y-52463551D01*
X81808009Y-52506859D01*
X80285499Y-54029370D01*
X80188119Y-54010000D01*
X79811881Y-54010000D01*
X79442873Y-54083400D01*
X79095276Y-54227380D01*
X78782446Y-54436406D01*
X78516406Y-54702446D01*
X78307380Y-55015276D01*
X78163400Y-55362873D01*
X78090000Y-55731881D01*
X78090000Y-56108119D01*
X78163400Y-56477127D01*
X78307380Y-56824724D01*
X78516406Y-57137554D01*
X78782446Y-57403594D01*
X79095276Y-57612620D01*
X79442873Y-57756600D01*
X79811881Y-57830000D01*
X80188119Y-57830000D01*
X80557127Y-57756600D01*
X80904724Y-57612620D01*
X81217554Y-57403594D01*
X81483594Y-57137554D01*
X81692620Y-56824724D01*
X81836600Y-56477127D01*
X81910000Y-56108119D01*
X81910000Y-55731881D01*
X81890630Y-55634501D01*
X83120132Y-54405000D01*
X84520198Y-54405000D01*
X83488998Y-55436201D01*
X83460000Y-55459999D01*
X83436202Y-55488997D01*
X83436201Y-55488998D01*
X83365026Y-55575724D01*
X83294454Y-55707754D01*
X83250998Y-55851015D01*
X83236324Y-56000000D01*
X83240001Y-56037332D01*
X83240000Y-62185198D01*
X82685199Y-62740000D01*
X81709351Y-62740000D01*
X81726185Y-62726185D01*
X81805537Y-62629494D01*
X81864502Y-62519180D01*
X81900812Y-62399482D01*
X81913072Y-62275000D01*
X81913072Y-59725000D01*
X81900812Y-59600518D01*
X81864502Y-59480820D01*
X81805537Y-59370506D01*
X81726185Y-59273815D01*
X81629494Y-59194463D01*
X81519180Y-59135498D01*
X81399482Y-59099188D01*
X81275000Y-59086928D01*
X78725000Y-59086928D01*
X78695014Y-59089881D01*
X77135000Y-57529869D01*
X77135000Y-50651881D01*
X78090000Y-50651881D01*
X78090000Y-51028119D01*
X78163400Y-51397127D01*
X78307380Y-51744724D01*
X78516406Y-52057554D01*
X78782446Y-52323594D01*
X79095276Y-52532620D01*
X79442873Y-52676600D01*
X79811881Y-52750000D01*
X80188119Y-52750000D01*
X80557127Y-52676600D01*
X80904724Y-52532620D01*
X81217554Y-52323594D01*
X81483594Y-52057554D01*
X81692620Y-51744724D01*
X81836600Y-51397127D01*
X81910000Y-51028119D01*
X81910000Y-50651881D01*
X81890630Y-50554501D01*
X83120132Y-49325000D01*
X96374116Y-49325000D01*
X96528273Y-49428005D01*
X96782510Y-49533314D01*
X97052408Y-49587000D01*
X97327592Y-49587000D01*
X97597490Y-49533314D01*
X97851727Y-49428005D01*
X98080535Y-49275120D01*
X98275120Y-49080535D01*
X98428005Y-48851727D01*
X98533314Y-48597490D01*
X98587000Y-48327592D01*
X98587000Y-48052408D01*
X103413000Y-48052408D01*
X103413000Y-48327592D01*
X103466686Y-48597490D01*
X103571995Y-48851727D01*
X103724880Y-49080535D01*
X103919465Y-49275120D01*
X104148273Y-49428005D01*
X104402510Y-49533314D01*
X104672408Y-49587000D01*
X104947592Y-49587000D01*
X105217490Y-49533314D01*
X105471727Y-49428005D01*
X105625884Y-49325000D01*
X116719869Y-49325000D01*
X118086928Y-50692060D01*
X118086928Y-52275000D01*
X118099188Y-52399482D01*
X118135498Y-52519180D01*
X118194463Y-52629494D01*
X118273815Y-52726185D01*
X118370506Y-52805537D01*
X118480820Y-52864502D01*
X118600518Y-52900812D01*
X118725000Y-52913072D01*
X121275000Y-52913072D01*
X121399482Y-52900812D01*
X121519180Y-52864502D01*
X121629494Y-52805537D01*
X121726185Y-52726185D01*
X121805537Y-52629494D01*
X121864502Y-52519180D01*
X121900812Y-52399482D01*
X121913072Y-52275000D01*
X121913072Y-49725000D01*
X121900812Y-49600518D01*
X121864502Y-49480820D01*
X121805537Y-49370506D01*
X121726185Y-49273815D01*
X121629494Y-49194463D01*
X121519180Y-49135498D01*
X121399482Y-49099188D01*
X121275000Y-49086928D01*
X119692060Y-49086928D01*
X118031996Y-47426865D01*
X117996449Y-47383551D01*
X117823623Y-47241716D01*
X117626447Y-47136324D01*
X117412499Y-47071423D01*
X117245752Y-47055000D01*
X117245751Y-47055000D01*
X117190000Y-47049509D01*
X117134249Y-47055000D01*
X105625884Y-47055000D01*
X105471727Y-46951995D01*
X105217490Y-46846686D01*
X104947592Y-46793000D01*
X104672408Y-46793000D01*
X104402510Y-46846686D01*
X104148273Y-46951995D01*
X103919465Y-47104880D01*
X103724880Y-47299465D01*
X103571995Y-47528273D01*
X103466686Y-47782510D01*
X103413000Y-48052408D01*
X98587000Y-48052408D01*
X98533314Y-47782510D01*
X98428005Y-47528273D01*
X98275120Y-47299465D01*
X98080535Y-47104880D01*
X97851727Y-46951995D01*
X97597490Y-46846686D01*
X97327592Y-46793000D01*
X97052408Y-46793000D01*
X96782510Y-46846686D01*
X96528273Y-46951995D01*
X96374116Y-47055000D01*
X82705751Y-47055000D01*
X82650000Y-47049509D01*
X82594248Y-47055000D01*
X82427501Y-47071423D01*
X82213553Y-47136324D01*
X82016377Y-47241716D01*
X81843551Y-47383551D01*
X81808009Y-47426859D01*
X80285499Y-48949370D01*
X80188119Y-48930000D01*
X79811881Y-48930000D01*
X79442873Y-49003400D01*
X79095276Y-49147380D01*
X78782446Y-49356406D01*
X78516406Y-49622446D01*
X78307380Y-49935276D01*
X78163400Y-50282873D01*
X78090000Y-50651881D01*
X77135000Y-50651881D01*
X77135000Y-49470131D01*
X80653141Y-45951991D01*
X80696449Y-45916449D01*
X80838284Y-45743623D01*
X80943676Y-45546447D01*
X81008577Y-45332499D01*
X81025000Y-45165752D01*
X81030491Y-45110000D01*
X81025000Y-45054248D01*
X81025000Y-44245000D01*
X96374116Y-44245000D01*
X96528273Y-44348005D01*
X96782510Y-44453314D01*
X97052408Y-44507000D01*
X97327592Y-44507000D01*
X97597490Y-44453314D01*
X97851727Y-44348005D01*
X98080535Y-44195120D01*
X98275120Y-44000535D01*
X98428005Y-43771727D01*
X98533314Y-43517490D01*
X98587000Y-43247592D01*
X98587000Y-42972408D01*
X103413000Y-42972408D01*
X103413000Y-43247592D01*
X103466686Y-43517490D01*
X103571995Y-43771727D01*
X103724880Y-44000535D01*
X103919465Y-44195120D01*
X104148273Y-44348005D01*
X104402510Y-44453314D01*
X104672408Y-44507000D01*
X104947592Y-44507000D01*
X105217490Y-44453314D01*
X105471727Y-44348005D01*
X105625884Y-44245000D01*
X118639869Y-44245000D01*
X122865001Y-48470133D01*
X122865000Y-58529868D01*
X121468008Y-59926860D01*
X121217554Y-59676406D01*
X120904724Y-59467380D01*
X120557127Y-59323400D01*
X120188119Y-59250000D01*
X119811881Y-59250000D01*
X119442873Y-59323400D01*
X119095276Y-59467380D01*
X118782446Y-59676406D01*
X118516406Y-59942446D01*
X118307380Y-60255276D01*
X118163400Y-60602873D01*
X118090000Y-60971881D01*
X118090000Y-61348119D01*
X118163400Y-61717127D01*
X118307380Y-62064724D01*
X118516406Y-62377554D01*
X118782446Y-62643594D01*
X119095276Y-62852620D01*
X119442873Y-62996600D01*
X119811881Y-63070000D01*
X120188119Y-63070000D01*
X120557127Y-62996600D01*
X120904724Y-62852620D01*
X121217554Y-62643594D01*
X121483594Y-62377554D01*
X121538755Y-62295000D01*
X121784249Y-62295000D01*
X121840000Y-62300491D01*
X121895751Y-62295000D01*
X121895752Y-62295000D01*
X122062499Y-62278577D01*
X122276447Y-62213676D01*
X122473623Y-62108284D01*
X122646449Y-61966449D01*
X122681996Y-61923135D01*
X124763141Y-59841991D01*
X124806449Y-59806449D01*
X124948284Y-59633623D01*
X125053676Y-59436447D01*
X125118577Y-59222499D01*
X125135000Y-59055752D01*
X125135000Y-59055743D01*
X125140490Y-59000001D01*
X125135000Y-58944259D01*
X125135000Y-48055741D01*
X125140490Y-47999999D01*
X125135000Y-47944257D01*
X125135000Y-47944248D01*
X125118577Y-47777501D01*
X125053676Y-47563553D01*
X124948284Y-47366377D01*
X124806449Y-47193551D01*
X124763141Y-47158009D01*
X121439174Y-43834042D01*
X124315000Y-43834042D01*
X124315000Y-44165958D01*
X124379754Y-44491496D01*
X124506772Y-44798147D01*
X124691175Y-45074125D01*
X124925875Y-45308825D01*
X125201853Y-45493228D01*
X125508504Y-45620246D01*
X125834042Y-45685000D01*
X126165958Y-45685000D01*
X126491496Y-45620246D01*
X126798147Y-45493228D01*
X127074125Y-45308825D01*
X127308825Y-45074125D01*
X127493228Y-44798147D01*
X127620246Y-44491496D01*
X127685000Y-44165958D01*
X127685000Y-43834042D01*
X127620246Y-43508504D01*
X127493228Y-43201853D01*
X127308825Y-42925875D01*
X127074125Y-42691175D01*
X126798147Y-42506772D01*
X126491496Y-42379754D01*
X126165958Y-42315000D01*
X125834042Y-42315000D01*
X125508504Y-42379754D01*
X125201853Y-42506772D01*
X124925875Y-42691175D01*
X124691175Y-42925875D01*
X124506772Y-43201853D01*
X124379754Y-43508504D01*
X124315000Y-43834042D01*
X121439174Y-43834042D01*
X119951996Y-42346865D01*
X119916449Y-42303551D01*
X119743623Y-42161716D01*
X119546447Y-42056324D01*
X119332499Y-41991423D01*
X119165752Y-41975000D01*
X119165751Y-41975000D01*
X119110000Y-41969509D01*
X119054249Y-41975000D01*
X105625884Y-41975000D01*
X105471727Y-41871995D01*
X105217490Y-41766686D01*
X104947592Y-41713000D01*
X104672408Y-41713000D01*
X104402510Y-41766686D01*
X104148273Y-41871995D01*
X103919465Y-42024880D01*
X103724880Y-42219465D01*
X103571995Y-42448273D01*
X103466686Y-42702510D01*
X103413000Y-42972408D01*
X98587000Y-42972408D01*
X98533314Y-42702510D01*
X98428005Y-42448273D01*
X98275120Y-42219465D01*
X98080535Y-42024880D01*
X97851727Y-41871995D01*
X97597490Y-41766686D01*
X97327592Y-41713000D01*
X97052408Y-41713000D01*
X96782510Y-41766686D01*
X96528273Y-41871995D01*
X96374116Y-41975000D01*
X79945751Y-41975000D01*
X79890000Y-41969509D01*
X79834248Y-41975000D01*
X79667501Y-41991423D01*
X79453553Y-42056324D01*
X79256377Y-42161716D01*
X79083551Y-42303551D01*
X78941716Y-42476377D01*
X78836324Y-42673553D01*
X78771423Y-42887501D01*
X78749509Y-43110000D01*
X78755000Y-43165752D01*
X78755001Y-44639867D01*
X75236865Y-48158004D01*
X75193551Y-48193551D01*
X75051716Y-48366377D01*
X74946325Y-48563553D01*
X74946324Y-48563554D01*
X74881423Y-48777502D01*
X74859509Y-49000000D01*
X74865000Y-49055752D01*
X74865001Y-57944239D01*
X74859509Y-58000000D01*
X74881423Y-58222498D01*
X74946324Y-58436446D01*
X74973662Y-58487592D01*
X75051717Y-58633623D01*
X75193552Y-58806449D01*
X75236860Y-58841991D01*
X78086928Y-61692061D01*
X78086928Y-62275000D01*
X78099188Y-62399482D01*
X78135498Y-62519180D01*
X78194463Y-62629494D01*
X78273815Y-62726185D01*
X78290649Y-62740000D01*
X73537322Y-62740000D01*
X73499999Y-62736324D01*
X73462676Y-62740000D01*
X73462667Y-62740000D01*
X73351014Y-62750997D01*
X73215032Y-62792246D01*
X73207753Y-62794454D01*
X73075723Y-62865026D01*
X72992083Y-62933668D01*
X72959999Y-62959999D01*
X72936201Y-62988997D01*
X71127000Y-64798199D01*
X71127000Y-43834042D01*
X72315000Y-43834042D01*
X72315000Y-44165958D01*
X72379754Y-44491496D01*
X72506772Y-44798147D01*
X72691175Y-45074125D01*
X72925875Y-45308825D01*
X73201853Y-45493228D01*
X73508504Y-45620246D01*
X73834042Y-45685000D01*
X74165958Y-45685000D01*
X74491496Y-45620246D01*
X74798147Y-45493228D01*
X75074125Y-45308825D01*
X75308825Y-45074125D01*
X75493228Y-44798147D01*
X75620246Y-44491496D01*
X75685000Y-44165958D01*
X75685000Y-43834042D01*
X75620246Y-43508504D01*
X75493228Y-43201853D01*
X75308825Y-42925875D01*
X75074125Y-42691175D01*
X74798147Y-42506772D01*
X74491496Y-42379754D01*
X74165958Y-42315000D01*
X73834042Y-42315000D01*
X73508504Y-42379754D01*
X73201853Y-42506772D01*
X72925875Y-42691175D01*
X72691175Y-42925875D01*
X72506772Y-43201853D01*
X72379754Y-43508504D01*
X72315000Y-43834042D01*
X71127000Y-43834042D01*
X71127000Y-41127000D01*
X128873000Y-41127000D01*
X128873000Y-64798198D01*
G04 #@! TA.AperFunction,Conductor*
D19*
G36*
X128873000Y-64798198D02*
G01*
X128563804Y-64489002D01*
X128540001Y-64459999D01*
X128424276Y-64365026D01*
X128292247Y-64294454D01*
X128148986Y-64250997D01*
X128037333Y-64240000D01*
X128037322Y-64240000D01*
X128000000Y-64236324D01*
X127962678Y-64240000D01*
X117537325Y-64240000D01*
X117500000Y-64236324D01*
X117462675Y-64240000D01*
X117462667Y-64240000D01*
X117351014Y-64250997D01*
X117207753Y-64294454D01*
X117075724Y-64365026D01*
X116959999Y-64459999D01*
X116936201Y-64488997D01*
X114185199Y-67240000D01*
X109223711Y-67240000D01*
X109303937Y-67159774D01*
X109417205Y-66990256D01*
X109495226Y-66801898D01*
X109535000Y-66601939D01*
X109535000Y-66539801D01*
X111511003Y-64563799D01*
X111540001Y-64540001D01*
X111605657Y-64459999D01*
X111634974Y-64424277D01*
X111705546Y-64292247D01*
X111715328Y-64260000D01*
X111749003Y-64148986D01*
X111760000Y-64037333D01*
X111760000Y-64037323D01*
X111763676Y-64000000D01*
X111760000Y-63962677D01*
X111760000Y-61703711D01*
X111803937Y-61659774D01*
X111917205Y-61490256D01*
X111995226Y-61301898D01*
X112035000Y-61101939D01*
X112035000Y-60898061D01*
X111995226Y-60698102D01*
X111917205Y-60509744D01*
X111803937Y-60340226D01*
X111659774Y-60196063D01*
X111490256Y-60082795D01*
X111301898Y-60004774D01*
X111101939Y-59965000D01*
X110898061Y-59965000D01*
X110698102Y-60004774D01*
X110509744Y-60082795D01*
X110340226Y-60196063D01*
X110196063Y-60340226D01*
X110082795Y-60509744D01*
X110004774Y-60698102D01*
X109965000Y-60898061D01*
X109965000Y-61101939D01*
X110004774Y-61301898D01*
X110082795Y-61490256D01*
X110196063Y-61659774D01*
X110240000Y-61703711D01*
X110240001Y-63685197D01*
X108460199Y-65465000D01*
X108398061Y-65465000D01*
X108198102Y-65504774D01*
X108009744Y-65582795D01*
X107840226Y-65696063D01*
X107696063Y-65840226D01*
X107582795Y-66009744D01*
X107504774Y-66198102D01*
X107465000Y-66398061D01*
X107465000Y-66601939D01*
X107504774Y-66801898D01*
X107582795Y-66990256D01*
X107696063Y-67159774D01*
X107776289Y-67240000D01*
X101703711Y-67240000D01*
X101659774Y-67196063D01*
X101490256Y-67082795D01*
X101301898Y-67004774D01*
X101101939Y-66965000D01*
X100898061Y-66965000D01*
X100698102Y-67004774D01*
X100509744Y-67082795D01*
X100340226Y-67196063D01*
X100196063Y-67340226D01*
X100082795Y-67509744D01*
X100004774Y-67698102D01*
X99965000Y-67898061D01*
X99965000Y-68101939D01*
X99992462Y-68240000D01*
X95203711Y-68240000D01*
X95159774Y-68196063D01*
X94990256Y-68082795D01*
X94801898Y-68004774D01*
X94601939Y-67965000D01*
X94398061Y-67965000D01*
X94198102Y-68004774D01*
X94009744Y-68082795D01*
X93840226Y-68196063D01*
X93696063Y-68340226D01*
X93582795Y-68509744D01*
X93504774Y-68698102D01*
X93465000Y-68898061D01*
X93465000Y-69101939D01*
X93492462Y-69240000D01*
X87703711Y-69240000D01*
X87659774Y-69196063D01*
X87490256Y-69082795D01*
X87301898Y-69004774D01*
X87150202Y-68974600D01*
X87561002Y-68563799D01*
X87590001Y-68540001D01*
X87684974Y-68424276D01*
X87755546Y-68292247D01*
X87799003Y-68148986D01*
X87813677Y-68000000D01*
X87799003Y-67851014D01*
X87755546Y-67707753D01*
X87684974Y-67575724D01*
X87590001Y-67459999D01*
X87562538Y-67437461D01*
X87540001Y-67409999D01*
X87511003Y-67386201D01*
X84383804Y-64259003D01*
X84360001Y-64229999D01*
X84244276Y-64135026D01*
X84112247Y-64064454D01*
X83968986Y-64020997D01*
X83857333Y-64010000D01*
X83857322Y-64010000D01*
X83820000Y-64006324D01*
X83782678Y-64010000D01*
X83564801Y-64010000D01*
X84511004Y-63063798D01*
X84540001Y-63040001D01*
X84634974Y-62924276D01*
X84705546Y-62792247D01*
X84749003Y-62648986D01*
X84760000Y-62537333D01*
X84760000Y-62537332D01*
X84763677Y-62500000D01*
X84760000Y-62462667D01*
X84760000Y-57898061D01*
X84965000Y-57898061D01*
X84965000Y-58101939D01*
X85004774Y-58301898D01*
X85082795Y-58490256D01*
X85196063Y-58659774D01*
X85340226Y-58803937D01*
X85509744Y-58917205D01*
X85698102Y-58995226D01*
X85898061Y-59035000D01*
X86101939Y-59035000D01*
X86301898Y-58995226D01*
X86490256Y-58917205D01*
X86659774Y-58803937D01*
X86703711Y-58760000D01*
X87685199Y-58760000D01*
X88351279Y-59426081D01*
X88330000Y-59533061D01*
X88330000Y-59736939D01*
X88369774Y-59936898D01*
X88447795Y-60125256D01*
X88561063Y-60294774D01*
X88705226Y-60438937D01*
X88874744Y-60552205D01*
X89063102Y-60630226D01*
X89263061Y-60670000D01*
X89466939Y-60670000D01*
X89666898Y-60630226D01*
X89855256Y-60552205D01*
X89875001Y-60539012D01*
X89875001Y-60661288D01*
X89831063Y-60705226D01*
X89717795Y-60874744D01*
X89639774Y-61063102D01*
X89600000Y-61263061D01*
X89600000Y-61466939D01*
X89639774Y-61666898D01*
X89717795Y-61855256D01*
X89831063Y-62024774D01*
X89975226Y-62168937D01*
X90144744Y-62282205D01*
X90333102Y-62360226D01*
X90533061Y-62400000D01*
X90736939Y-62400000D01*
X90936898Y-62360226D01*
X91125256Y-62282205D01*
X91294774Y-62168937D01*
X91438937Y-62024774D01*
X91552205Y-61855256D01*
X91630226Y-61666898D01*
X91670000Y-61466939D01*
X91670000Y-61263061D01*
X91630226Y-61063102D01*
X91552205Y-60874744D01*
X91438937Y-60705226D01*
X91404256Y-60670545D01*
X93862393Y-58212408D01*
X95793000Y-58212408D01*
X95793000Y-58487592D01*
X95846686Y-58757490D01*
X95951995Y-59011727D01*
X96104880Y-59240535D01*
X96299465Y-59435120D01*
X96528273Y-59588005D01*
X96605515Y-59620000D01*
X96528273Y-59651995D01*
X96299465Y-59804880D01*
X96104880Y-59999465D01*
X95951995Y-60228273D01*
X95846686Y-60482510D01*
X95793000Y-60752408D01*
X95793000Y-61027592D01*
X95846686Y-61297490D01*
X95951995Y-61551727D01*
X96104880Y-61780535D01*
X96299465Y-61975120D01*
X96528273Y-62128005D01*
X96782510Y-62233314D01*
X97052408Y-62287000D01*
X97327592Y-62287000D01*
X97597490Y-62233314D01*
X97851727Y-62128005D01*
X98080535Y-61975120D01*
X98275120Y-61780535D01*
X98428005Y-61551727D01*
X98533314Y-61297490D01*
X98587000Y-61027592D01*
X98587000Y-60752408D01*
X98533314Y-60482510D01*
X98428005Y-60228273D01*
X98275120Y-59999465D01*
X98080535Y-59804880D01*
X97851727Y-59651995D01*
X97774485Y-59620000D01*
X97851727Y-59588005D01*
X98080535Y-59435120D01*
X98275120Y-59240535D01*
X98428005Y-59011727D01*
X98533314Y-58757490D01*
X98587000Y-58487592D01*
X98587000Y-58212408D01*
X98533314Y-57942510D01*
X98428005Y-57688273D01*
X98275120Y-57459465D01*
X98080535Y-57264880D01*
X97851727Y-57111995D01*
X97597490Y-57006686D01*
X97327592Y-56953000D01*
X97052408Y-56953000D01*
X96782510Y-57006686D01*
X96528273Y-57111995D01*
X96299465Y-57264880D01*
X96104880Y-57459465D01*
X95951995Y-57688273D01*
X95846686Y-57942510D01*
X95793000Y-58212408D01*
X93862393Y-58212408D01*
X95314802Y-56760000D01*
X99992462Y-56760000D01*
X99965000Y-56898061D01*
X99965000Y-57101939D01*
X100004774Y-57301898D01*
X100082795Y-57490256D01*
X100196063Y-57659774D01*
X100340226Y-57803937D01*
X100509744Y-57917205D01*
X100698102Y-57995226D01*
X100898061Y-58035000D01*
X100960199Y-58035000D01*
X101240000Y-58314802D01*
X101240001Y-61685197D01*
X97685199Y-65240000D01*
X95703711Y-65240000D01*
X95659774Y-65196063D01*
X95490256Y-65082795D01*
X95301898Y-65004774D01*
X95101939Y-64965000D01*
X94898061Y-64965000D01*
X94698102Y-65004774D01*
X94509744Y-65082795D01*
X94340226Y-65196063D01*
X94196063Y-65340226D01*
X94082795Y-65509744D01*
X94004774Y-65698102D01*
X93965000Y-65898061D01*
X93965000Y-66101939D01*
X94004774Y-66301898D01*
X94082795Y-66490256D01*
X94196063Y-66659774D01*
X94340226Y-66803937D01*
X94509744Y-66917205D01*
X94698102Y-66995226D01*
X94898061Y-67035000D01*
X95101939Y-67035000D01*
X95301898Y-66995226D01*
X95490256Y-66917205D01*
X95659774Y-66803937D01*
X95703711Y-66760000D01*
X97962678Y-66760000D01*
X98000000Y-66763676D01*
X98037322Y-66760000D01*
X98037333Y-66760000D01*
X98148986Y-66749003D01*
X98292247Y-66705546D01*
X98424276Y-66634974D01*
X98540001Y-66540001D01*
X98563804Y-66510997D01*
X102511003Y-62563799D01*
X102540001Y-62540001D01*
X102634974Y-62424276D01*
X102705546Y-62292247D01*
X102749003Y-62148986D01*
X102760000Y-62037333D01*
X102760000Y-62037324D01*
X102763676Y-62000001D01*
X102760000Y-61962678D01*
X102760000Y-58212408D01*
X103413000Y-58212408D01*
X103413000Y-58487592D01*
X103466686Y-58757490D01*
X103571995Y-59011727D01*
X103724880Y-59240535D01*
X103919465Y-59435120D01*
X104148273Y-59588005D01*
X104225515Y-59620000D01*
X104148273Y-59651995D01*
X103919465Y-59804880D01*
X103724880Y-59999465D01*
X103571995Y-60228273D01*
X103466686Y-60482510D01*
X103413000Y-60752408D01*
X103413000Y-61027592D01*
X103466686Y-61297490D01*
X103571995Y-61551727D01*
X103724880Y-61780535D01*
X103919465Y-61975120D01*
X104148273Y-62128005D01*
X104402510Y-62233314D01*
X104672408Y-62287000D01*
X104947592Y-62287000D01*
X105217490Y-62233314D01*
X105471727Y-62128005D01*
X105700535Y-61975120D01*
X105895120Y-61780535D01*
X106048005Y-61551727D01*
X106153314Y-61297490D01*
X106207000Y-61027592D01*
X106207000Y-60752408D01*
X106153314Y-60482510D01*
X106048005Y-60228273D01*
X105895120Y-59999465D01*
X105700535Y-59804880D01*
X105471727Y-59651995D01*
X105394485Y-59620000D01*
X105471727Y-59588005D01*
X105700535Y-59435120D01*
X105895120Y-59240535D01*
X106048005Y-59011727D01*
X106153314Y-58757490D01*
X106207000Y-58487592D01*
X106207000Y-58212408D01*
X106153314Y-57942510D01*
X106048005Y-57688273D01*
X105895120Y-57459465D01*
X105700535Y-57264880D01*
X105471727Y-57111995D01*
X105217490Y-57006686D01*
X104947592Y-56953000D01*
X104672408Y-56953000D01*
X104402510Y-57006686D01*
X104148273Y-57111995D01*
X103919465Y-57264880D01*
X103724880Y-57459465D01*
X103571995Y-57688273D01*
X103466686Y-57942510D01*
X103413000Y-58212408D01*
X102760000Y-58212408D01*
X102760000Y-58037333D01*
X102763677Y-58000000D01*
X102749003Y-57851014D01*
X102705546Y-57707753D01*
X102634974Y-57575724D01*
X102563799Y-57488997D01*
X102540001Y-57459999D01*
X102511003Y-57436201D01*
X102035000Y-56960199D01*
X102035000Y-56898061D01*
X102007538Y-56760000D01*
X105685199Y-56760000D01*
X108436200Y-59511002D01*
X108459999Y-59540001D01*
X108575724Y-59634974D01*
X108707753Y-59705546D01*
X108851014Y-59749003D01*
X108962667Y-59760000D01*
X108962675Y-59760000D01*
X109000000Y-59763676D01*
X109037325Y-59760000D01*
X113685199Y-59760000D01*
X115965000Y-62039802D01*
X115965000Y-62101939D01*
X116004774Y-62301898D01*
X116082795Y-62490256D01*
X116196063Y-62659774D01*
X116340226Y-62803937D01*
X116509744Y-62917205D01*
X116698102Y-62995226D01*
X116898061Y-63035000D01*
X117101939Y-63035000D01*
X117301898Y-62995226D01*
X117490256Y-62917205D01*
X117659774Y-62803937D01*
X117803937Y-62659774D01*
X117917205Y-62490256D01*
X117995226Y-62301898D01*
X118035000Y-62101939D01*
X118035000Y-61898061D01*
X117995226Y-61698102D01*
X117917205Y-61509744D01*
X117803937Y-61340226D01*
X117659774Y-61196063D01*
X117490256Y-61082795D01*
X117301898Y-61004774D01*
X117101939Y-60965000D01*
X117039802Y-60965000D01*
X114563804Y-58489003D01*
X114540001Y-58459999D01*
X114424276Y-58365026D01*
X114292247Y-58294454D01*
X114148986Y-58250997D01*
X114037333Y-58240000D01*
X114037322Y-58240000D01*
X114000000Y-58236324D01*
X113962678Y-58240000D01*
X109314802Y-58240000D01*
X106563804Y-55489003D01*
X106540001Y-55459999D01*
X106424276Y-55365026D01*
X106292247Y-55294454D01*
X106148986Y-55250997D01*
X106037333Y-55240000D01*
X106037322Y-55240000D01*
X106000000Y-55236324D01*
X105962678Y-55240000D01*
X95037322Y-55240000D01*
X94999999Y-55236324D01*
X94962676Y-55240000D01*
X94962667Y-55240000D01*
X94851014Y-55250997D01*
X94707753Y-55294454D01*
X94575724Y-55365026D01*
X94459999Y-55459999D01*
X94436201Y-55488997D01*
X90398696Y-59526503D01*
X90360226Y-59333102D01*
X90282205Y-59144744D01*
X90168937Y-58975226D01*
X90024774Y-58831063D01*
X89855256Y-58717795D01*
X89748290Y-58673488D01*
X88563804Y-57489003D01*
X88540001Y-57459999D01*
X88424276Y-57365026D01*
X88292247Y-57294454D01*
X88148986Y-57250997D01*
X88037333Y-57240000D01*
X88037322Y-57240000D01*
X88000000Y-57236324D01*
X87962678Y-57240000D01*
X86703711Y-57240000D01*
X86659774Y-57196063D01*
X86490256Y-57082795D01*
X86301898Y-57004774D01*
X86101939Y-56965000D01*
X85898061Y-56965000D01*
X85698102Y-57004774D01*
X85509744Y-57082795D01*
X85340226Y-57196063D01*
X85196063Y-57340226D01*
X85082795Y-57509744D01*
X85004774Y-57698102D01*
X84965000Y-57898061D01*
X84760000Y-57898061D01*
X84760000Y-56314801D01*
X85814802Y-55260000D01*
X91496440Y-55260000D01*
X91504774Y-55301898D01*
X91582795Y-55490256D01*
X91696063Y-55659774D01*
X91840226Y-55803937D01*
X92009744Y-55917205D01*
X92198102Y-55995226D01*
X92398061Y-56035000D01*
X92601939Y-56035000D01*
X92801898Y-55995226D01*
X92990256Y-55917205D01*
X93159774Y-55803937D01*
X93303937Y-55659774D01*
X93417205Y-55490256D01*
X93495226Y-55301898D01*
X93535000Y-55101939D01*
X93535000Y-54898061D01*
X93495226Y-54698102D01*
X93417205Y-54509744D01*
X93347217Y-54405000D01*
X96374116Y-54405000D01*
X96528273Y-54508005D01*
X96782510Y-54613314D01*
X97052408Y-54667000D01*
X97327592Y-54667000D01*
X97597490Y-54613314D01*
X97851727Y-54508005D01*
X98080535Y-54355120D01*
X98275120Y-54160535D01*
X98428005Y-53931727D01*
X98533314Y-53677490D01*
X98587000Y-53407592D01*
X98587000Y-53132408D01*
X103413000Y-53132408D01*
X103413000Y-53407592D01*
X103466686Y-53677490D01*
X103571995Y-53931727D01*
X103724880Y-54160535D01*
X103919465Y-54355120D01*
X104148273Y-54508005D01*
X104402510Y-54613314D01*
X104672408Y-54667000D01*
X104947592Y-54667000D01*
X105217490Y-54613314D01*
X105471727Y-54508005D01*
X105625884Y-54405000D01*
X116719869Y-54405000D01*
X118109370Y-55794502D01*
X118090000Y-55891881D01*
X118090000Y-56268119D01*
X118163400Y-56637127D01*
X118307380Y-56984724D01*
X118516406Y-57297554D01*
X118782446Y-57563594D01*
X119095276Y-57772620D01*
X119442873Y-57916600D01*
X119811881Y-57990000D01*
X120188119Y-57990000D01*
X120557127Y-57916600D01*
X120904724Y-57772620D01*
X121217554Y-57563594D01*
X121483594Y-57297554D01*
X121692620Y-56984724D01*
X121836600Y-56637127D01*
X121910000Y-56268119D01*
X121910000Y-55891881D01*
X121836600Y-55522873D01*
X121692620Y-55175276D01*
X121483594Y-54862446D01*
X121217554Y-54596406D01*
X120904724Y-54387380D01*
X120557127Y-54243400D01*
X120188119Y-54170000D01*
X119811881Y-54170000D01*
X119714502Y-54189370D01*
X118031996Y-52506865D01*
X117996449Y-52463551D01*
X117823623Y-52321716D01*
X117626447Y-52216324D01*
X117412499Y-52151423D01*
X117245752Y-52135000D01*
X117245751Y-52135000D01*
X117190000Y-52129509D01*
X117134249Y-52135000D01*
X105625884Y-52135000D01*
X105471727Y-52031995D01*
X105217490Y-51926686D01*
X104947592Y-51873000D01*
X104672408Y-51873000D01*
X104402510Y-51926686D01*
X104148273Y-52031995D01*
X103919465Y-52184880D01*
X103724880Y-52379465D01*
X103571995Y-52608273D01*
X103466686Y-52862510D01*
X103413000Y-53132408D01*
X98587000Y-53132408D01*
X98533314Y-52862510D01*
X98428005Y-52608273D01*
X98275120Y-52379465D01*
X98080535Y-52184880D01*
X97851727Y-52031995D01*
X97597490Y-51926686D01*
X97327592Y-51873000D01*
X97052408Y-51873000D01*
X96782510Y-51926686D01*
X96528273Y-52031995D01*
X96374116Y-52135000D01*
X82705751Y-52135000D01*
X82650000Y-52129509D01*
X82594248Y-52135000D01*
X82427501Y-52151423D01*
X82213553Y-52216324D01*
X82016377Y-52321716D01*
X81843551Y-52463551D01*
X81808009Y-52506859D01*
X80285499Y-54029370D01*
X80188119Y-54010000D01*
X79811881Y-54010000D01*
X79442873Y-54083400D01*
X79095276Y-54227380D01*
X78782446Y-54436406D01*
X78516406Y-54702446D01*
X78307380Y-55015276D01*
X78163400Y-55362873D01*
X78090000Y-55731881D01*
X78090000Y-56108119D01*
X78163400Y-56477127D01*
X78307380Y-56824724D01*
X78516406Y-57137554D01*
X78782446Y-57403594D01*
X79095276Y-57612620D01*
X79442873Y-57756600D01*
X79811881Y-57830000D01*
X80188119Y-57830000D01*
X80557127Y-57756600D01*
X80904724Y-57612620D01*
X81217554Y-57403594D01*
X81483594Y-57137554D01*
X81692620Y-56824724D01*
X81836600Y-56477127D01*
X81910000Y-56108119D01*
X81910000Y-55731881D01*
X81890630Y-55634501D01*
X83120132Y-54405000D01*
X84520198Y-54405000D01*
X83488998Y-55436201D01*
X83460000Y-55459999D01*
X83436202Y-55488997D01*
X83436201Y-55488998D01*
X83365026Y-55575724D01*
X83294454Y-55707754D01*
X83250998Y-55851015D01*
X83236324Y-56000000D01*
X83240001Y-56037332D01*
X83240000Y-62185198D01*
X82685199Y-62740000D01*
X81709351Y-62740000D01*
X81726185Y-62726185D01*
X81805537Y-62629494D01*
X81864502Y-62519180D01*
X81900812Y-62399482D01*
X81913072Y-62275000D01*
X81913072Y-59725000D01*
X81900812Y-59600518D01*
X81864502Y-59480820D01*
X81805537Y-59370506D01*
X81726185Y-59273815D01*
X81629494Y-59194463D01*
X81519180Y-59135498D01*
X81399482Y-59099188D01*
X81275000Y-59086928D01*
X78725000Y-59086928D01*
X78695014Y-59089881D01*
X77135000Y-57529869D01*
X77135000Y-50651881D01*
X78090000Y-50651881D01*
X78090000Y-51028119D01*
X78163400Y-51397127D01*
X78307380Y-51744724D01*
X78516406Y-52057554D01*
X78782446Y-52323594D01*
X79095276Y-52532620D01*
X79442873Y-52676600D01*
X79811881Y-52750000D01*
X80188119Y-52750000D01*
X80557127Y-52676600D01*
X80904724Y-52532620D01*
X81217554Y-52323594D01*
X81483594Y-52057554D01*
X81692620Y-51744724D01*
X81836600Y-51397127D01*
X81910000Y-51028119D01*
X81910000Y-50651881D01*
X81890630Y-50554501D01*
X83120132Y-49325000D01*
X96374116Y-49325000D01*
X96528273Y-49428005D01*
X96782510Y-49533314D01*
X97052408Y-49587000D01*
X97327592Y-49587000D01*
X97597490Y-49533314D01*
X97851727Y-49428005D01*
X98080535Y-49275120D01*
X98275120Y-49080535D01*
X98428005Y-48851727D01*
X98533314Y-48597490D01*
X98587000Y-48327592D01*
X98587000Y-48052408D01*
X103413000Y-48052408D01*
X103413000Y-48327592D01*
X103466686Y-48597490D01*
X103571995Y-48851727D01*
X103724880Y-49080535D01*
X103919465Y-49275120D01*
X104148273Y-49428005D01*
X104402510Y-49533314D01*
X104672408Y-49587000D01*
X104947592Y-49587000D01*
X105217490Y-49533314D01*
X105471727Y-49428005D01*
X105625884Y-49325000D01*
X116719869Y-49325000D01*
X118086928Y-50692060D01*
X118086928Y-52275000D01*
X118099188Y-52399482D01*
X118135498Y-52519180D01*
X118194463Y-52629494D01*
X118273815Y-52726185D01*
X118370506Y-52805537D01*
X118480820Y-52864502D01*
X118600518Y-52900812D01*
X118725000Y-52913072D01*
X121275000Y-52913072D01*
X121399482Y-52900812D01*
X121519180Y-52864502D01*
X121629494Y-52805537D01*
X121726185Y-52726185D01*
X121805537Y-52629494D01*
X121864502Y-52519180D01*
X121900812Y-52399482D01*
X121913072Y-52275000D01*
X121913072Y-49725000D01*
X121900812Y-49600518D01*
X121864502Y-49480820D01*
X121805537Y-49370506D01*
X121726185Y-49273815D01*
X121629494Y-49194463D01*
X121519180Y-49135498D01*
X121399482Y-49099188D01*
X121275000Y-49086928D01*
X119692060Y-49086928D01*
X118031996Y-47426865D01*
X117996449Y-47383551D01*
X117823623Y-47241716D01*
X117626447Y-47136324D01*
X117412499Y-47071423D01*
X117245752Y-47055000D01*
X117245751Y-47055000D01*
X117190000Y-47049509D01*
X117134249Y-47055000D01*
X105625884Y-47055000D01*
X105471727Y-46951995D01*
X105217490Y-46846686D01*
X104947592Y-46793000D01*
X104672408Y-46793000D01*
X104402510Y-46846686D01*
X104148273Y-46951995D01*
X103919465Y-47104880D01*
X103724880Y-47299465D01*
X103571995Y-47528273D01*
X103466686Y-47782510D01*
X103413000Y-48052408D01*
X98587000Y-48052408D01*
X98533314Y-47782510D01*
X98428005Y-47528273D01*
X98275120Y-47299465D01*
X98080535Y-47104880D01*
X97851727Y-46951995D01*
X97597490Y-46846686D01*
X97327592Y-46793000D01*
X97052408Y-46793000D01*
X96782510Y-46846686D01*
X96528273Y-46951995D01*
X96374116Y-47055000D01*
X82705751Y-47055000D01*
X82650000Y-47049509D01*
X82594248Y-47055000D01*
X82427501Y-47071423D01*
X82213553Y-47136324D01*
X82016377Y-47241716D01*
X81843551Y-47383551D01*
X81808009Y-47426859D01*
X80285499Y-48949370D01*
X80188119Y-48930000D01*
X79811881Y-48930000D01*
X79442873Y-49003400D01*
X79095276Y-49147380D01*
X78782446Y-49356406D01*
X78516406Y-49622446D01*
X78307380Y-49935276D01*
X78163400Y-50282873D01*
X78090000Y-50651881D01*
X77135000Y-50651881D01*
X77135000Y-49470131D01*
X80653141Y-45951991D01*
X80696449Y-45916449D01*
X80838284Y-45743623D01*
X80943676Y-45546447D01*
X81008577Y-45332499D01*
X81025000Y-45165752D01*
X81030491Y-45110000D01*
X81025000Y-45054248D01*
X81025000Y-44245000D01*
X96374116Y-44245000D01*
X96528273Y-44348005D01*
X96782510Y-44453314D01*
X97052408Y-44507000D01*
X97327592Y-44507000D01*
X97597490Y-44453314D01*
X97851727Y-44348005D01*
X98080535Y-44195120D01*
X98275120Y-44000535D01*
X98428005Y-43771727D01*
X98533314Y-43517490D01*
X98587000Y-43247592D01*
X98587000Y-42972408D01*
X103413000Y-42972408D01*
X103413000Y-43247592D01*
X103466686Y-43517490D01*
X103571995Y-43771727D01*
X103724880Y-44000535D01*
X103919465Y-44195120D01*
X104148273Y-44348005D01*
X104402510Y-44453314D01*
X104672408Y-44507000D01*
X104947592Y-44507000D01*
X105217490Y-44453314D01*
X105471727Y-44348005D01*
X105625884Y-44245000D01*
X118639869Y-44245000D01*
X122865001Y-48470133D01*
X122865000Y-58529868D01*
X121468008Y-59926860D01*
X121217554Y-59676406D01*
X120904724Y-59467380D01*
X120557127Y-59323400D01*
X120188119Y-59250000D01*
X119811881Y-59250000D01*
X119442873Y-59323400D01*
X119095276Y-59467380D01*
X118782446Y-59676406D01*
X118516406Y-59942446D01*
X118307380Y-60255276D01*
X118163400Y-60602873D01*
X118090000Y-60971881D01*
X118090000Y-61348119D01*
X118163400Y-61717127D01*
X118307380Y-62064724D01*
X118516406Y-62377554D01*
X118782446Y-62643594D01*
X119095276Y-62852620D01*
X119442873Y-62996600D01*
X119811881Y-63070000D01*
X120188119Y-63070000D01*
X120557127Y-62996600D01*
X120904724Y-62852620D01*
X121217554Y-62643594D01*
X121483594Y-62377554D01*
X121538755Y-62295000D01*
X121784249Y-62295000D01*
X121840000Y-62300491D01*
X121895751Y-62295000D01*
X121895752Y-62295000D01*
X122062499Y-62278577D01*
X122276447Y-62213676D01*
X122473623Y-62108284D01*
X122646449Y-61966449D01*
X122681996Y-61923135D01*
X124763141Y-59841991D01*
X124806449Y-59806449D01*
X124948284Y-59633623D01*
X125053676Y-59436447D01*
X125118577Y-59222499D01*
X125135000Y-59055752D01*
X125135000Y-59055743D01*
X125140490Y-59000001D01*
X125135000Y-58944259D01*
X125135000Y-48055741D01*
X125140490Y-47999999D01*
X125135000Y-47944257D01*
X125135000Y-47944248D01*
X125118577Y-47777501D01*
X125053676Y-47563553D01*
X124948284Y-47366377D01*
X124806449Y-47193551D01*
X124763141Y-47158009D01*
X121439174Y-43834042D01*
X124315000Y-43834042D01*
X124315000Y-44165958D01*
X124379754Y-44491496D01*
X124506772Y-44798147D01*
X124691175Y-45074125D01*
X124925875Y-45308825D01*
X125201853Y-45493228D01*
X125508504Y-45620246D01*
X125834042Y-45685000D01*
X126165958Y-45685000D01*
X126491496Y-45620246D01*
X126798147Y-45493228D01*
X127074125Y-45308825D01*
X127308825Y-45074125D01*
X127493228Y-44798147D01*
X127620246Y-44491496D01*
X127685000Y-44165958D01*
X127685000Y-43834042D01*
X127620246Y-43508504D01*
X127493228Y-43201853D01*
X127308825Y-42925875D01*
X127074125Y-42691175D01*
X126798147Y-42506772D01*
X126491496Y-42379754D01*
X126165958Y-42315000D01*
X125834042Y-42315000D01*
X125508504Y-42379754D01*
X125201853Y-42506772D01*
X124925875Y-42691175D01*
X124691175Y-42925875D01*
X124506772Y-43201853D01*
X124379754Y-43508504D01*
X124315000Y-43834042D01*
X121439174Y-43834042D01*
X119951996Y-42346865D01*
X119916449Y-42303551D01*
X119743623Y-42161716D01*
X119546447Y-42056324D01*
X119332499Y-41991423D01*
X119165752Y-41975000D01*
X119165751Y-41975000D01*
X119110000Y-41969509D01*
X119054249Y-41975000D01*
X105625884Y-41975000D01*
X105471727Y-41871995D01*
X105217490Y-41766686D01*
X104947592Y-41713000D01*
X104672408Y-41713000D01*
X104402510Y-41766686D01*
X104148273Y-41871995D01*
X103919465Y-42024880D01*
X103724880Y-42219465D01*
X103571995Y-42448273D01*
X103466686Y-42702510D01*
X103413000Y-42972408D01*
X98587000Y-42972408D01*
X98533314Y-42702510D01*
X98428005Y-42448273D01*
X98275120Y-42219465D01*
X98080535Y-42024880D01*
X97851727Y-41871995D01*
X97597490Y-41766686D01*
X97327592Y-41713000D01*
X97052408Y-41713000D01*
X96782510Y-41766686D01*
X96528273Y-41871995D01*
X96374116Y-41975000D01*
X79945751Y-41975000D01*
X79890000Y-41969509D01*
X79834248Y-41975000D01*
X79667501Y-41991423D01*
X79453553Y-42056324D01*
X79256377Y-42161716D01*
X79083551Y-42303551D01*
X78941716Y-42476377D01*
X78836324Y-42673553D01*
X78771423Y-42887501D01*
X78749509Y-43110000D01*
X78755000Y-43165752D01*
X78755001Y-44639867D01*
X75236865Y-48158004D01*
X75193551Y-48193551D01*
X75051716Y-48366377D01*
X74946325Y-48563553D01*
X74946324Y-48563554D01*
X74881423Y-48777502D01*
X74859509Y-49000000D01*
X74865000Y-49055752D01*
X74865001Y-57944239D01*
X74859509Y-58000000D01*
X74881423Y-58222498D01*
X74946324Y-58436446D01*
X74973662Y-58487592D01*
X75051717Y-58633623D01*
X75193552Y-58806449D01*
X75236860Y-58841991D01*
X78086928Y-61692061D01*
X78086928Y-62275000D01*
X78099188Y-62399482D01*
X78135498Y-62519180D01*
X78194463Y-62629494D01*
X78273815Y-62726185D01*
X78290649Y-62740000D01*
X73537322Y-62740000D01*
X73499999Y-62736324D01*
X73462676Y-62740000D01*
X73462667Y-62740000D01*
X73351014Y-62750997D01*
X73215032Y-62792246D01*
X73207753Y-62794454D01*
X73075723Y-62865026D01*
X72992083Y-62933668D01*
X72959999Y-62959999D01*
X72936201Y-62988997D01*
X71127000Y-64798199D01*
X71127000Y-43834042D01*
X72315000Y-43834042D01*
X72315000Y-44165958D01*
X72379754Y-44491496D01*
X72506772Y-44798147D01*
X72691175Y-45074125D01*
X72925875Y-45308825D01*
X73201853Y-45493228D01*
X73508504Y-45620246D01*
X73834042Y-45685000D01*
X74165958Y-45685000D01*
X74491496Y-45620246D01*
X74798147Y-45493228D01*
X75074125Y-45308825D01*
X75308825Y-45074125D01*
X75493228Y-44798147D01*
X75620246Y-44491496D01*
X75685000Y-44165958D01*
X75685000Y-43834042D01*
X75620246Y-43508504D01*
X75493228Y-43201853D01*
X75308825Y-42925875D01*
X75074125Y-42691175D01*
X74798147Y-42506772D01*
X74491496Y-42379754D01*
X74165958Y-42315000D01*
X73834042Y-42315000D01*
X73508504Y-42379754D01*
X73201853Y-42506772D01*
X72925875Y-42691175D01*
X72691175Y-42925875D01*
X72506772Y-43201853D01*
X72379754Y-43508504D01*
X72315000Y-43834042D01*
X71127000Y-43834042D01*
X71127000Y-41127000D01*
X128873000Y-41127000D01*
X128873000Y-64798198D01*
G37*
G04 #@! TD.AperFunction*
M02*
