M48
; DRILL file {KiCad 5.1.10-88a1d61d58~88~ubuntu20.10.1} date Wed May 12 21:52:29 2021
; FORMAT={-:-/ absolute / metric / decimal}
; #@! TF.CreationDate,2021-05-12T21:52:29+02:00
; #@! TF.GenerationSoftware,Kicad,Pcbnew,5.1.10-88a1d61d58~88~ubuntu20.10.1
; #@! TF.FileFunction,Plated,1,2,PTH
FMAT,2
METRIC
T1C0.400
T2C0.762
T3C1.000
T4C1.700
%
G90
G05
T1
X80.0Y-47.0
X86.0Y-58.0
X87.0Y-70.0
X89.0Y-45.0
X89.365Y-59.635
X90.193Y-71.097
X90.635Y-61.365
X92.5Y-55.0
X93.0Y-71.0
X94.5Y-69.0
X95.0Y-66.0
X96.0Y-72.0
X96.5Y-71.0
X101.0Y-57.0
X101.0Y-68.0
X101.0Y-69.5
X107.0Y-69.5
X108.5Y-66.5
X108.5Y-72.0
X109.0Y-45.0
X111.0Y-61.0
X112.0Y-70.5
X113.0Y-57.0
X115.975Y-73.0
X117.0Y-62.0
T2
X97.19Y-43.11
X97.19Y-48.19
X97.19Y-53.27
X97.19Y-58.35
X97.19Y-60.89
X104.81Y-43.11
X104.81Y-48.19
X104.81Y-53.27
X104.81Y-58.35
X104.81Y-60.89
T3
X73.84Y-68.0
X76.38Y-68.0
X78.92Y-68.0
X81.46Y-68.0
X84.0Y-68.0
X122.0Y-68.0
X124.54Y-68.0
X127.08Y-68.0
T4
X80.0Y-50.84
X80.0Y-55.92
X80.0Y-61.0
X80.0Y-75.0
X80.0Y-80.08
X80.0Y-85.16
X80.0Y-90.24
X120.0Y-51.0
X120.0Y-56.08
X120.0Y-61.16
X120.0Y-75.0
X120.0Y-80.08
X120.0Y-85.16
X120.0Y-90.24
T0
M30
